<svg width="145" height="116" viewBox="0 0 145 116" fill="none" xmlns="http://www.w3.org/2000/svg">
<path fill-rule="evenodd" clip-rule="evenodd" d="M1.5293 79.9151H52.8514C53.4801 87.717 55.8307 95.0315 59.5265 101.473H1.5293C0.736328 101.473 0 100.787 0 99.9427V81.4483C0 80.6009 0.685352 79.9151 1.5293 79.9151ZM1.5293 61.5141H54.6355C56.9521 53.341 61.22 45.9783 66.9039 39.9561H1.5293C0.736328 39.9561 0 40.6703 0 41.4865V59.9809C0 60.8 0.685352 61.5141 1.5293 61.5141ZM1.5293 0H113.664C114.51 0 115.196 0.736832 115.196 1.53034V20.0248C115.196 20.8183 114.457 21.558 113.664 21.558H1.5293C0.736328 21.558 0 20.8722 0 20.0248V1.53034C0 0.68582 0.685352 0 1.5293 0Z" />
<path fill-rule="evenodd" clip-rule="evenodd" d="M104.697 35.3368C126.957 35.3368 145 53.392 145 75.6698C145 97.9448 126.957 116 104.697 116C82.4376 116 64.3919 97.9448 64.3919 75.6698C64.3919 53.392 82.4376 35.3368 104.697 35.3368ZM86.1023 67.3011C84.556 65.7764 83.3184 64.8242 85.2498 62.9453L91.4888 56.8551C93.4655 54.8543 94.621 54.9563 96.4618 56.8437L104.867 65.255L113.222 56.8948C114.745 55.3474 115.697 54.1118 117.575 56.0417L123.661 62.2821C125.66 64.2602 125.558 65.4222 123.672 67.2614L115.275 75.6698L123.672 84.0725C125.558 85.9146 125.66 87.0765 123.661 89.0546L117.575 95.2922C115.697 97.225 114.745 95.9865 113.222 94.4392L104.867 86.079L96.4618 94.4902C94.621 96.3804 93.4655 96.4796 91.4888 94.4788L85.2498 88.3887C83.3184 86.5097 84.556 85.5547 86.1023 84.0328L94.4624 75.6698L86.1023 67.3011Z" fill="#F44336"/>
</svg>
