<svg width="311" height="279" viewBox="0 0 311 279" fill="none" xmlns="http://www.w3.org/2000/svg">
<path fill-rule="evenodd" clip-rule="evenodd" d="M2.90808 0H308.1C309.697 0 311 1.31104 311 2.90808V74.7445C311 76.3491 309.694 77.6526 308.1 77.6526H2.90808C1.31104 77.6526 0 76.3491 0 74.7445V2.90808C0 1.31104 1.31104 0 2.90808 0ZM18.2837 93.1066H292.724C294.055 93.1066 295.159 94.195 295.159 95.5389V276.075C295.159 277.414 294.055 278.51 292.724 278.51H18.2837C16.9473 278.51 15.8514 277.414 15.8514 276.075V95.5414C15.8514 94.195 16.9448 93.1066 18.2837 93.1066ZM113.906 122.818H197.099C206.031 122.818 213.345 130.127 213.345 139.059C213.345 147.991 206.031 155.298 197.099 155.298H113.906C104.967 155.298 97.6598 147.991 97.6598 139.059C97.6598 130.127 104.969 122.818 113.906 122.818Z" />
</svg>
