<svg width="35" height="24" viewBox="0 0 35 24" fill="none" xmlns="http://www.w3.org/2000/svg">
<path d="M13.3784 14.4667C13.6613 14.7264 13.8157 15.0739 13.8396 15.4317C13.8635 15.7941 13.7511 16.1668 13.5005 16.4671C13.7421 16.2746 14.0353 16.1752 14.3324 16.1668C14.6883 16.1564 15.0507 16.2772 15.3343 16.524C15.3381 16.5272 15.3511 16.5395 15.3717 16.5588L15.1334 16.8146L15.373 16.5582C15.3833 16.5679 15.3924 16.5782 15.4014 16.5886C15.6714 16.8553 15.8096 17.2009 15.8213 17.5536C15.8323 17.8733 15.7386 18.1975 15.5442 18.472C15.7134 18.3842 15.8994 18.3351 16.0874 18.3261C16.4175 18.3093 16.7572 18.4146 17.0265 18.6393C17.0401 18.6503 17.0524 18.6613 17.0634 18.671C17.3385 18.9171 17.4839 19.2478 17.5026 19.5875C17.5213 19.9286 17.4122 20.2793 17.1764 20.5616L16.5428 21.3218C16.6655 21.3961 16.7895 21.4723 16.9142 21.5492C18.2053 22.3449 19.6509 23.2356 20.7321 21.9438L18.1278 19.9815L18.7608 19.1425L21.5608 21.2527L21.8121 21.1939L21.8618 21.1855C22.2164 21.1377 22.4877 21.0034 22.6834 20.7902C22.843 20.6158 22.9631 20.3814 23.0464 20.0913L19.5062 17.7047L20.0946 16.8327L23.7944 19.3272C24.2304 19.2148 24.5721 19.0534 24.8195 18.8428C25.0042 18.6858 25.1392 18.4959 25.2251 18.2724L20.7767 15.09L21.3852 14.2348L26.0247 17.5542C26.3154 17.549 26.5647 17.4625 26.7643 17.323C26.9426 17.1983 27.0873 17.0291 27.1919 16.8346C27.2985 16.637 27.3624 16.4154 27.3779 16.19C27.3992 15.8787 27.3288 15.5641 27.1506 15.3006C27.0866 15.2773 27.0266 15.2412 26.9749 15.1934C25.4731 13.9494 24.003 12.8313 22.469 11.8631C20.9589 10.911 19.3783 10.0971 17.6305 9.44217C17.3579 9.45122 17.1221 9.44928 16.918 9.44734C16.2443 9.44088 16.0874 9.43959 15.5862 10.422C15.2128 11.1525 14.7239 11.6996 14.0993 12C13.507 12.2848 12.8178 12.3384 12.0201 12.1066C10.8393 11.7636 10.5629 11.4813 10.7709 10.7663C10.8277 10.5699 10.9349 10.3781 11.0757 10.1262C11.1126 10.0603 11.152 9.98861 11.2495 9.80582C11.8612 8.65416 12.3953 7.72663 12.9179 6.98383C12.3727 6.92118 11.9342 6.83269 11.504 6.70157C11.028 6.55688 10.5874 6.36828 10.0429 6.10927L6.296 12.8545L7.77578 14.3853L8.33902 13.7356C8.59609 13.4397 8.94746 13.2679 9.31047 13.2337C9.67282 13.1994 10.0462 13.3009 10.3478 13.5508C10.3536 13.5553 10.3504 13.5534 10.3723 13.5728C10.6598 13.8221 10.8271 14.1664 10.8619 14.5216C10.8865 14.769 10.8471 15.0222 10.7399 15.2522L11.3121 14.5817L11.3115 14.5811C11.3147 14.5772 11.3186 14.5733 11.3218 14.5694V14.5688C11.3296 14.5597 11.338 14.5513 11.347 14.5429C11.6041 14.2633 11.9503 14.1108 12.3049 14.0882C12.6686 14.065 13.0426 14.178 13.339 14.4312L13.3397 14.4306C13.3442 14.4344 13.3481 14.4383 13.3519 14.4415C13.3616 14.4493 13.37 14.4577 13.3784 14.4667ZM15.8633 22.137L15.2083 22.9224C15.198 22.9347 15.1883 22.9463 15.1786 22.9566C14.9396 23.224 14.6115 23.3655 14.2756 23.3823C13.9462 23.3984 13.6064 23.2938 13.3365 23.0684C13.3235 23.0574 13.3113 23.0471 13.3003 23.0374C13.0251 22.7906 12.8792 22.4606 12.8604 22.1202C12.8462 21.8618 12.9056 21.5976 13.0387 21.3619L12.9689 21.4413C12.9605 21.4517 12.967 21.4426 12.9353 21.4768C12.6725 21.7572 12.3185 21.9012 11.9587 21.9109C11.6028 21.9212 11.2398 21.8004 10.9563 21.5537C10.9492 21.5472 10.9421 21.5408 10.935 21.5337C10.9285 21.5279 10.9233 21.5227 10.9182 21.5182L10.9175 21.5188C10.9078 21.5098 10.8981 21.4994 10.8897 21.4891C10.6198 21.2224 10.4809 20.8768 10.4693 20.5241C10.4615 20.2806 10.5138 20.0339 10.6256 19.8091C10.3853 20.0151 10.0895 20.1288 9.78717 20.1482C9.42417 20.1714 9.05019 20.0578 8.75306 19.8046L8.75242 19.8052C8.74854 19.802 8.74402 19.7981 8.74014 19.7942C8.7311 19.7865 8.72206 19.7781 8.71366 19.7697C8.4314 19.51 8.27638 19.1619 8.25313 18.8047C8.22858 18.4372 8.34355 18.0593 8.60192 17.757L8.80151 17.5226C8.57802 17.6963 8.3132 17.7984 8.04256 17.8242C7.6802 17.8584 7.30687 17.7564 7.00523 17.5071H7.00458C6.99683 17.5006 6.98908 17.4935 6.98133 17.4864L6.98004 17.4851C6.69325 17.2358 6.52596 16.8915 6.49108 16.5363C6.45556 16.1778 6.55438 15.8077 6.79918 15.5112C6.80564 15.5028 6.81275 15.495 6.81985 15.4879L6.8205 15.4873L7.08532 15.1818L5.49767 13.5386L4.85175 14.6483L4.84981 14.6521L4.84077 14.667L4.8369 14.6715C4.6231 15.0229 4.28593 15.2535 3.91388 15.3433C3.54507 15.4324 3.14073 15.3846 2.79193 15.1811L2.78806 15.1773L2.77256 15.1682L2.76804 15.1656L0.725016 13.9268C0.368472 13.7104 0.135943 13.3713 0.0442231 12.9967C-0.0474967 12.6233 0.00159288 12.2138 0.208931 11.8579L6.68355 0.737892L6.68549 0.733371L6.69453 0.718515L6.6984 0.71464C6.91156 0.362617 7.24937 0.132671 7.62142 0.0428916C7.99023 -0.0462442 8.39393 0.00155321 8.74337 0.205015L8.74724 0.206953L8.76274 0.215996L8.76662 0.219872L10.8103 1.45938C11.1662 1.67511 11.3994 2.01421 11.4911 2.38885C11.5821 2.76283 11.5331 3.17169 11.3257 3.52823L10.4021 5.11524C10.9569 5.38135 11.3839 5.56931 11.8082 5.6985C12.3185 5.85416 12.8669 5.94072 13.6865 5.99885L13.6846 6.01952C15.6424 3.89447 17.8791 4.06046 23.7757 4.49839L24.058 4.51971L23.6743 3.86023C23.4669 3.50433 23.4179 3.09483 23.5089 2.72149C23.6006 2.34686 23.8338 2.00776 24.1897 1.79137L26.2334 0.552514L26.2373 0.547993L26.2528 0.53895L26.2566 0.537013C26.6061 0.33355 27.0098 0.285753 27.3786 0.374889C27.7506 0.46467 28.0884 0.695261 28.3016 1.04664L28.3055 1.05116L28.3145 1.06601L28.3165 1.06989L34.7911 12.1899C34.9984 12.5465 35.0475 12.9553 34.9558 13.3287C34.8641 13.7039 34.6315 14.0424 34.275 14.2588L32.232 15.4983L32.2274 15.5002L32.2119 15.5093L32.2081 15.5131C31.8593 15.7166 31.4549 15.7644 31.0861 15.6753C30.7141 15.5855 30.3769 15.3555 30.1631 15.0035L30.1592 14.9996L30.1502 14.9848L30.1483 14.9803L29.483 13.8376L28.1169 14.8711C28.3623 15.3026 28.4592 15.7876 28.4262 16.2605C28.4011 16.6344 28.2945 17.0032 28.1169 17.332C27.9373 17.6647 27.6835 17.9592 27.365 18.182C27.0421 18.4075 26.6584 18.5567 26.2243 18.5954C26.0784 19.0043 25.8361 19.3524 25.4983 19.6405C25.1289 19.9551 24.6515 20.1889 24.0657 20.3413C23.9378 20.8038 23.7363 21.1913 23.456 21.4975C23.0981 21.8883 22.6285 22.1337 22.0375 22.2209L21.7914 22.2784C20.1592 24.78 18.1485 23.5412 16.3632 22.4412C16.1933 22.3365 16.0254 22.2332 15.8633 22.137ZM3.94553 14.1179L10.4169 3.0018C10.4841 2.88619 10.5002 2.75507 10.4712 2.63557C10.4434 2.52254 10.3736 2.41984 10.2677 2.35589L8.22856 1.11897L8.22792 1.12026L8.21242 1.11122H8.21306C8.10455 1.04986 7.98053 1.035 7.8675 1.06277C7.75769 1.08926 7.65887 1.15449 7.59751 1.25267L7.5988 1.25332L7.58976 1.26817L1.11771 12.3837C1.05053 12.4993 1.03439 12.631 1.06345 12.7499C1.09123 12.8636 1.16099 12.9656 1.26756 13.0302L3.31123 14.2697H3.31058L3.31768 14.2736L3.31833 14.2723C3.42684 14.3362 3.5528 14.3511 3.66712 14.3233C3.77693 14.2969 3.87575 14.2316 3.93711 14.1334L3.93647 14.1328L3.94487 14.1179L3.94553 14.1179ZM25.4092 4.75352C25.4492 4.79486 25.4815 4.84266 25.5061 4.89498L26.0215 5.80442L31.0545 14.4499H31.0551L31.0635 14.4648L31.0629 14.4654C31.1242 14.5636 31.223 14.6289 31.3328 14.6553C31.4472 14.6831 31.5731 14.6683 31.6816 14.605L31.6823 14.6062L31.6894 14.6017H31.6887L33.7324 13.3622C33.839 13.2983 33.9087 13.1956 33.9365 13.0825C33.9656 12.963 33.9494 12.8313 33.8823 12.7163L27.4102 1.60017L27.4012 1.58531L27.4025 1.58466C27.3411 1.48649 27.2423 1.42125 27.1325 1.39477C27.0194 1.36764 26.8954 1.38185 26.7869 1.44321H26.7876L26.7721 1.4529L26.7714 1.45161L24.7323 2.68788C24.6263 2.75247 24.5566 2.85453 24.5288 2.96821C24.4997 3.08706 24.5159 3.21882 24.5831 3.33444L25.4092 4.75352Z" />
</svg>
