<svg width="30" height="36" viewBox="0 0 30 36" fill="none" xmlns="http://www.w3.org/2000/svg">
<path fill-rule="evenodd" clip-rule="evenodd" d="M0 21.6092H4.68821L4.42155 33.1391H0V21.6092ZM5.73932 32.208L5.96227 22.6377L10.2667 22.7382C12.084 23.1078 13.8858 24.1396 15.684 25.3312L19.0274 25.4091C20.5387 25.5355 21.2956 27.0878 19.8019 28.0614C18.609 28.8936 17.0637 28.809 15.4818 28.6299C14.3899 28.5506 14.3077 30.0191 15.4486 30.0508C15.8435 30.0905 16.2769 30.008 16.6529 30.0163C18.6318 30.0605 20.2706 29.7202 21.3045 28.1802L21.8332 27.0216L26.864 24.6717C29.3719 23.9102 31.0798 26.555 29.2042 28.3222C25.5411 30.8593 21.7961 32.93 17.9775 34.5838C15.1942 36.1891 12.4514 36.0685 9.7445 34.392L5.73932 32.208Z" />
<path fill-rule="evenodd" clip-rule="evenodd" d="M6 18.5535H8.72916V0.291086C8.72916 0.131638 8.8608 0 9.02025 0H18.2646C18.424 0 18.5556 0.131638 18.5556 0.291086V7.1381H26.7357C26.8952 7.1381 27.0268 7.26974 27.0268 7.42919V18.5516H28.7826V20.9601H6V18.5535ZM11.0653 2.74771H12.9564C13.0139 2.74771 13.0621 2.79591 13.0621 2.85339V5.14499C13.0621 5.20247 13.0139 5.25068 12.9564 5.25068H11.0653C11.0078 5.25068 10.9596 5.20247 10.9596 5.14499V2.85339C10.9596 2.79591 11.0078 2.74771 11.0653 2.74771ZM14.2691 14.1464H16.1602C16.2177 14.1464 16.2659 14.1946 16.2659 14.2521V16.5437C16.2659 16.6012 16.2177 16.6494 16.1602 16.6494H14.2691C14.2116 16.6494 14.1634 16.6012 14.1634 16.5437V14.2521C14.1634 14.1928 14.2116 14.1464 14.2691 14.1464ZM11.0653 14.1464H12.9564C13.0139 14.1464 13.0621 14.1946 13.0621 14.2521V16.5437C13.0621 16.6012 13.0139 16.6494 12.9564 16.6494H11.0653C11.0078 16.6494 10.9596 16.6012 10.9596 16.5437V14.2521C10.9596 14.1928 11.0078 14.1464 11.0653 14.1464ZM14.2691 10.3456H16.1602C16.2177 10.3456 16.2659 10.3938 16.2659 10.4513V12.7429C16.2659 12.8004 16.2177 12.8486 16.1602 12.8486H14.2691C14.2116 12.8486 14.1634 12.8004 14.1634 12.7429V10.4531C14.1634 10.3938 14.2116 10.3456 14.2691 10.3456ZM11.0653 10.3456H12.9564C13.0139 10.3456 13.0621 10.3938 13.0621 10.4513V12.7429C13.0621 12.8004 13.0139 12.8486 12.9564 12.8486H11.0653C11.0078 12.8486 10.9596 12.8004 10.9596 12.7429V10.4531C10.9596 10.3938 11.0078 10.3456 11.0653 10.3456ZM14.2691 6.54666H16.1602C16.2177 6.54666 16.2659 6.59486 16.2659 6.65234V8.94395C16.2659 9.00142 16.2177 9.04963 16.1602 9.04963H14.2691C14.2116 9.04963 14.1634 9.00142 14.1634 8.94395V6.65234C14.1634 6.59486 14.2116 6.54666 14.2691 6.54666ZM11.0653 6.54666H12.9564C13.0139 6.54666 13.0621 6.59486 13.0621 6.65234V8.94395C13.0621 9.00142 13.0139 9.04963 12.9564 9.04963H11.0653C11.0078 9.04963 10.9596 9.00142 10.9596 8.94395V6.65234C10.9596 6.59486 11.0078 6.54666 11.0653 6.54666ZM14.2691 2.74771H16.1602C16.2177 2.74771 16.2659 2.79591 16.2659 2.85339V5.14499C16.2659 5.20247 16.2177 5.25068 16.1602 5.25068H14.2691C14.2116 5.25068 14.1634 5.20247 14.1634 5.14499V2.85339C14.1634 2.79591 14.2116 2.74771 14.2691 2.74771ZM10.2958 1.35717H16.9556C17.0705 1.35717 17.1651 1.47026 17.1651 1.60746V17.5282C17.1651 17.6654 17.0705 17.7785 16.9556 17.7785H10.2958C10.1809 17.7785 10.0863 17.6654 10.0863 17.5282V1.60746C10.0863 1.47026 10.1809 1.35717 10.2958 1.35717ZM19.4623 9.9062H21.3534C21.4109 9.9062 21.4591 9.95441 21.4591 10.0119V12.3035C21.4591 12.361 21.4109 12.4092 21.3534 12.4092H19.4623C19.4048 12.4092 19.3566 12.361 19.3566 12.3035V10.0119C19.3566 9.95441 19.4048 9.9062 19.4623 9.9062ZM22.6661 14.1464H24.5572C24.6147 14.1464 24.6629 14.1946 24.6629 14.2521V16.5437C24.6629 16.6012 24.6147 16.6494 24.5572 16.6494H22.6661C22.6086 16.6494 22.5604 16.6012 22.5604 16.5437V14.2521C22.5604 14.1928 22.6086 14.1464 22.6661 14.1464ZM19.4623 14.1464H21.3534C21.4109 14.1464 21.4591 14.1946 21.4591 14.2521V16.5437C21.4591 16.6012 21.4109 16.6494 21.3534 16.6494H19.4623C19.4048 16.6494 19.3566 16.6012 19.3566 16.5437V14.2521C19.3566 14.1928 19.4048 14.1464 19.4623 14.1464ZM22.6661 9.9062H24.5572C24.6147 9.9062 24.6629 9.95441 24.6629 10.0119V12.3035C24.6629 12.361 24.6147 12.4092 24.5572 12.4092H22.6661C22.6086 12.4092 22.5604 12.361 22.5604 12.3035V10.0119C22.5604 9.95441 22.6086 9.9062 22.6661 9.9062ZM18.767 8.49527H25.4268C25.5417 8.49527 25.6363 8.60836 25.6363 8.74556V17.5282C25.6363 17.6654 25.5417 17.7785 25.4268 17.7785H18.767C18.6521 17.7785 18.5575 17.6654 18.5575 17.5282V8.74556C18.5575 8.60836 18.6521 8.49527 18.767 8.49527Z" />
</svg>
