<svg width="30" height="31" viewbox="0 0 30 31" fill="none" xmlns="http://www.w3.org/2000/svg">
<path d="M14.6868 0.0443406C14.534 0.095248 14.3304 0.171609 14.2413 0.235243C14.1522 0.298878 13.0704 1.46975 11.8359 2.83152C10.3851 4.44783 9.55783 5.40235 9.50693 5.55507C9.22693 6.24232 9.53238 7.03138 10.2069 7.34955C10.4869 7.48955 10.5633 7.48955 11.8359 7.48955H13.1723V10.5313V13.573L13.3377 13.9293C13.9104 15.1638 15.5013 15.3929 16.4176 14.3748C16.9012 13.8403 16.8885 13.9293 16.914 10.5058L16.9267 7.50228H18.1994C19.6375 7.50228 19.8157 7.47682 20.1848 7.1332C20.6684 6.71321 20.7956 5.98778 20.4775 5.44053C20.3884 5.2878 19.3321 4.06603 18.1357 2.75516C15.8831 0.260697 15.6922 0.0825212 15.1958 0.0188869C15.0686 -0.0192936 14.8395 0.00616005 14.6868 0.0443406Z" />
<path d="M4.12403 13.2803C2.53317 13.4966 1.24776 14.0566 0.522327 14.833C-0.470367 15.9147 -0.0122005 17.162 1.68047 17.9892C2.85134 18.5619 3.98403 18.791 5.58762 18.8037C6.44031 18.8037 7.36937 18.7274 7.62391 18.6256C7.67482 18.6128 7.80209 18.4219 7.91663 18.2056C8.18389 17.6838 8.64206 17.162 9.15113 16.7547C9.55839 16.4365 10.4747 15.9147 10.8947 15.7875C11.022 15.7493 11.1238 15.6857 11.1492 15.6602C11.2256 15.5457 10.9202 15.0493 10.5765 14.7057C9.83838 13.9803 8.52752 13.4712 6.88575 13.2676C6.22396 13.1657 4.81128 13.1785 4.12403 13.2803Z" />
<path d="M13.6178 17.0091C11.187 17.3146 9.41797 18.4727 9.41797 19.7327C9.41797 21.7308 13.4397 23.1053 17.1304 22.3544C19.294 21.909 20.6431 20.9163 20.6431 19.7327C20.6431 19.2618 20.4522 18.88 19.9685 18.4218C19.2049 17.7091 18.0722 17.2509 16.5068 17.0346C15.845 16.9455 14.2796 16.9328 13.6178 17.0091Z" />
<path d="M22.9595 17.0344C22.3995 17.1235 21.5723 17.3016 21.5723 17.3398C21.5723 17.3526 21.6614 17.4925 21.7886 17.6453C22.6159 18.7271 22.7559 20.0761 22.1577 21.2852L21.9795 21.6542L22.1577 22.0106C22.2595 22.2015 22.3868 22.3797 22.4377 22.3924C22.705 22.4687 22.8959 22.4942 23.6086 22.5451C26.2812 22.7615 29.0047 21.896 29.7938 20.5724C29.9847 20.267 29.9974 20.1906 29.9974 19.7834C29.9974 19.4398 29.972 19.287 29.8574 19.0834C29.3484 18.1034 27.8466 17.3271 25.8867 17.0598C25.1867 16.9326 23.6086 16.9326 22.9595 17.0344Z" />
<path d="M0.216356 18.9565C0.0763611 19.1728 0 19.4528 0 19.7964C0 21.0055 1.59086 22.0491 4.02169 22.4436C4.7853 22.5709 6.46524 22.5709 7.19067 22.4436C7.47066 22.3927 7.71247 22.3545 7.7252 22.3418C7.7252 22.3291 7.80156 22.1764 7.89065 21.9855L8.04337 21.6418L7.8652 21.26C7.76338 21.0564 7.67429 20.8019 7.64884 20.7L7.61066 20.5091L7.30521 20.5473C6.36343 20.6746 5.58709 20.7 4.86166 20.6364C2.87627 20.4837 1.2345 19.8728 0.470894 19.0074L0.279991 18.791L0.216356 18.9565Z" />
<path d="M0.254404 22.6725C0.038047 22.9398 -0.0510409 23.5252 0.0762277 23.9452C0.318038 24.7979 1.48891 25.6124 3.11795 26.0197C4.16155 26.287 6.0833 26.3888 7.1269 26.2106C7.52144 26.147 7.57234 26.1342 7.55962 26.007C7.55962 25.9306 7.55962 25.5233 7.54689 25.0779L7.53416 24.2761L7.29235 24.3143C6.65601 24.4161 5.61241 24.4543 4.89971 24.4034C3.05431 24.2761 1.46345 23.7161 0.648936 22.9016C0.381672 22.6598 0.305311 22.6089 0.254404 22.6725Z" />
<path d="M9.53278 22.8758C8.94735 24.2503 10.36 25.5866 12.9309 26.1084C16.5453 26.8466 20.6179 25.4848 20.6306 23.5503C20.6306 23.2067 20.5542 22.9267 20.4142 22.7103L20.3252 22.5576L20.1724 22.7485C19.9943 22.9776 19.4088 23.3849 18.9379 23.6267C16.8125 24.6957 13.1854 24.683 11.0473 23.6012C10.5891 23.3721 9.97822 22.9267 9.85096 22.7231C9.80005 22.6467 9.73641 22.5703 9.69823 22.5703C9.68551 22.5958 9.60915 22.7231 9.53278 22.8758Z" />
<path d="M29.5772 22.7612C29.5008 22.8503 29.2718 23.0539 29.0681 23.2067C28.3045 23.7539 27.2991 24.123 26.001 24.3266C25.2883 24.4412 23.7483 24.4539 23.0356 24.3521C22.7683 24.3139 22.5393 24.2884 22.5265 24.3012C22.5138 24.3139 22.5011 24.7339 22.4883 25.243L22.4629 26.1593L22.7556 26.1975C25.2501 26.5284 27.7064 26.0829 29.1063 25.0266C29.4881 24.7339 29.8572 24.263 29.9463 23.9321C30.0608 23.5248 29.9845 22.9903 29.7808 22.7103L29.679 22.5703L29.5772 22.7612Z" />
<path d="M9.53309 26.6432C8.94765 28.0177 10.3222 29.3285 12.9312 29.8885C13.7457 30.0667 15.642 30.1176 16.571 29.9776C18.9891 29.6213 20.6436 28.5267 20.6436 27.2795C20.6436 26.9359 20.4909 26.4777 20.3636 26.4014C20.3382 26.3886 20.2618 26.4395 20.2109 26.5159C20.0709 26.7195 19.46 27.165 19.0019 27.3941C17.9201 27.9286 16.6601 28.1831 15.0693 28.1958C12.8421 28.1958 10.9458 27.6104 9.99126 26.6304C9.85126 26.4777 9.72399 26.3632 9.71127 26.3632C9.67309 26.3505 9.60945 26.4777 9.53309 26.6432Z" />
</svg>
