<svg width="30" height="27" viewBox="0 0 30 27" fill="none" xmlns="http://www.w3.org/2000/svg">
<path d="M12.9167 0H10.8333C9.45312 0 8.33333 1.11979 8.33333 2.5V8.33333C8.33333 10.1719 9.82812 11.6667 11.6667 11.6667H18.3333C20.1719 11.6667 21.6667 10.1719 21.6667 8.33333V2.5C21.6667 1.11979 20.5469 0 19.1667 0H17.0833V4.16667C17.0833 4.625 16.7083 5 16.25 5H13.75C13.2917 5 12.9167 4.625 12.9167 4.16667V0ZM3.33333 13.3333C1.49479 13.3333 0 14.8281 0 16.6667V23.3333C0 25.1719 1.49479 26.6667 3.33333 26.6667H11.6667C13.5052 26.6667 15 25.1719 15 23.3333V16.6667C15 14.8281 13.5052 13.3333 11.6667 13.3333H9.58333V17.5C9.58333 17.9583 9.20833 18.3333 8.75 18.3333H6.25C5.79167 18.3333 5.41667 17.9583 5.41667 17.5V13.3333H3.33333ZM18.3333 26.6667H26.6667C28.5052 26.6667 30 25.1719 30 23.3333V16.6667C30 14.8281 28.5052 13.3333 26.6667 13.3333H24.5833V17.5C24.5833 17.9583 24.2083 18.3333 23.75 18.3333H21.25C20.7917 18.3333 20.4167 17.9583 20.4167 17.5V13.3333H18.3333C17.5521 13.3333 16.8333 13.599 16.2656 14.0521C16.5208 14.5937 16.6667 15.1979 16.6667 15.8333V24.1667C16.6667 24.8021 16.5208 25.4063 16.2656 25.9479C16.8333 26.401 17.5521 26.6667 18.3333 26.6667Z" />
</svg>
