<svg width="400" height="400" viewBox="0 0 400 400" fill="none" xmlns="http://www.w3.org/2000/svg">
<g clip-path="url(#clip0_6014_923)">
<path d="M320.004 0H79.9959C35.8154 0 0 35.8154 0 79.9959V320.004C0 364.185 35.8154 400 79.9959 400H320.004C364.185 400 400 364.185 400 320.004V79.9959C400 35.8154 364.185 0 320.004 0Z" fill="#A20DA5"/>
<path d="M98.7866 126.434L198.365 93.2869C199.562 92.8766 200.792 92.9279 201.904 93.304V93.2869L302.781 127.836C305.26 128.674 306.764 131.084 306.542 133.597C306.559 133.717 306.559 133.853 306.559 134.007V251.33H306.542C306.542 253.364 305.431 255.313 303.482 256.305L203.322 307.197C202.485 307.709 201.493 308 200.433 308C199.305 308 198.279 307.675 197.408 307.111L97.0087 254.732C95.1112 253.74 94.0171 251.809 94.0171 249.792H94V131.973C94 129.152 96.0856 126.827 98.7866 126.434ZM221.853 193.395C226.845 190.968 231.803 188.557 236.777 186.164C241.735 183.771 246.675 181.394 251.633 179.018C257.462 176.215 262.215 174.83 265.924 174.813C269.651 174.796 272.848 175.787 275.515 177.77C278.199 179.753 280.301 182.523 281.84 186.096C283.395 189.668 284.455 193.703 285.019 198.267C285.908 205.379 285.789 211.311 284.592 216.08C283.413 220.85 281.447 225.363 278.728 229.602C275.993 233.859 272.899 237.346 269.446 240.099C264.728 243.86 260.386 246.8 256.437 248.868C250.915 251.775 245.41 254.681 239.872 257.587C234.333 260.51 228.794 263.45 223.238 266.391C222.896 254.339 222.554 242.236 222.315 230.098C222.093 217.909 221.956 205.669 221.853 193.395ZM242.59 199.874C242.88 206.353 243.188 212.832 243.53 219.294C243.872 225.739 244.231 232.167 244.607 238.577C246.385 237.671 248.163 236.748 249.941 235.825C254.488 233.466 257.685 231.312 259.531 229.329C261.343 227.363 262.693 224.884 263.548 221.875C264.403 218.867 264.574 214.627 264.095 209.14C263.463 201.84 261.907 197.412 259.394 195.84C256.898 194.267 253.018 194.746 247.701 197.344C245.992 198.182 244.299 199.037 242.59 199.874ZM139.644 197.686C136.037 195.908 132.43 194.147 128.823 192.404C125.233 190.66 121.626 188.916 118.018 187.19C120.104 182.215 123.762 179.001 129.062 177.582C131.694 176.881 134.84 176.676 138.498 177.035C142.157 177.394 146.345 178.283 151.046 179.77C156.448 181.463 161.081 183.395 164.927 185.514C168.791 187.634 171.902 189.993 174.227 192.575C178.911 197.754 181.15 203.105 180.928 208.524C180.808 211.687 179.714 214.2 177.663 216.029C175.611 217.858 172.569 218.986 168.551 219.414C171.731 221.311 174.158 223.038 175.817 224.594C178.518 227.141 180.586 229.91 182.022 232.936C183.458 235.979 184.108 239.193 183.988 242.577C183.817 246.817 182.415 250.356 179.714 253.159C177.03 255.929 173.252 257.296 168.38 257.262C165.936 257.245 163.149 256.835 159.987 255.98C156.841 255.125 153.303 253.86 149.405 252.202C141.832 248.971 135.883 245.74 131.592 242.475C127.301 239.227 123.797 235.722 121.096 231.859C118.429 228.047 116.429 223.824 115.129 219.157C118.993 220.234 122.873 221.328 126.737 222.405C130.6 223.482 134.481 224.576 138.362 225.636C139.097 229.79 140.362 232.97 142.225 235.227C144.054 237.449 146.447 239.21 149.422 240.423C152.499 241.689 155.132 241.808 157.286 240.748C159.423 239.706 160.551 237.552 160.688 234.338C160.824 231.09 159.97 228.183 158.055 225.619C156.157 223.072 153.491 221.175 150.123 219.892C148.311 219.209 145.815 218.644 142.618 218.2C143.216 213.824 143.815 209.413 144.43 204.968C145.678 205.567 146.653 206.011 147.371 206.268C150.345 207.328 152.875 207.413 154.927 206.49C156.978 205.567 158.072 203.994 158.175 201.755C158.277 199.584 157.576 197.601 156.14 195.823C154.687 194.028 152.653 192.694 150.054 191.822C147.353 190.916 145.148 190.865 143.37 191.686C141.644 192.506 140.396 194.523 139.644 197.686ZM194.843 293.213V181.001L105.163 140.349V246.441L194.843 293.213ZM295.362 141.683L206.006 181.053V293.315L295.379 247.894V141.683H295.362ZM200.057 104.433L115.232 132.674L200.451 171.326L285.669 133.768L200.057 104.433Z" fill="white"/>
</g>
<defs>
<clipPath id="clip0_6014_923">
<rect width="400" height="400" fill="white"/>
</clipPath>
</defs>
</svg>
