<svg width="24" height="24" viewBox="0 0 24 24" fill="none" xmlns="http://www.w3.org/2000/svg">
<path d="M3 6C3 5.46957 3.21071 4.96086 3.58579 4.58579C3.96086 4.21071 4.46957 4 5 4H8.28C8.48979 4.00016 8.69422 4.0663 8.86436 4.18905C9.03449 4.3118 9.1617 4.48496 9.228 4.684L10.726 9.177C10.8019 9.40534 10.7929 9.65339 10.7007 9.87564C10.6085 10.0979 10.4393 10.2795 10.224 10.387L7.967 11.517C9.07332 13.9655 11.0345 15.9267 13.483 17.033L14.613 14.776C14.7205 14.5607 14.9021 14.3915 15.1244 14.2993C15.3466 14.2071 15.5947 14.1981 15.823 14.274L20.316 15.772C20.5152 15.8383 20.6885 15.9657 20.8112 16.136C20.934 16.3064 21.0001 16.511 21 16.721V20C21 20.5304 20.7893 21.0391 20.4142 21.4142C20.0391 21.7893 19.5304 22 19 22H18C9.716 22 3 15.284 3 7V6Z" stroke="" stroke-width="2" stroke-linecap="round" stroke-linejoin="round"/>
</svg>
