<svg width="186" height="238" viewBox="0 0 186 238"   xmlns="http://www.w3.org/2000/svg">
<path d="M78.75 0.0293454C79.8815 0.0255185 81.0129 0.0216916 82.1787 0.0177487C84.5658 0.0150324 86.9528 0.0223737 89.3398 0.039111C92.9877 0.0605229 96.6335 0.0392979 100.281 0.0137204C102.604 0.0163637 104.927 0.0214888 107.25 0.0293454C108.881 0.0172 108.881 0.0172 110.546 0.00480927C116.499 0.0783047 120.446 0.320831 125 4.5606C128.86 9.07216 129.541 12.6634 129.25 18.4356C129.232 19.124 129.214 19.8123 129.195 20.5215C129.149 22.2018 129.077 23.8814 129 25.5606C129.655 25.5517 130.31 25.5428 130.985 25.5337C137.798 25.4452 144.611 25.3849 151.424 25.3409C153.968 25.3207 156.511 25.2934 159.054 25.2588C162.708 25.2104 166.361 25.1876 170.016 25.17C171.724 25.139 171.724 25.139 173.466 25.1074C175.057 25.107 175.057 25.107 176.681 25.1065C177.613 25.0976 178.546 25.0887 179.507 25.0796C182.784 25.7119 183.988 26.9457 186 29.5606C186 32.6856 186 32.6856 185 35.5606C181.917 38.0726 178.829 37.613 175 37.5606C175.004 38.5291 175.007 39.4976 175.011 40.4955C175.1 64.0561 175.166 87.6166 175.207 111.177C175.228 122.571 175.256 133.965 175.302 145.358C175.342 155.289 175.367 165.219 175.376 175.149C175.382 180.407 175.394 185.666 175.423 190.924C175.45 195.874 175.458 200.823 175.452 205.772C175.454 207.589 175.461 209.405 175.477 211.221C175.497 213.703 175.492 216.183 175.481 218.664C175.493 219.382 175.504 220.1 175.516 220.839C175.442 227.105 172.974 230.624 168.613 234.903C162.93 237.51 157.373 237.116 151.195 237.078C149.785 237.084 148.376 237.091 146.966 237.099C143.148 237.118 139.33 237.111 135.511 237.098C131.51 237.088 127.509 237.097 123.508 237.103C116.79 237.111 110.072 237.101 103.354 237.082C95.5928 237.06 87.8326 237.067 80.0719 237.089C73.4017 237.108 66.7315 237.11 60.0613 237.1C56.0805 237.093 52.0999 237.093 48.1192 237.106C44.3762 237.117 40.6337 237.109 36.8907 237.086C34.8666 237.078 32.8424 237.09 30.8183 237.103C19.5213 236.998 19.5213 236.998 15 232.561C11.3152 227.948 10.4254 224.431 10.519 218.664C10.5139 217.499 10.5139 217.499 10.5086 216.31C10.5021 213.716 10.524 211.123 10.5459 208.53C10.547 206.667 10.5464 204.804 10.5441 202.941C10.543 197.89 10.5665 192.839 10.5944 187.788C10.6194 182.507 10.6218 177.225 10.6265 171.944C10.639 161.947 10.6718 151.949 10.7119 141.951C10.7566 130.568 10.7786 119.185 10.7987 107.801C10.8405 84.3877 10.9109 60.9742 11 37.5606C10.3735 37.5232 9.74703 37.4858 9.10156 37.4473C8.2843 37.3816 7.46703 37.3158 6.625 37.2481C5.40684 37.1611 5.40684 37.1611 4.16406 37.0723C2 36.5606 2 36.5606 0 33.5606C0.1875 30.4981 0.1875 30.4981 1 27.5606C4.32576 25.3434 5.33606 25.3152 9.20581 25.3335C10.2667 25.3337 11.3276 25.3338 12.4206 25.334C13.5644 25.3443 14.7082 25.3546 15.8867 25.3653C17.0589 25.3681 18.231 25.3709 19.4387 25.3739C23.1884 25.3851 26.9379 25.4102 30.6875 25.4356C33.2272 25.4456 35.7669 25.4547 38.3066 25.4629C44.5378 25.485 50.7689 25.5185 57 25.5606C56.9536 24.5474 56.9072 23.5342 56.8594 22.4903C56.8218 21.1387 56.7854 19.7872 56.75 18.4356C56.6997 17.4379 56.6997 17.4379 56.6484 16.42C56.547 11.2492 57.6603 8.46426 61 4.5606C66.3659 -0.434503 71.8066 -0.0223441 78.75 0.0293454ZM68 14.5606C68 18.1906 68 21.8206 68 25.5606C84.5 25.5606 101 25.5606 118 25.5606C118 21.9306 118 18.3006 118 14.5606C114.787 11.2881 114.787 11.2881 110.668 11.1724C109.797 11.163 108.926 11.1535 108.029 11.1438C107.091 11.1498 106.153 11.1559 105.188 11.1622C104.222 11.1593 103.257 11.1564 102.262 11.1535C100.222 11.1514 98.1806 11.157 96.1396 11.1695C93.0119 11.1855 89.8855 11.1696 86.7578 11.1504C84.776 11.1524 82.7943 11.1563 80.8125 11.1622C79.8749 11.1561 78.9374 11.15 77.9714 11.1438C77.1004 11.1532 76.2294 11.1627 75.332 11.1724C74.5661 11.1748 73.8001 11.1772 73.011 11.1796C70.5465 11.451 70.5465 11.451 68 14.5606ZM22 37.5606C21.9127 70.5704 21.9127 70.5703 21.8535 103.58C21.8357 117.034 21.8147 130.488 21.7737 143.942C21.7438 153.739 21.7244 163.535 21.7177 173.332C21.7138 178.522 21.7046 183.713 21.6828 188.903C21.6625 193.783 21.6562 198.663 21.6607 203.544C21.6599 205.339 21.6538 207.135 21.6424 208.93C21.6276 211.373 21.631 213.816 21.6392 216.259C21.6305 216.977 21.6218 217.695 21.6128 218.434C21.5974 220.611 21.5974 220.611 22 223.561C25.386 225.818 26.5363 225.813 30.5037 225.821C31.6478 225.828 32.7919 225.835 33.9707 225.843C35.2269 225.84 36.4831 225.838 37.7773 225.835C39.1128 225.84 40.4483 225.845 41.7837 225.851C45.4118 225.864 49.0397 225.865 52.6677 225.862C55.6947 225.861 58.7217 225.866 61.7487 225.871C68.8882 225.882 76.0276 225.882 83.167 225.876C90.5374 225.87 97.9075 225.883 105.278 225.904C111.602 225.921 117.927 225.927 124.251 225.924C128.03 225.922 131.809 225.925 135.588 225.939C139.14 225.951 142.693 225.95 146.245 225.937C148.173 225.933 150.101 225.944 152.029 225.956C153.173 225.949 154.318 225.942 155.496 225.935C156.493 225.935 157.489 225.935 158.515 225.935C160.986 225.719 160.986 225.719 162.821 224.499C164.629 221.527 164.402 218.551 164.361 215.177C164.363 214.418 164.366 213.66 164.369 212.879C164.373 210.332 164.357 207.785 164.341 205.238C164.34 203.415 164.34 201.591 164.342 199.768C164.343 194.812 164.325 189.856 164.304 184.9C164.285 179.723 164.284 174.546 164.28 169.368C164.271 159.562 164.246 149.755 164.216 139.949C164.176 126.699 164.16 113.45 164.143 100.201C164.114 79.3205 164.055 58.4406 164 37.5606C117.14 37.5606 70.28 37.5606 22 37.5606Z"  />
<path d="M94.1248 61.6231C96.9998 62.5606 96.9998 62.5606 98.9998 65.5606C99.2542 67.9644 99.2542 67.9644 99.2605 70.8677C99.2675 71.9683 99.2746 73.0689 99.2819 74.2029C99.2794 75.4107 99.277 76.6186 99.2744 77.8631C99.2795 79.1348 99.2846 80.4066 99.2899 81.7168C99.3033 85.2065 99.3039 88.6961 99.3013 92.1858C99.3003 95.0984 99.3052 98.0109 99.3099 100.924C99.321 107.794 99.3215 114.665 99.3154 121.536C99.3094 128.626 99.3217 135.716 99.343 142.805C99.3606 148.891 99.3666 154.977 99.3634 161.063C99.3615 164.698 99.3642 168.333 99.3781 171.969C99.393 176.022 99.3837 180.075 99.3721 184.129C99.3797 185.335 99.3874 186.54 99.3952 187.783C99.3882 188.886 99.3812 189.99 99.374 191.126C99.3741 192.085 99.3743 193.043 99.3745 194.031C98.9298 197.033 98.1172 198.408 95.9998 200.561C92.9998 201.061 92.9998 201.061 89.9998 200.561C87.0282 197.538 86.6226 195.295 86.6121 191.133C86.6022 190.031 86.5923 188.929 86.5821 187.794C86.5866 186.59 86.5911 185.385 86.5957 184.145C86.5888 182.873 86.582 181.601 86.5749 180.29C86.557 176.805 86.5581 173.32 86.5638 169.834C86.5669 166.924 86.5608 164.014 86.5548 161.104C86.5408 154.239 86.5423 147.374 86.5537 140.509C86.5652 133.427 86.5511 126.345 86.5243 119.262C86.5022 113.181 86.4955 107.099 86.5014 101.018C86.5048 97.3856 86.5023 93.7539 86.4851 90.1219C86.4668 86.0732 86.4808 82.0253 86.498 77.9766C86.4884 76.7723 86.4787 75.5681 86.4688 74.3273C86.4786 73.2253 86.4884 72.1233 86.4986 70.988C86.4988 70.0308 86.499 69.0737 86.4992 68.0875C87.3873 63.6044 89.5811 61.5322 94.1248 61.6231Z"  />
<path d="M65.0009 61.5605C66.6338 62.7432 66.6338 62.7432 68.0009 64.5605C68.3757 66.9984 68.3757 66.9984 68.3752 69.9503C68.3822 71.0692 68.3892 72.188 68.3964 73.3408C68.3888 74.5689 68.3811 75.7971 68.3733 77.0625C68.3769 78.3553 68.3806 79.6481 68.3843 80.9802C68.3937 84.5277 68.3843 88.075 68.371 91.6225C68.3597 95.3326 68.3638 99.0428 68.3657 102.753C68.3666 108.984 68.3555 115.215 68.3371 121.446C68.316 128.652 68.3124 135.859 68.3187 143.066C68.3244 149.995 68.3187 156.924 68.3075 163.852C68.3029 166.803 68.302 169.753 68.3041 172.704C68.3063 176.822 68.2919 180.94 68.2756 185.059C68.2793 186.901 68.2793 186.901 68.2831 188.78C68.276 189.899 68.2689 191.018 68.2616 192.171C68.2596 193.145 68.2575 194.119 68.2554 195.123C68.0009 197.561 68.0009 197.561 66.0009 200.561C62.5009 200.873 62.5009 200.873 59.0009 200.561C56.3883 197.948 56.7478 196.85 56.7402 193.208C56.7332 192.073 56.7261 190.937 56.7188 189.767C56.7213 188.515 56.7237 187.263 56.7263 185.973C56.7212 184.659 56.7161 183.345 56.7108 181.991C56.6974 178.382 56.6968 174.773 56.6994 171.163C56.7004 168.154 56.6956 165.144 56.6908 162.134C56.6797 155.037 56.6792 147.939 56.6853 140.841C56.6913 133.51 56.679 126.179 56.6577 118.848C56.6401 112.561 56.6341 106.274 56.6373 99.9868C56.6392 96.2286 56.6365 92.4705 56.6226 88.7123C56.6078 84.5242 56.617 80.3365 56.6286 76.1484C56.621 74.8964 56.6133 73.6444 56.6055 72.3544C56.6125 71.2186 56.6195 70.0829 56.6267 68.9127C56.6266 67.9216 56.6264 66.9305 56.6262 65.9094C56.7499 65.1342 56.8735 64.3591 57.0009 63.5605C60.2335 61.4055 61.2525 61.0919 65.0009 61.5605Z"  />
<path d="M124.626 61.7481C126.297 62.1503 126.297 62.1503 128.001 62.5606C129.29 65.1393 129.13 66.9862 129.135 69.8748C129.139 71.0021 129.143 72.1295 129.148 73.291C129.147 74.5337 129.147 75.7764 129.146 77.0567C129.151 79.0128 129.151 79.0128 129.156 81.0084C129.165 84.5909 129.168 88.1734 129.168 91.756C129.169 94.7433 129.173 97.7306 129.176 100.718C129.185 107.763 129.187 114.808 129.186 121.853C129.186 129.129 129.196 136.406 129.212 143.682C129.225 149.923 129.23 156.163 129.23 162.403C129.23 166.134 129.232 169.864 129.243 173.594C129.254 177.751 129.25 181.908 129.244 186.064C129.249 187.307 129.255 188.55 129.261 189.83C129.257 190.957 129.253 192.085 129.248 193.246C129.249 194.23 129.249 195.214 129.25 196.227C129.001 198.561 129.001 198.561 127.001 200.561C123.501 200.873 123.501 200.873 120.001 200.561C117.761 197.2 117.749 196.099 117.74 192.171C117.733 191.052 117.726 189.933 117.719 188.78C117.721 187.552 117.724 186.324 117.726 185.059C117.721 183.766 117.716 182.473 117.711 181.141C117.697 177.593 117.697 174.046 117.699 170.499C117.7 167.539 117.696 164.579 117.691 161.619C117.68 154.638 117.679 147.657 117.685 140.675C117.691 133.469 117.679 126.262 117.658 119.055C117.64 112.871 117.634 106.687 117.637 100.502C117.639 96.8071 117.636 93.1122 117.623 89.4171C117.608 85.2988 117.617 81.1809 117.629 77.0625C117.621 75.8344 117.613 74.6062 117.605 73.3409C117.612 72.222 117.619 71.1031 117.627 69.9504C117.627 68.9762 117.626 68.0021 117.626 66.9985C118.001 64.5606 118.001 64.5606 119.298 62.712C121.001 61.5606 121.001 61.5606 124.626 61.7481Z"  />
</svg>
