<svg width="78" height="61" viewBox="0 0 78 61" fill="none" xmlns="http://www.w3.org/2000/svg">
<path d="M38.69 44.25C43.6606 44.25 47.69 40.2206 47.69 35.25C47.69 30.2794 43.6606 26.25 38.69 26.25C33.7194 26.25 29.69 30.2794 29.69 35.25C29.69 40.2206 33.7194 44.25 38.69 44.25Z" />
<path d="M69 11.35H56.45L55.61 7.21C55.1971 5.1753 54.0934 3.34594 52.4859 2.03192C50.8785 0.717902 48.8662 4.57707e-05 46.79 0H32.43C30.4075 0.00367411 28.4452 0.688453 26.8596 1.9439C25.274 3.19935 24.1574 4.95228 23.69 6.92L22.64 11.35H13.18C13.557 11.9862 13.8083 12.689 13.92 13.42C15.3362 13.6382 16.6276 14.3561 17.5604 15.4438C18.4933 16.5315 19.0062 17.9171 19.0062 19.35C19.0062 20.7829 18.4933 22.1685 17.5604 23.2562C16.6276 24.3439 15.3362 25.0618 13.92 25.28C13.695 26.6895 12.9749 27.9727 11.889 28.8991C10.803 29.8254 9.42238 30.3343 7.995 30.3343C6.56762 30.3343 5.18699 29.8254 4.10105 28.8991C3.0151 27.9727 2.29498 26.6895 2.07 25.28C1.33814 25.1715 0.634784 24.9201 0 24.54V51.35C0 53.7369 0.948211 56.0261 2.63604 57.714C4.32387 59.4018 6.61305 60.35 9 60.35H69C71.3869 60.35 73.6761 59.4018 75.364 57.714C77.0518 56.0261 78 53.7369 78 51.35V20.35C78 17.9631 77.0518 15.6739 75.364 13.986C73.6761 12.2982 71.3869 11.35 69 11.35ZM38.69 50.25C35.7233 50.25 32.8232 49.3703 30.3564 47.722C27.8897 46.0738 25.9671 43.7311 24.8318 40.9902C23.6965 38.2494 23.3994 35.2334 23.9782 32.3236C24.557 29.4139 25.9856 26.7412 28.0834 24.6434C30.1812 22.5456 32.8539 21.117 35.7636 20.5382C38.6734 19.9594 41.6894 20.2565 44.4302 21.3918C47.1711 22.5271 49.5138 24.4497 51.162 26.9164C52.8103 29.3832 53.69 32.2833 53.69 35.25C53.69 39.2282 52.1096 43.0436 49.2966 45.8566C46.4836 48.6697 42.6682 50.25 38.69 50.25ZM67.69 24.25H58.69C57.8943 24.25 57.1313 23.9339 56.5687 23.3713C56.0061 22.8087 55.69 22.0456 55.69 21.25C55.69 20.4544 56.0061 19.6913 56.5687 19.1287C57.1313 18.5661 57.8943 18.25 58.69 18.25H67.69C68.4857 18.25 69.2487 18.5661 69.8113 19.1287C70.3739 19.6913 70.69 20.4544 70.69 21.25C70.69 22.0456 70.3739 22.8087 69.8113 23.3713C69.2487 23.9339 68.4857 24.25 67.69 24.25Z" />
<path d="M13 16.35H11V14.35C11 13.5543 10.6839 12.7913 10.1213 12.2287C9.55871 11.6661 8.79565 11.35 8 11.35C7.20435 11.35 6.44129 11.6661 5.87868 12.2287C5.31607 12.7913 5 13.5543 5 14.35V16.35H3C2.20435 16.35 1.44129 16.6661 0.878679 17.2287C0.31607 17.7913 0 18.5543 0 19.35C0 20.1456 0.31607 20.9087 0.878679 21.4713C1.44129 22.0339 2.20435 22.35 3 22.35H5V24.35C5 25.1456 5.31607 25.9087 5.87868 26.4713C6.44129 27.0339 7.20435 27.35 8 27.35C8.79565 27.35 9.55871 27.0339 10.1213 26.4713C10.6839 25.9087 11 25.1456 11 24.35V22.35H13C13.7956 22.35 14.5587 22.0339 15.1213 21.4713C15.6839 20.9087 16 20.1456 16 19.35C16 18.5543 15.6839 17.7913 15.1213 17.2287C14.5587 16.6661 13.7956 16.35 13 16.35Z" />
</svg>
