<svg  viewbox="0 0 40 44" fill="none" xmlns="http://www.w3.org/2000/svg">
<path d="M30.0471 1.81903H9.95255C5.47893 1.81903 1.81939 5.4782 1.81939 9.95093V24.3022C1.81939 28.7743 5.47965 32.4342 9.95255 32.4342H16.2713C15.3674 36.0099 14.2725 39.2229 10.9278 42.1885C17.3232 40.5532 22.2603 37.247 25.8836 32.4342H26.9763C31.4489 32.4342 38.181 28.775 38.181 24.3022V9.95093C38.1803 5.4782 34.5207 1.81903 30.0471 1.81903ZM29.0561 14.7058C27.4262 14.7058 26.105 16.0275 26.105 17.6571C26.105 19.2867 27.4262 20.6083 29.0561 20.6083C30.6867 20.6083 32.008 19.2867 32.008 17.6571C32.008 16.0275 30.6867 14.7058 29.0561 14.7058ZM10.9435 14.7058C9.31325 14.7058 7.99169 16.0275 7.99169 17.6571C7.99169 19.2867 9.31325 20.6083 10.9435 20.6083C12.5735 20.6083 13.8954 19.2867 13.8954 17.6571C13.8954 16.0275 12.5735 14.7058 10.9435 14.7058ZM20 14.7058C18.3701 14.7058 17.0482 16.0275 17.0482 17.6571C17.0482 19.2867 18.3701 20.6083 20 20.6083C21.6303 20.6083 22.9515 19.2867 22.9515 17.6571C22.9515 16.0275 21.6303 14.7058 20 14.7058ZM9.95255 0H30.0475H30.0496V0.00716152C32.7923 0.00787767 35.28 1.124 37.0775 2.92154L37.0739 2.92512C38.8743 4.72732 39.9921 7.2138 39.9928 9.94985H40V9.95093H39.9928V24.3022H40V24.3037H39.9928C39.9914 27.2292 37.9586 29.7783 35.251 31.5587C32.7293 33.2162 29.545 34.2457 26.9763 34.246V34.2535H26.9756V34.246H26.7693C24.9557 36.5051 22.8509 38.4334 20.4394 40.0164C17.7738 41.7667 14.7578 43.0855 11.3747 43.9506L11.3733 43.9449C10.7365 44.106 10.0349 43.9144 9.56969 43.3891C8.9064 42.6397 8.9766 41.4942 9.7262 40.831C11.201 39.5237 12.1791 38.163 12.8872 36.7368C13.2815 35.9422 13.5985 35.1133 13.8739 34.2525H9.95219H9.94968V34.2449C7.20771 34.2442 4.72002 33.1281 2.92212 31.3306C1.12387 29.5334 0.00752109 27.0455 0.00716294 24.303H0V24.3019H0.00716294V9.95093H0V9.94842H0.00716294C0.00752109 7.26249 1.08268 4.8197 2.82148 3.03075C2.85336 2.99351 2.88631 2.95699 2.9214 2.9219C4.71966 1.124 7.20771 0.00716152 9.95111 0.00680344V0H9.95255Z" />
</svg>
