<svg width="82" height="91" viewBox="0 0 82 91" fill="none" xmlns="http://www.w3.org/2000/svg">
<path fill-rule="evenodd" clip-rule="evenodd" d="M39.5188 69.012C37.4803 77.0723 35.0098 84.3142 27.4665 90.9993C41.8877 87.3128 53.0234 79.8605 61.1943 69.012H39.5188ZM63.6574 0H18.3411C8.2532 0 0 8.2491 0 18.3303V50.681C0 60.7629 8.2532 69.012 18.3411 69.012H63.6574C73.7461 69.012 82 60.7629 82 50.681V18.3303C82 8.2491 73.7461 0 63.6574 0ZM19.4296 26.0062C23.5785 26.0062 26.9441 29.3699 26.9441 33.5163C26.9441 37.6627 23.5785 41.0263 19.4296 41.0263C15.2801 41.0263 11.9152 37.6627 11.9152 33.5163C11.9152 29.3691 15.2801 26.0062 19.4296 26.0062ZM62.5704 26.0062C66.7199 26.0062 70.0848 29.3699 70.0848 33.5163C70.0848 37.6627 66.7199 41.0263 62.5704 41.0263C58.4208 41.0263 55.0559 37.6627 55.0559 33.5163C55.0567 29.3691 58.4215 26.0062 62.5704 26.0062ZM41 26.0062C45.1488 26.0062 48.5152 29.3699 48.5152 33.5163C48.5152 37.6627 45.1488 41.0263 41 41.0263C36.8504 41.0263 33.4856 37.6627 33.4856 33.5163C33.4856 29.3691 36.8504 26.0062 41 26.0062Z" />
</svg>
