<svg width="236" height="192" viewBox="0 0 236 192" fill="none" xmlns="http://www.w3.org/2000/svg">
<path d="M91.0051 0.443754C79.3051 1.94375 68.9051 7.44375 62.4051 15.5438C56.0051 23.5438 51.5051 36.2438 51.5051 46.3438C51.5051 49.4438 51.5051 49.4438 49.8051 50.6438C48.6051 51.4438 47.5051 52.7438 46.6051 54.5438C45.4051 56.8438 45.2051 57.9438 45.1051 61.8438C44.9051 67.1438 45.5051 70.4438 47.3051 74.3438C49.1051 78.1438 51.4051 80.4438 54.0051 81.1438L56.1051 81.7438L57.0051 85.3438C59.3051 95.2438 63.6051 105.744 67.6051 111.744C72.3051 118.744 79.4051 123.944 87.3051 126.244C92.4051 127.744 102.205 128.044 107.505 127.044C124.005 123.644 133.305 111.844 141.105 83.9438C141.805 81.2438 141.905 81.2438 143.205 81.5438C145.505 82.0438 148.505 80.2438 150.605 77.1438C153.305 73.1438 154.205 69.5438 154.205 63.2438C154.205 58.2438 154.205 57.9438 152.605 54.8438C151.305 52.4438 150.505 51.4438 149.205 50.7438C147.405 49.8438 147.405 49.8438 147.405 46.9438C147.405 45.3438 147.105 42.1438 146.705 39.8438C143.405 20.6438 132.205 7.44375 115.005 2.44375C107.805 0.143754 98.5051 -0.556246 91.0051 0.443754Z" />
<path d="M180.206 93.7438C162.306 96.5438 147.506 108.644 141.406 125.244C139.106 131.544 138.506 135.044 138.506 142.344C138.506 149.644 139.106 152.944 141.506 159.544C151.206 186.344 183.006 198.944 208.806 186.244C221.706 179.844 230.906 168.644 234.706 154.444C235.806 150.444 235.906 148.944 235.906 142.444C235.906 135.844 235.806 134.444 234.706 130.344C228.906 108.844 210.806 94.2438 188.906 93.6438C185.606 93.3438 181.706 93.4438 180.206 93.7438ZM194.906 112.244C195.906 112.944 195.906 113.144 195.906 123.244V133.544H206.206C219.006 133.544 218.006 132.844 218.006 142.244C218.006 151.644 219.006 150.944 206.206 150.944H195.906V161.244C195.906 174.044 196.606 173.044 187.206 173.044C177.806 173.044 178.506 174.044 178.506 161.244V150.944H168.306C161.006 150.944 157.906 150.844 157.506 150.344C156.706 149.544 156.706 134.944 157.506 134.144C157.906 133.744 161.006 133.544 168.306 133.544H178.506V123.244C178.506 110.444 177.806 111.444 187.206 111.444C192.406 111.544 194.006 111.644 194.906 112.244Z" />
<path d="M48.0054 124.944C43.1054 127.344 37.8054 129.444 30.2054 131.944C17.8054 136.044 14.5054 137.744 9.80536 142.444C1.80536 150.444 -1.59464 161.844 0.705361 172.744C2.50536 181.144 3.70536 183.344 7.50536 185.244L9.90536 186.544H76.2054H142.505L140.105 183.844C132.705 175.544 127.305 164.344 125.305 153.244C124.505 148.544 124.205 137.444 124.805 134.344L125.205 132.444L123.505 133.744C120.905 135.744 116.305 137.644 112.405 138.444C104.005 140.144 89.3054 139.844 81.9054 137.744C75.8054 136.044 72.1054 133.444 68.0054 127.844C64.7054 123.444 61.3054 121.344 57.3054 121.444C55.5054 121.444 53.6054 122.144 48.0054 124.944Z" />
</svg>
