<svg width="390" height="353" viewbox="0 0 390 353" fill="none" xmlns="http://www.w3.org/2000/svg">
<mask id="mask0_5502_815" style="mask-type:luminance" maskUnits="userSpaceOnUse" x="0" y="0" width="627" height="353">
<path d="M627 352.463H0V0H627V352.463Z" fill="white"/>
</mask>
<g mask="url(#mask0_5502_815)">
<path d="M0.587852 194.997L0.293945 194.899L32.3624 111.32L18.81 1.63194L19.0386 1.66458L159.036 30.4817L303.997 -0.880988L304.03 -0.848353L344.034 13.7397L393.802 -3.39392L393.9 -3.06757L344.001 14.0987L343.968 14.0661L303.964 -0.521998L159.036 30.8081H159.003L19.2019 2.02357L32.6889 111.352V111.418L0.587852 194.997Z" fill="white" fill-opacity="0.4"/>
<path d="M130.2 58.3199L102.41 -2.05579C99.0462 -1.89261 23.9368 1.86047 19.2016 1.99101C21.4876 4.86294 67.4023 37.4332 85.2652 49.9978L85.7224 50.3242L-4.21289 47.7786L-4.18023 47.4522L84.6448 49.9652C81.869 48.0071 66.7165 37.3353 51.7926 26.6634C18.4832 2.8069 18.6791 2.12156 18.7771 1.7952C18.8098 1.76257 18.8424 1.66466 19.0057 1.66466C21.5202 1.66466 101.724 -2.34951 102.508 -2.38214L102.638 -2.41478L102.671 -2.28423L130.07 57.2429L138.495 12.9239L138.593 12.8913L189.177 -3.36121H189.243L272.679 23.7915L303.866 -0.815638L304.095 -0.554554L272.745 24.1505L272.679 24.1179L189.177 -3.03485L138.789 13.1524L130.2 58.3199Z" fill="white" fill-opacity="0.4"/>
<path d="M71.7138 84.1017L71.4199 83.9712L85.0376 50.0629L85.3315 50.1935L71.7138 84.1017Z" fill="white" fill-opacity="0.4"/>
<path d="M32.4275 111.45L5.35547 84.1672L5.61672 83.9387L32.6561 111.222L32.4275 111.45Z" fill="white" fill-opacity="0.4"/>
<path d="M85.3305 50.1936L85.0039 50.0957L102.018 -3.26331L102.312 -3.1654L85.3305 50.1936Z" fill="white" fill-opacity="0.4"/>
<path d="M218.372 34.3001L189.047 -3.1328L189.308 -3.32861L218.633 34.1043L218.372 34.3001Z" fill="white" fill-opacity="0.4"/>
<path d="M159.068 30.8734L158.938 30.7755L138.527 13.1523L138.756 12.9239L159.035 30.4165L189.047 -3.32861L189.308 -3.10016L159.068 30.8734Z" fill="white" fill-opacity="0.4"/>
<path d="M141.173 13.0218C141.173 11.6512 140.03 10.5089 138.626 10.5089C137.254 10.5089 136.111 11.6512 136.111 13.0218C136.111 14.4252 137.254 15.5674 138.626 15.5674C140.03 15.5674 141.173 14.4252 141.173 13.0218Z" fill="white" fill-opacity="0.4"/>
<path d="M87.715 50.1283C87.715 48.725 86.5721 47.6154 85.1678 47.6154C83.7636 47.6154 82.6533 48.725 82.6533 50.1283C82.6533 51.5316 83.7636 52.6739 85.1678 52.6739C86.5721 52.6739 87.715 51.5316 87.715 50.1283Z" fill="white" fill-opacity="0.4"/>
<path d="M21.5529 1.82787C21.5529 0.424548 20.41 -0.685059 19.0057 -0.685059C17.6015 -0.685059 16.4912 0.424548 16.4912 1.82787C16.4912 3.2312 17.6015 4.34081 19.0057 4.34081C20.41 4.34081 21.5529 3.2312 21.5529 1.82787Z" fill="white" fill-opacity="0.4"/>
<path d="M35.0725 111.352C35.0725 109.949 33.9295 108.807 32.5253 108.807C31.1537 108.807 30.0107 109.949 30.0107 111.352C30.0107 112.756 31.1537 113.865 32.5253 113.865C33.9295 113.865 35.0725 112.756 35.0725 111.352Z" fill="white" fill-opacity="0.4"/>
<path d="M2.97187 194.932C2.97187 193.561 1.82891 192.419 0.424687 192.419C-0.979531 192.419 -2.08984 193.561 -2.08984 194.932C-2.08984 196.335 -0.979531 197.478 0.424687 197.478C1.82891 197.478 2.97187 196.335 2.97187 194.932Z" fill="white" fill-opacity="0.4"/>
<path d="M161.583 30.6448C161.583 29.2415 160.44 28.1319 159.036 28.1319C157.632 28.1319 156.521 29.2415 156.521 30.6448C156.521 32.0482 157.632 33.1904 159.036 33.1904C160.44 33.1904 161.583 32.0482 161.583 30.6448Z" fill="white" fill-opacity="0.4"/>
<path d="M306.511 -0.685145C306.511 -2.08847 305.368 -3.23071 303.996 -3.23071C302.592 -3.23071 301.449 -2.08847 301.449 -0.685145C301.449 0.685546 302.592 1.82779 303.996 1.82779C305.368 1.82779 306.511 0.685546 306.511 -0.685145Z" fill="white" fill-opacity="0.4"/>
<path d="M346.548 13.903C346.548 12.5323 345.405 11.3901 344.001 11.3901C342.629 11.3901 341.486 12.5323 341.486 13.903C341.486 15.3063 342.629 16.4486 344.001 16.4486C345.405 16.4486 346.548 15.3063 346.548 13.903Z" fill="white" fill-opacity="0.4"/>
<path d="M74.0969 84.0366C74.0969 82.6659 72.9539 81.5237 71.5497 81.5237C70.1781 81.5237 69.0352 82.6659 69.0352 84.0366C69.0352 85.4399 70.1781 86.5822 71.5497 86.5822C72.9539 86.5822 74.0969 85.4399 74.0969 84.0366Z" fill="white" fill-opacity="0.4"/>
<path d="M275.259 23.9872C275.259 22.5839 274.116 21.4417 272.712 21.4417C271.308 21.4417 270.197 22.5839 270.197 23.9872C270.197 25.3579 271.308 26.5002 272.712 26.5002C274.116 26.5002 275.259 25.3579 275.259 23.9872Z" fill="white" fill-opacity="0.4"/>
<path d="M8.00074 84.0366C8.00074 82.6659 6.89043 81.5237 5.48621 81.5237C4.08199 81.5237 2.97168 82.6659 2.97168 84.0366C2.97168 85.4399 4.08199 86.5822 5.48621 86.5822C6.89043 86.5822 8.00074 85.4399 8.00074 84.0366Z" fill="white" fill-opacity="0.4"/>
<path d="M221.017 34.2021C221.017 32.7988 219.906 31.6891 218.502 31.6891C217.098 31.6891 215.955 32.7988 215.955 34.2021C215.955 35.6054 217.098 36.7476 218.502 36.7476C219.906 36.7476 221.017 35.6054 221.017 34.2021Z" fill="white" fill-opacity="0.4"/>
<path d="M132.683 57.765C132.683 56.3943 131.54 55.2521 130.136 55.2521C128.764 55.2521 127.621 56.3943 127.621 57.765C127.621 59.1683 128.764 60.3106 130.136 60.3106C131.54 60.3106 132.683 59.1683 132.683 57.765Z" fill="white" fill-opacity="0.4"/>
</g>
</svg>
