<svg width="29" height="20" viewbox="0 0 29 20" fill="none" xmlns="http://www.w3.org/2000/svg">
<path d="M24.6942 19.065H3.78229C1.76998 19.065 0.12793 17.3532 0.12793 15.2347V4.59128C0.12793 2.47277 1.76998 0.761002 3.78229 0.761002H24.6942C26.7065 0.761002 28.3486 2.47277 28.3486 4.59128V15.2347C28.3486 17.3532 26.7065 19.065 24.6942 19.065Z" fill="url(#paint0_linear_5635_1108)"/>
<g style="mix-blend-mode:overlay">
<path fill-rule="evenodd" clip-rule="evenodd" d="M14.2304 16.0821C12.4273 16.0821 10.9463 14.5398 10.9463 12.6247C10.9463 11.557 11.397 10.574 12.1698 9.913C11.397 9.25203 10.9463 8.26904 10.9463 7.21825C10.9463 5.30311 12.4273 3.74388 14.2304 3.74388C16.0495 3.74388 17.5306 5.30311 17.5306 7.21825C17.5306 8.26904 17.0798 9.25203 16.3071 9.913C17.0798 10.574 17.5306 11.557 17.5306 12.6247C17.5306 14.5398 16.0495 16.0821 14.2304 16.0821ZM14.2304 4.25233C12.6849 4.25233 11.4292 5.57428 11.4292 7.21825C11.4292 8.21819 11.9122 9.15034 12.7171 9.70963L13.0391 9.913L12.7171 10.1333C11.9122 10.6757 11.4292 11.6078 11.4292 12.6247C11.4292 14.2517 12.6849 15.5737 14.2304 15.5737C15.7919 15.5737 17.0476 14.2517 17.0476 12.6247C17.0476 11.6078 16.5647 10.6757 15.7597 10.1333L15.4378 9.913L15.7597 9.70963C16.5647 9.15034 17.0476 8.21819 17.0476 7.21825C17.0476 5.57428 15.7919 4.25233 14.2304 4.25233Z" fill="#070A10"/>
<path d="M11.3808 6.33694H0.12793V5.82849H11.3808V6.33694Z" fill="#070A10"/>
<path d="M28.3487 6.33694H17.2891V5.82849H28.3487V6.33694Z" fill="#070A10"/>
<path d="M11.3808 13.9128H0.12793V13.4043H11.3808V13.9128Z" fill="#070A10"/>
<path d="M28.3487 13.9128H17.2891V13.4043H28.3487V13.9128Z" fill="#070A10"/>
<path d="M6.00346 19.065H5.52051V0.761002H6.00346V19.065Z" fill="#070A10"/>
<path d="M21.4263 13.6585H20.9434V6.08272H21.4263V13.6585Z" fill="#070A10"/>
<path d="M24.0337 6.08272H23.5508V0.761002H24.0337V6.08272Z" fill="#070A10"/>
<path d="M24.0337 19.065H23.5508V13.6585H24.0337V19.065Z" fill="#070A10"/>
</g>
<defs>
<linearGradient id="paint0_linear_5635_1108" x1="4795.6" y1="-1929.36" x2="4795.6" y2="-5139.5" gradientUnits="userSpaceOnUse">
<stop stop-color="#FFF08A"/>
<stop offset="0.32" stop-color="#AA7307"/>
<stop offset="0.66" stop-color="#DCB64E"/>
<stop offset="1" stop-color="#FFF290"/>
</linearGradient>
</defs>
</svg>
