<svg width="36" height="27" viewBox="0 0 36 27" fill="none" xmlns="http://www.w3.org/2000/svg">
<path d="M32.212 6.46237C25.379 13.4266 15.6717 20.7502 1.74711 25.4599C1.71356 25.4708 1.6878 25.4701 1.65841 25.4614C1.62098 25.4503 1.57684 25.4245 1.5411 25.3856C1.51571 25.358 1.50547 25.336 1.50169 25.3257C1.50286 25.323 1.50449 25.3195 1.50673 25.3153L1.51252 25.3043L1.51813 25.2933C1.82945 24.681 2.19265 24.0147 2.58844 23.2885C4.86994 19.1026 8.23439 12.9297 8.98854 3.67808L32.212 6.46237Z"   stroke-width="3"/>
<!-- <path d="M32.212 6.46237C25.379 13.4266 15.6717 20.7502 1.74711 25.4599C1.71356 25.4708 1.6878 25.4701 1.65841 25.4614C1.62098 25.4503 1.57684 25.4245 1.5411 25.3856C1.51571 25.358 1.50547 25.336 1.50169 25.3257C1.50286 25.323 1.50449 25.3195 1.50673 25.3153L1.51252 25.3043L1.51813 25.2933C1.82945 24.681 2.19265 24.0147 2.58844 23.2885C4.86994 19.1026 8.23439 12.9297 8.98854 3.67808L32.212 6.46237Z"   stroke-width="3"/> -->
<!-- <path d="M10.5003 3.99973L28.6356 5.46164" stroke-width="5"/>
<path d="M24.9227 2.96213L29.7329 6.10993" stroke-width="5"/> -->
</svg>
