<svg width="30" height="30" viewBox="0 0 30 30" fill="none" xmlns="http://www.w3.org/2000/svg">
<path fill-rule="evenodd" clip-rule="evenodd" d="M17.9395 3.86719C18.9185 4.16102 19.8537 4.58472 20.7202 5.12695L22.2168 3.62305C22.5645 3.27717 23.035 3.083 23.5254 3.083C24.0158 3.083 24.4863 3.27717 24.834 3.62305L26.3672 5.16357C26.7131 5.51126 26.9072 5.98174 26.9072 6.47217C26.9072 6.96259 26.7131 7.43308 26.3672 7.78076L24.7559 9.39209C25.2203 10.2333 25.5763 11.1299 25.8154 12.0605H28.1396C28.3837 12.0599 28.6255 12.1074 28.8512 12.2004C29.0769 12.2933 29.282 12.4299 29.4548 12.6023C29.6276 12.7746 29.7647 12.9794 29.8583 13.2048C29.9518 13.4303 30 13.6719 30 13.916V16.0889C29.9987 16.5793 29.8033 17.0492 29.4566 17.396C29.1098 17.7428 28.6398 17.9382 28.1494 17.9395H25.8032C25.5589 18.8602 25.2005 19.7468 24.7363 20.5786L26.3672 22.2168C26.7131 22.5645 26.9072 23.035 26.9072 23.5254C26.9072 24.0158 26.7131 24.4863 26.3672 24.834L24.8364 26.3672C24.4883 26.7132 24.0174 26.9074 23.5266 26.9074C23.0358 26.9074 22.5649 26.7132 22.2168 26.3672L20.6689 24.8169C19.8152 25.3408 18.8968 25.7511 17.937 26.0376V28.1348C17.9357 28.6252 17.7403 29.0951 17.3936 29.4419C17.0468 29.7887 16.5768 29.9841 16.0864 29.9854H13.916C13.4256 29.9841 12.9557 29.7887 12.6089 29.4419C12.2621 29.0951 12.0667 28.6252 12.0654 28.1348V26.2402C11.012 26.002 9.99708 25.6174 9.05029 25.0977L7.78076 26.3672C7.43245 26.7119 6.96221 26.9052 6.47217 26.9052C5.98213 26.9052 5.51188 26.7119 5.16357 26.3672L3.62305 24.8267C3.27776 24.4787 3.084 24.0083 3.084 23.5181C3.084 23.0278 3.27776 22.5575 3.62305 22.2095L4.77539 21.0571C4.17181 20.0904 3.71439 19.0399 3.41797 17.9395H1.85059C1.36018 17.9382 0.890221 17.7428 0.543448 17.396C0.196675 17.0492 0.00128886 16.5793 0 16.0889L0 13.916C-1.70102e-06 13.4248 0.194814 12.9536 0.541727 12.6057C0.888639 12.2579 1.35933 12.0618 1.85059 12.0605H3.40088C3.689 10.9462 4.14243 9.88134 4.74609 8.90137L3.62305 7.78076C3.27835 7.43245 3.085 6.96221 3.085 6.47217C3.085 5.98213 3.27835 5.51188 3.62305 5.16357L5.16357 3.62305C5.51126 3.27717 5.98174 3.083 6.47217 3.083C6.96259 3.083 7.43308 3.27717 7.78076 3.62305L9.00146 4.84375C9.95874 4.3042 10.9891 3.90619 12.0605 3.66211V1.85059C12.0618 1.35933 12.2579 0.888639 12.6057 0.541727C12.9536 0.194814 13.4248 -1.70102e-06 13.916 0L16.0889 0C16.5793 0.00128886 17.0492 0.196675 17.396 0.543448C17.7428 0.890221 17.9382 1.36018 17.9395 1.85059V3.86719ZM14.6143 8.95508C15.8022 8.95508 16.9635 9.30738 17.9512 9.96742C18.9389 10.6275 19.7087 11.5656 20.1632 12.6632C20.6177 13.7607 20.7365 14.9684 20.5045 16.1335C20.2726 17.2986 19.7004 18.3687 18.8602 19.2086C18.02 20.0484 16.9496 20.6202 15.7844 20.8517C14.6193 21.0832 13.4116 20.9639 12.3142 20.5089C11.2168 20.054 10.279 19.2838 9.61938 18.2958C8.95974 17.3079 8.60792 16.1464 8.6084 14.9585C8.6084 14.1699 8.76376 13.3891 9.06562 12.6605C9.36747 11.932 9.80989 11.2701 10.3676 10.7126C10.9253 10.1551 11.5874 9.71292 12.3161 9.41136C13.0447 9.1098 13.8257 8.95476 14.6143 8.95508Z" />
</svg>
