<svg width="250" height="197" viewbox="0 0 250 197" fill="none" xmlns="http://www.w3.org/2000/svg">
<g clip-path="url(#clip0_5440_530)">
<path d="M224.151 166.431L246.113 154.482L246.068 130.421L224.105 142.37L224.151 166.431Z" fill="#82412A"/>
<path d="M224.106 142.37L246.068 130.421L186.884 122.105L164.922 134.054L224.106 142.37Z" fill="#B45A3B"/>
<path d="M164.922 134.054L164.967 158.115L224.151 166.431L224.106 142.37L164.922 134.054Z" fill="#DF7048"/>
<path d="M45.7062 159.462L36.7295 149.113L37.973 124.657L46.9432 135.006L45.7062 159.462Z" fill="#80402A"/>
<path d="M46.9429 135.006L37.9727 124.657L103.219 125.214L112.195 135.563L46.9429 135.006Z" fill="#AC5738"/>
<path d="M112.196 135.563L110.952 160.026L45.7061 159.462L46.9431 135.006L112.196 135.563Z" fill="#DA6D47"/>
<path d="M54.9873 180.35L65.4925 172.092L72.9925 109.812L56.4834 112.811" fill="#854C16"/>
<path d="M55.2916 181.852H34.2812L47.7916 102.306H68.802L55.2916 181.852Z" fill="#D6975C"/>
<path d="M189.612 180.35L179.106 172.092L171.606 109.812L188.116 112.811" fill="#854C16"/>
<path d="M189.307 181.852H210.318L196.807 102.306H175.797L189.307 181.852Z" fill="#D6975C"/>
<g filter="url(#filter0_d_5440_530)">
<path d="M219.203 5.50513H21.5804C12.6379 5.50513 5.38867 12.7544 5.38867 21.6968V101.12C5.38867 110.063 12.6379 117.312 21.5804 117.312H219.203C228.146 117.312 235.395 110.063 235.395 101.12V21.6968C235.395 12.7544 228.146 5.50513 219.203 5.50513Z" fill="#FBB03B"/>
</g>
<path d="M212.888 11.509H28.4066C19.4641 11.509 12.2148 18.7583 12.2148 27.7007V94.3717C12.2148 103.314 19.4641 110.563 28.4066 110.563H212.888C221.831 110.563 229.08 103.314 229.08 94.3717V27.7007C229.08 18.7583 221.831 11.509 212.888 11.509Z" stroke="#FB9900" stroke-width="3" stroke-miterlimit="10"  fill="#FBB03B"/>
<path d="M111.723 196.302L89.7607 184.352L89.8061 160.291L111.769 172.241L111.723 196.302Z" fill="#82412A"/>
<path d="M111.768 172.241L89.8057 160.291L148.99 151.975L170.952 163.925L111.768 172.241Z" fill="#B45A3B"/>
<path d="M170.953 163.925L170.908 187.986L111.724 196.302L111.769 172.241L170.953 163.925Z" fill="#DF7048"/>
<path d="M53.735 37.184H64.265V40.46H57.453V43.918H63.095V47.09H57.453V51.224H64.265V54.5H53.735V37.184ZM71.0181 42.28L69.9261 54.5H66.5721L68.2101 37.184H72.8901L77.3102 49.612L81.6001 37.184H86.2802L87.8661 54.5H84.4861L83.2901 42.332L78.7141 54.682L75.6201 54.968L71.0181 42.28ZM90.6116 37.184C91.1143 37.1667 92.0676 37.158 93.4716 37.158C94.8929 37.158 95.8549 37.1667 96.3576 37.184C98.1429 37.2187 99.5469 37.6953 100.57 38.614C101.592 39.5327 102.104 40.8067 102.104 42.436C102.104 43.5973 101.844 44.6287 101.324 45.53C100.804 46.414 100.067 47.0987 99.1136 47.584C98.1776 48.0693 97.1116 48.312 95.9156 48.312H94.2256V54.5H90.6116V37.184ZM95.7596 45.244C96.6089 45.244 97.2676 45.0013 97.7356 44.516C98.2209 44.0307 98.4636 43.372 98.4636 42.54C98.4636 41.0147 97.6229 40.252 95.9416 40.252H94.2256V45.244H95.7596ZM104.426 37.184C104.946 37.1667 105.917 37.158 107.338 37.158C108.777 37.158 109.756 37.1667 110.276 37.184C112.252 37.2533 113.726 37.7387 114.696 38.64C115.667 39.524 116.152 40.72 116.152 42.228C116.152 43.5107 115.823 44.6027 115.164 45.504C114.523 46.388 113.622 46.9687 112.46 47.246C112.824 47.5407 113.197 47.948 113.578 48.468C113.96 48.9707 114.488 49.7593 115.164 50.834C115.875 51.9607 116.594 53.1827 117.322 54.5H112.954L110.016 49.04C109.704 48.468 109.418 48.1127 109.158 47.974C108.916 47.818 108.543 47.74 108.04 47.74V54.5H104.426V37.184ZM109.652 44.854C110.536 44.854 111.23 44.6287 111.732 44.178C112.252 43.7273 112.512 43.1207 112.512 42.358C112.512 41.6647 112.287 41.136 111.836 40.772C111.386 40.408 110.727 40.226 109.86 40.226H108.04V44.854H109.652ZM118.779 37.184H129.309V40.46H122.497V43.918H128.139V47.09H122.497V51.224H129.309V54.5H118.779V37.184ZM136.842 54.838C135.837 54.838 134.875 54.7253 133.956 54.5C133.055 54.2747 132.275 53.9713 131.616 53.59L131.928 50.106C132.708 50.5913 133.523 50.9727 134.372 51.25C135.239 51.51 136.036 51.64 136.764 51.64C137.596 51.64 138.272 51.4667 138.792 51.12C139.312 50.7733 139.572 50.314 139.572 49.742C139.572 49.274 139.399 48.9187 139.052 48.676C138.706 48.416 138.16 48.1387 137.414 47.844L136.79 47.584C136.704 47.5493 136.608 47.5147 136.504 47.48C136.4 47.428 136.279 47.376 136.14 47.324C135.17 46.9253 134.39 46.5527 133.8 46.206C133.211 45.842 132.7 45.3393 132.266 44.698C131.85 44.0567 131.642 43.2247 131.642 42.202C131.642 40.538 132.206 39.2293 133.332 38.276C134.459 37.3227 136.028 36.846 138.038 36.846C139.564 36.846 141.124 37.158 142.718 37.782L142.146 41.214C141.505 40.85 140.812 40.564 140.066 40.356C139.338 40.148 138.645 40.044 137.986 40.044C137.172 40.044 136.539 40.2087 136.088 40.538C135.638 40.85 135.412 41.2747 135.412 41.812C135.412 42.28 135.568 42.644 135.88 42.904C136.192 43.164 136.695 43.4413 137.388 43.736L138.454 44.152C139.46 44.5333 140.292 44.906 140.95 45.27C141.609 45.634 142.172 46.1627 142.64 46.856C143.108 47.532 143.342 48.416 143.342 49.508C143.342 51.1893 142.77 52.498 141.626 53.434C140.482 54.37 138.888 54.838 136.842 54.838ZM150.485 37.184H155.009L161.431 54.5H157.531L156.127 50.548H149.315L147.989 54.5H144.141L150.485 37.184ZM155.009 47.324L152.669 40.694L150.407 47.324H155.009ZM168.03 37.184H178.56V40.46H171.748V43.918H177.39V47.09H171.748V51.224H178.56V54.5H168.03V37.184ZM181.517 37.184H185.937L193.113 49.326V37.184H196.571V54.5H192.203L184.975 42.28V54.5H181.517V37.184ZM41.1253 92.838C38.352 92.838 36.1853 92.0927 34.6253 90.602C33.0653 89.1113 32.2853 87.0053 32.2853 84.284C32.2853 82.4293 32.6493 80.7913 33.3773 79.37C34.1227 77.9487 35.1713 76.8567 36.5233 76.094C37.8753 75.314 39.4353 74.924 41.2033 74.924C42.642 74.924 44.0287 75.184 45.3633 75.704L44.6613 79.058C43.4827 78.5207 42.3387 78.252 41.2293 78.252C39.652 78.252 38.404 78.772 37.4853 79.812C36.5667 80.8347 36.1073 82.204 36.1073 83.92C36.1073 85.6707 36.5927 87.0313 37.5633 88.002C38.534 88.9727 39.8773 89.458 41.5933 89.458C42.72 89.458 43.812 89.276 44.8693 88.912L45.4413 92.11C44.176 92.5953 42.7373 92.838 41.1253 92.838ZM55.6982 92.838C53.9995 92.838 52.5002 92.4653 51.2002 91.72C49.9002 90.9747 48.8862 89.926 48.1582 88.574C47.4475 87.222 47.0922 85.6707 47.0922 83.92C47.0922 82.152 47.4475 80.592 48.1582 79.24C48.8688 77.888 49.8742 76.8393 51.1742 76.094C52.4742 75.3487 53.9822 74.976 55.6982 74.976C57.3968 74.976 58.8962 75.3487 60.1962 76.094C61.4962 76.822 62.5015 77.8533 63.2122 79.188C63.9228 80.5227 64.2782 82.0653 64.2782 83.816C64.2782 85.6013 63.9228 87.1787 63.2122 88.548C62.5015 89.9 61.4962 90.9573 60.1962 91.72C58.8962 92.4653 57.3968 92.838 55.6982 92.838ZM55.6982 89.536C57.1195 89.536 58.2548 89.0247 59.1042 88.002C59.9708 86.9793 60.4042 85.6187 60.4042 83.92C60.4042 82.8107 60.2048 81.8313 59.8062 80.982C59.4248 80.1153 58.8702 79.4567 58.1422 79.006C57.4315 78.538 56.6168 78.304 55.6982 78.304C54.7795 78.304 53.9562 78.538 53.2282 79.006C52.5175 79.4567 51.9628 80.1153 51.5642 80.982C51.1828 81.8313 50.9922 82.8107 50.9922 83.92C50.9922 85.0293 51.1828 86.0087 51.5642 86.858C51.9628 87.7073 52.5175 88.366 53.2282 88.834C53.9388 89.302 54.7622 89.536 55.6982 89.536ZM66.8436 75.184H71.2636L78.4396 87.326V75.184H81.8976V92.5H77.5296L70.3016 80.28V92.5H66.8436V75.184ZM89.8071 92.838C88.8018 92.838 87.8398 92.7253 86.9211 92.5C86.0198 92.2747 85.2398 91.9713 84.5811 91.59L84.8931 88.106C85.6731 88.5913 86.4878 88.9727 87.3371 89.25C88.2038 89.51 89.0011 89.64 89.7291 89.64C90.5611 89.64 91.2371 89.4667 91.7571 89.12C92.2771 88.7733 92.5371 88.314 92.5371 87.742C92.5371 87.274 92.3638 86.9187 92.0171 86.676C91.6705 86.416 91.1245 86.1387 90.3791 85.844L89.7551 85.584C89.6685 85.5493 89.5731 85.5147 89.4691 85.48C89.3651 85.428 89.2438 85.376 89.1051 85.324C88.1345 84.9253 87.3545 84.5527 86.7651 84.206C86.1758 83.842 85.6645 83.3393 85.2311 82.698C84.8151 82.0567 84.6071 81.2247 84.6071 80.202C84.6071 78.538 85.1705 77.2293 86.2971 76.276C87.4238 75.3227 88.9925 74.846 91.0031 74.846C92.5285 74.846 94.0885 75.158 95.6831 75.782L95.1111 79.214C94.4698 78.85 93.7765 78.564 93.0311 78.356C92.3031 78.148 91.6098 78.044 90.9511 78.044C90.1365 78.044 89.5038 78.2087 89.0531 78.538C88.6025 78.85 88.3771 79.2747 88.3771 79.812C88.3771 80.28 88.5331 80.644 88.8451 80.904C89.1571 81.164 89.6598 81.4413 90.3531 81.736L91.4191 82.152C92.4245 82.5333 93.2565 82.906 93.9151 83.27C94.5738 83.634 95.1371 84.1627 95.6051 84.856C96.0731 85.532 96.3071 86.416 96.3071 87.508C96.3071 89.1893 95.7351 90.498 94.5911 91.434C93.4471 92.37 91.8525 92.838 89.8071 92.838ZM102.69 78.46H97.9575V75.184H111.166V78.46H106.486V92.5H102.69V78.46ZM113.371 75.184C113.891 75.1667 114.862 75.158 116.283 75.158C117.722 75.158 118.701 75.1667 119.221 75.184C121.197 75.2533 122.67 75.7387 123.641 76.64C124.612 77.524 125.097 78.72 125.097 80.228C125.097 81.5107 124.768 82.6027 124.109 83.504C123.468 84.388 122.566 84.9687 121.405 85.246C121.769 85.5407 122.142 85.948 122.523 86.468C122.904 86.9707 123.433 87.7593 124.109 88.834C124.82 89.9607 125.539 91.1827 126.267 92.5H121.899L118.961 87.04C118.649 86.468 118.363 86.1127 118.103 85.974C117.86 85.818 117.488 85.74 116.985 85.74V92.5H113.371V75.184ZM118.597 82.854C119.481 82.854 120.174 82.6287 120.677 82.178C121.197 81.7273 121.457 81.1207 121.457 80.358C121.457 79.6647 121.232 79.136 120.781 78.772C120.33 78.408 119.672 78.226 118.805 78.226H116.985V82.854H118.597ZM134.952 92.838C133.513 92.838 132.248 92.5347 131.156 91.928C130.064 91.3213 129.214 90.472 128.608 89.38C128.018 88.2707 127.724 86.9967 127.724 85.558V75.184H131.52V85.272C131.52 86.5547 131.823 87.5773 132.43 88.34C133.054 89.0853 133.894 89.458 134.952 89.458C136.009 89.458 136.85 89.0853 137.474 88.34C138.098 87.5773 138.41 86.5547 138.41 85.272V75.184H142.18V85.558C142.18 86.9967 141.876 88.2707 141.27 89.38C140.68 90.472 139.84 91.3213 138.748 91.928C137.656 92.5347 136.39 92.838 134.952 92.838ZM153.816 92.838C151.043 92.838 148.876 92.0927 147.316 90.602C145.756 89.1113 144.976 87.0053 144.976 84.284C144.976 82.4293 145.34 80.7913 146.068 79.37C146.814 77.9487 147.862 76.8567 149.214 76.094C150.566 75.314 152.126 74.924 153.894 74.924C155.333 74.924 156.72 75.184 158.054 75.704L157.352 79.058C156.174 78.5207 155.03 78.252 153.92 78.252C152.343 78.252 151.095 78.772 150.176 79.812C149.258 80.8347 148.798 82.204 148.798 83.92C148.798 85.6707 149.284 87.0313 150.254 88.002C151.225 88.9727 152.568 89.458 154.284 89.458C155.411 89.458 156.503 89.276 157.56 88.912L158.132 92.11C156.867 92.5953 155.428 92.838 153.816 92.838ZM168.37 92.838C165.597 92.838 163.43 92.0927 161.87 90.602C160.31 89.1113 159.53 87.0053 159.53 84.284C159.53 82.4293 159.894 80.7913 160.622 79.37C161.367 77.9487 162.416 76.8567 163.768 76.094C165.12 75.314 166.68 74.924 168.448 74.924C169.887 74.924 171.273 75.184 172.608 75.704L171.906 79.058C170.727 78.5207 169.583 78.252 168.474 78.252C166.897 78.252 165.649 78.772 164.73 79.812C163.811 80.8347 163.352 82.204 163.352 83.92C163.352 85.6707 163.837 87.0313 164.808 88.002C165.779 88.9727 167.122 89.458 168.838 89.458C169.965 89.458 171.057 89.276 172.114 88.912L172.686 92.11C171.421 92.5953 169.982 92.838 168.37 92.838ZM175.629 75.184H179.399V92.5H175.629V75.184ZM190.768 92.838C189.069 92.838 187.57 92.4653 186.27 91.72C184.97 90.9747 183.956 89.926 183.228 88.574C182.517 87.222 182.162 85.6707 182.162 83.92C182.162 82.152 182.517 80.592 183.228 79.24C183.938 77.888 184.944 76.8393 186.244 76.094C187.544 75.3487 189.052 74.976 190.768 74.976C192.466 74.976 193.966 75.3487 195.266 76.094C196.566 76.822 197.571 77.8533 198.282 79.188C198.992 80.5227 199.348 82.0653 199.348 83.816C199.348 85.6013 198.992 87.1787 198.282 88.548C197.571 89.9 196.566 90.9573 195.266 91.72C193.966 92.4653 192.466 92.838 190.768 92.838ZM190.768 89.536C192.189 89.536 193.324 89.0247 194.174 88.002C195.04 86.9793 195.474 85.6187 195.474 83.92C195.474 82.8107 195.274 81.8313 194.876 80.982C194.494 80.1153 193.94 79.4567 193.212 79.006C192.501 78.538 191.686 78.304 190.768 78.304C189.849 78.304 189.026 78.538 188.298 79.006C187.587 79.4567 187.032 80.1153 186.634 80.982C186.252 81.8313 186.062 82.8107 186.062 83.92C186.062 85.0293 186.252 86.0087 186.634 86.858C187.032 87.7073 187.587 88.366 188.298 88.834C189.008 89.302 189.832 89.536 190.768 89.536ZM189.962 72.48C190.638 71.9427 191.166 71.3707 191.548 70.764L190.872 69.386C190.872 68.918 191.045 68.502 191.392 68.138C191.738 67.774 192.172 67.592 192.692 67.592C193.229 67.592 193.68 67.7827 194.044 68.164C194.408 68.528 194.59 68.996 194.59 69.568C194.59 70.452 194.182 71.2493 193.368 71.96C192.553 72.6707 191.574 73.182 190.43 73.494L189.962 72.48ZM201.913 75.184H206.333L213.509 87.326V75.184H216.967V92.5H212.599L205.371 80.28V92.5H201.913V75.184Z" fill="black"/>
</g>

</svg>
