<svg width="60" height="61" viewBox="0 0 60 61" fill="none" xmlns="http://www.w3.org/2000/svg">
<path d="M26.4323 0C33.724 0 40.3364 2.96749 45.1266 7.73745C49.9163 12.5271 52.8635 19.1208 52.8635 26.4318C52.8635 31.7648 51.2736 36.7492 48.5585 40.8984L60 53.3684L52.1077 60.5827L41.074 48.4421C36.8853 51.2346 31.8422 52.864 26.4323 52.864C19.1405 52.864 12.5276 49.897 7.73794 45.1271C2.94776 40.3359 0 33.7428 0 26.4318C0 19.14 2.96699 12.5271 7.73794 7.73745C12.5276 2.94776 19.1213 0 26.4323 0ZM30.759 15.1372H23.804C23.7635 15.1372 23.7281 15.1525 23.698 15.1825C23.6728 15.2082 23.6526 15.2486 23.6526 15.289V16.8529H30.9054V15.289C30.9054 15.2486 30.8901 15.2131 30.8601 15.1825C30.8339 15.1574 30.7935 15.1372 30.7531 15.1372H30.759ZM14.0013 16.9012H21.6786V14.6999C21.6786 14.3656 21.8151 14.0673 22.033 13.8494C22.251 13.6315 22.5542 13.4949 22.8835 13.4949H31.6741C32.0083 13.4949 32.3066 13.6315 32.5255 13.8494C32.7419 14.0668 32.879 14.3705 32.879 14.6999V16.9012H40.5558C41.0266 16.9012 41.4511 17.0935 41.7558 17.4021C42.0649 17.7107 42.2567 18.1357 42.2567 18.6016V23.0013C40.3675 24.2847 38.4205 25.3831 36.412 26.2824C34.2067 27.2704 31.9255 28.0223 29.5644 28.5192V26.9317C29.5644 26.6078 29.4323 26.309 29.2203 26.0965C29.0078 25.884 28.709 25.7524 28.3851 25.7524H26.1734C25.85 25.7524 25.5512 25.884 25.3387 26.0965C25.1263 26.309 24.9946 26.6078 24.9946 26.9317V28.4847C22.6907 27.9877 20.4628 27.2477 18.3078 26.2824C16.2425 25.357 14.2419 24.2216 12.3023 22.8919V18.6016C12.3023 18.1313 12.4946 17.7058 12.8032 17.4021C13.1109 17.0935 13.5359 16.9012 14.0013 16.9012ZM42.2562 24.8674V36.304C42.2562 36.7748 42.0644 37.2003 41.7553 37.504C41.4462 37.8131 41.0217 38.0049 40.5553 38.0049H14.0013C13.5309 38.0049 13.1059 37.8131 12.8017 37.504C12.4931 37.1949 12.3008 36.7704 12.3008 36.304V24.7644C14.0151 25.8732 15.7786 26.8385 17.5954 27.6525C19.915 28.6913 22.3195 29.4821 24.8142 30.0062C24.8743 30.0185 24.9345 30.0249 24.9931 30.0249V31.5981C24.9931 31.9215 25.1253 32.2203 25.3373 32.4328C25.5498 32.6458 25.8485 32.7764 26.1719 32.7764H28.3836C28.7075 32.7764 29.0063 32.6453 29.2188 32.4328C29.4313 32.2198 29.5629 31.9215 29.5629 31.5981V30.0101C29.6719 30.0308 29.7873 30.0308 29.9026 30.0067C32.3978 29.4826 34.8023 28.6918 37.1209 27.653C38.882 26.8641 40.5933 25.9333 42.2562 24.8674ZM43.0322 9.8318C38.7849 5.58542 32.9091 2.94776 26.4323 2.94776C19.955 2.94776 14.0792 5.58542 9.83229 9.8318C5.58542 14.0782 2.94776 19.955 2.94776 26.4318C2.94776 32.9086 5.58542 38.7849 9.83229 43.0322C14.0792 47.2786 19.955 49.9163 26.4323 49.9163C32.9091 49.9163 38.7849 47.2786 43.0322 43.0322C47.2786 38.7849 49.9163 32.9091 49.9163 26.4318C49.9163 19.9545 47.2786 14.0787 43.0322 9.8318Z" />
</svg>
