<svg width="50" height="48" viewbox="0 0 50 48" fill="none" xmlns="http://www.w3.org/2000/svg">
<path fill-rule="evenodd" clip-rule="evenodd" d="M29.7588 45.6758H17.168V1.59082H41.4062V24.8721C41.9482 24.9229 42.4785 25.0068 42.998 25.1221V1.39746C42.998 0.628906 42.3682 0 41.6006 0H16.9746C16.2061 0 15.5771 0.629883 15.5771 1.39746V13.3057H1.16992C0.52832 13.3057 0 13.835 0 14.4766V46.4707C0 46.9102 0.356445 47.2666 0.795898 47.2666L31.166 47.2598L30.9609 47.0596C30.5283 46.627 30.1266 46.1646 29.7588 45.6758ZM40.1748 28.0205C45.5996 28.0205 50 32.4209 50 37.8457C50 43.2705 45.5996 47.6709 40.1748 47.6709C34.749 47.6709 30.3486 43.2705 30.3486 37.8457C30.3486 32.4209 34.749 28.0205 40.1748 28.0205ZM45.3477 36.8496V38.8408C45.3471 39.0365 45.2692 39.2239 45.1308 39.3623C44.9925 39.5006 44.805 39.5786 44.6094 39.5791H41.9082V42.2803C41.9077 42.4762 41.8296 42.6639 41.6911 42.8024C41.5526 42.941 41.3648 43.019 41.1689 43.0195H39.1787C38.7715 43.0166 38.4414 42.6875 38.4414 42.2803V39.5791H35.7383C35.332 39.5781 35.002 39.2471 35.001 38.8408V36.8496C35.0029 36.4434 35.332 36.1133 35.7383 36.1123H38.4414V33.4102C38.4424 33.0039 38.7725 32.6748 39.1787 32.6729H41.1689C41.5762 32.6729 41.9062 33.0029 41.9082 33.4102V36.1123H44.6094C45.0156 36.1133 45.3457 36.4424 45.3477 36.8496ZM1.59082 45.6758V14.8965H15.5771V45.6758H1.59082ZM34.0732 26.3301H31.2227L31.2109 26.3311H31.209L31.1973 26.333H31.1953L31.1836 26.335H31.1816L31.1699 26.3389H31.1689L31.1582 26.3418H31.1562L31.1445 26.3457H31.1436L31.1328 26.3506H31.1309C31.0332 26.3926 30.9648 26.5088 30.9648 26.6025V28.6289C31.877 27.7178 32.9238 26.9404 34.0732 26.3301ZM31.1309 17.208C31.0332 17.25 30.9648 17.3652 30.9648 17.459V21.8789C30.9648 21.9736 31.0332 22.0889 31.1309 22.1309H31.1328L31.1436 22.1357H31.1445L31.1562 22.1396H31.1582L31.1689 22.1426H31.1699L31.1816 22.1465H31.1836L31.1953 22.1484H31.1973L31.209 22.1504H31.2109L31.2227 22.1514H31.2246L31.2363 22.1523H36.4707C36.5431 22.1521 36.6124 22.1232 36.6634 22.0719C36.7145 22.0207 36.7432 21.9513 36.7432 21.8789V20.4209L36.7461 20.418V17.459C36.7461 17.3408 36.6699 17.2412 36.5645 17.2031L36.5537 17.1992H36.5518L36.541 17.1953H36.5391L36.5283 17.1924H36.5264L36.5146 17.1895H36.5117L36.501 17.1875H36.4844L36.4727 17.1865H31.2363L31.2246 17.1875H31.209L31.1973 17.1895H31.1953L31.1836 17.1924H31.1816L31.1699 17.1953H31.1689L31.1582 17.1992H31.1562L31.1445 17.2031H31.1436L31.1328 17.208H31.1309ZM27.1396 35.4736H21.9053C21.7764 35.4736 21.6328 35.6162 21.6328 35.7461V40.166C21.6328 40.2959 21.7559 40.4395 21.9053 40.4395H27.1396C27.2393 40.4395 27.3281 40.3848 27.375 40.3037C27.2227 39.5078 27.1436 38.6855 27.1436 37.8457C27.1436 37.0723 27.2109 36.3145 27.3408 35.5771C27.2832 35.5146 27.2021 35.4736 27.1396 35.4736ZM27.1396 26.3301H21.9053C21.7764 26.3301 21.6328 26.4727 21.6328 26.6025V31.0225C21.6328 31.1523 21.7559 31.2949 21.9053 31.2949H27.1396C27.29 31.2949 27.4121 31.1729 27.4121 31.0225V26.6025C27.4121 26.4521 27.248 26.3301 27.1396 26.3301ZM27.1396 17.1865H21.9053C21.7764 17.1865 21.6328 17.3301 21.6328 17.459V21.8789C21.6328 22.0088 21.7559 22.1523 21.9053 22.1523H27.1396C27.212 22.1521 27.2813 22.1232 27.3324 22.0719C27.3834 22.0207 27.4121 21.9513 27.4121 21.8789V17.459C27.4121 17.3086 27.248 17.1865 27.1396 17.1865ZM11.7236 31.3643H5.41797C5.34766 31.3643 5.28516 31.418 5.28516 31.4609V34.0518C5.28516 34.0947 5.35156 34.1484 5.41797 34.1484H11.7236C11.791 34.1484 11.8574 34.1055 11.8574 34.0518V31.4609C11.8574 31.4082 11.791 31.3643 11.7236 31.3643ZM37.8467 5.05176H20.7285C20.3809 5.05176 20.0928 5.34473 20.0928 5.68848V12.4521C20.0928 12.7959 20.3828 13.0889 20.7285 13.0889H37.8467C38.1934 13.0889 38.4834 12.8018 38.4834 12.4521V5.68848C38.4834 5.33887 38.1924 5.05176 37.8467 5.05176ZM11.7236 25.6953H5.41797C5.34766 25.6953 5.28516 25.749 5.28516 25.792V28.3828C5.28516 28.4258 5.35156 28.4795 5.41797 28.4795H11.7236C11.791 28.4795 11.8574 28.4355 11.8574 28.3828V25.792C11.8574 25.7383 11.791 25.6953 11.7236 25.6953ZM11.7236 20.0264H5.41797C5.34766 20.0264 5.28516 20.0791 5.28516 20.1221V22.7139C5.28516 22.7559 5.35156 22.8096 5.41797 22.8096H11.7236C11.791 22.8096 11.8574 22.7666 11.8574 22.7139V20.1221C11.8574 20.0693 11.791 20.0264 11.7236 20.0264Z" />
</svg>
