<svg width="100" height="84" viewbox="0 0 100 84" fill="none" xmlns="http://www.w3.org/2000/svg">
<path d="M50.9034 60.7742L27.226 37.0323C25.2905 35.1613 25.2905 32.1291 27.226 30.2581C29.097 28.3871 32.1293 28.3871 34.0002 30.2581L50.968 47.2258C49.097 45.3549 49.097 42.3226 50.968 40.4517C52.6454 38.7742 55.2905 38.5807 57.1615 39.9355C55.8067 38.0646 56.0002 35.4194 57.6776 33.742C59.4196 32 62.1938 31.871 64.0647 33.4194C62.5809 31.4839 62.7099 28.7742 64.4518 27.0323C66.3228 25.0968 69.3551 25.0968 71.226 27.0323L85.8712 41.6775C86.0862 41.8495 86.2583 42.0431 86.3873 42.2581L91.4841 47.2904C95.5486 51.3549 95.5486 58 91.4841 62.0646L79.1615 74.3226C75.9357 77.5484 71.1615 78.1936 67.2905 76.3226C67.1185 76.2796 66.9465 76.2366 66.7744 76.1936L39.8067 67.2258C37.2905 66.3871 35.9357 63.6129 36.7744 61.0968C37.6131 58.5807 40.3228 57.2259 42.8389 58.0646L50.9034 60.7742Z" fill="white"/>
<path fill-rule="evenodd" clip-rule="evenodd" d="M58.1286 27.4194C58.5802 25.871 59.4189 24.3871 60.6448 23.2258C64.6448 19.2258 71.0964 19.2258 75.0319 23.2258L89.677 37.871C89.9781 38.1291 90.2362 38.4086 90.4512 38.7097L95.2254 43.4839C101.419 49.6774 101.419 59.6774 95.2254 65.871L82.9673 78.1291C78.2577 82.8387 71.2254 83.9355 65.4835 81.4194C65.3114 81.3764 65.1609 81.3334 65.0319 81.2904L38.1286 72.3226C32.7738 70.5162 29.8706 64.7742 31.677 59.4194C32.5157 56.9033 34.1931 54.9678 36.3222 53.8065L23.4189 40.8387C19.4189 36.9032 19.4189 30.4516 23.4189 26.4516C27.3544 22.4516 33.806 22.4516 37.806 26.4516L47.6125 36.2581C48.7093 35.2258 49.9996 34.5162 51.3544 34.1291C51.806 32.5807 52.6448 31.1613 53.8706 29.9355C55.0964 28.7097 56.5802 27.871 58.1286 27.4194ZM42.8383 58.0645C40.3222 57.2258 37.6125 58.5807 36.7738 61.0968C35.9351 63.6129 37.2899 66.3871 39.806 67.2258L66.7738 76.1936C66.9458 76.2366 67.1179 76.2796 67.2899 76.3226C71.1609 78.1936 75.9351 77.5484 79.1609 74.3226L91.4835 62.0645C95.548 58 95.548 51.3549 91.4835 47.2904L86.3867 42.2581C86.2577 42.043 86.0856 41.8495 85.8706 41.6774L71.2254 27.0323C69.3544 25.0968 66.3222 25.0968 64.4512 27.0323C62.7093 28.7742 62.5802 31.4839 64.0641 33.4194C62.1931 31.871 59.419 32 57.677 33.742C55.9996 35.4194 55.806 38.0645 57.1609 39.9355C55.2899 38.5807 52.6448 38.7742 50.9673 40.4516C49.0964 42.3226 49.0964 45.3549 50.9673 47.2258L33.9996 30.2581C32.1286 28.3871 29.0964 28.3871 27.2254 30.2581C25.2899 32.1291 25.2899 35.1613 27.2254 37.0323L50.9028 60.7742L42.8383 58.0645Z" fill="black"/>
<path d="M20.4519 20.1291L11.7422 2.32264L19.5486 0.193604L20.4519 20.1291Z" fill="black"/>
<path d="M27.6777 19.9354L34.0003 7.54834L38.1939 10.5161L27.6777 19.9354Z" fill="black"/>
<path d="M16.7738 27.2903L0.386719 29.4193L3.03188 36.8387L16.7738 27.2903Z" fill="black"/>
<path d="M16.968 36.9032L12.7744 45.4193L17.1615 46.5161L16.968 36.9032Z" fill="black"/>
</svg>
