<svg width="50" height="51" viewBox="0 0 50 51" fill="none" xmlns="http://www.w3.org/2000/svg">
<path d="M20.5548 15.7031C20.5548 14.2764 21.7111 13.1191 23.1378 13.1191C24.5646 13.1191 25.7208 14.2764 25.7208 15.7031V26.5313L32.8829 29.6797C34.1876 30.2539 34.7794 31.7764 34.2052 33.0801C33.631 34.3838 32.1085 34.9756 30.8048 34.4024L22.2306 30.6328C21.2511 30.2656 20.5548 29.3213 20.5548 28.2139V15.7031ZM0.527466 16.459C0.453247 16.2393 0.407348 16.0059 0.394653 15.7627L0.00402811 8.58595C-0.0692141 7.16505 1.02454 5.95411 2.44543 5.88184C3.86633 5.8086 5.07727 6.90235 5.14954 8.32325L5.2218 9.65138C6.28605 8.28185 7.49087 7.02761 8.81653 5.90919C10.5714 4.42872 12.5646 3.16602 14.7745 2.18067C21.09 -0.636711 27.9435 -0.629875 33.9171 1.65821C39.8302 3.92384 44.8898 8.42286 47.7257 14.6299C47.8009 14.7647 47.8644 14.9072 47.9152 15.0557C50.6359 21.3115 50.6036 28.0762 48.3419 33.9824C46.0763 39.8955 41.5773 44.9551 35.3702 47.7901C34.9858 48.0055 34.5522 48.1182 34.1114 48.1172C32.6847 48.1172 31.5284 46.9609 31.5284 45.5342C31.5284 44.4111 32.2452 43.4561 33.2462 43.1006C33.9972 42.7559 34.7169 42.3711 35.4034 41.9483C35.4816 41.8838 35.5646 41.8233 35.6525 41.7666C36.7589 41.0518 37.8107 40.2334 38.7618 39.3213C38.8243 39.2617 38.8898 39.2051 38.9572 39.1533C40.9747 37.1514 42.5197 34.7529 43.5187 32.1455C45.3409 27.3897 45.3517 21.9443 43.1183 16.9385L43.1173 16.9356C40.8839 11.9297 36.8292 8.30079 32.0802 6.48145C27.3243 4.66017 21.879 4.64942 16.8732 6.88184C15.1663 7.64217 13.5751 8.63928 12.1466 9.84376C11.1837 10.6563 10.3107 11.5488 9.5343 12.5088L9.87122 12.4668C11.2863 12.294 12.5743 13.3018 12.7472 14.7168C12.92 16.1318 11.9122 17.4199 10.4972 17.5928L3.36243 18.4717C2.02844 18.6338 0.807739 17.7481 0.527466 16.459ZM27.6847 49.9512C29.7238 49.7227 30.6964 47.3213 29.3898 45.7363C28.8322 45.0596 27.9845 44.7266 27.1154 44.8164C25.5958 44.9873 24.0753 44.9844 22.5568 44.8037C21.6447 44.6953 20.755 45.0693 20.1945 45.7969C18.9874 47.4014 19.9454 49.6807 21.9347 49.9326C23.8468 50.1611 25.7706 50.166 27.6847 49.9512ZM11.2062 45.9795C11.9796 46.4932 12.9415 46.5518 13.7765 46.1494C15.5626 45.2647 15.7267 42.7891 14.0704 41.6807C12.8195 40.8555 11.6154 39.8291 10.5929 38.7354C9.65735 37.7393 8.12415 37.6367 7.06653 38.502C6.79339 38.7259 6.56909 39.0035 6.40753 39.3175C6.24596 39.6316 6.15055 39.9755 6.12721 40.3279C6.10387 40.6803 6.15309 41.0338 6.27182 41.3664C6.39056 41.699 6.57628 42.0038 6.8175 42.2617C8.12024 43.6485 9.61633 44.9317 11.2062 45.9795ZM1.0675 32.419C1.35266 33.3408 2.11438 34.0127 3.06067 34.1943C4.96887 34.5488 6.57727 32.7451 6.00305 30.8916C5.54797 29.4268 5.27161 27.9365 5.1593 26.4063C5.02649 24.6162 3.18567 23.5137 1.54016 24.2256C0.537231 24.6797 -0.067261 25.6699 0.00598123 26.7715C0.144653 28.6914 0.496216 30.5801 1.0675 32.419Z" />
</svg>
