<svg width="960" height="960" viewbox="0 0 960 960" fill="none" xmlns="http://www.w3.org/2000/svg">
<path d="M0 130C0 58.203 58.203 0 130 0H830C901.797 0 960 58.203 960 130V830C960 901.797 901.797 960 830 960H130C58.203 960 0 901.797 0 830V130Z" fill="#8F2492"/>
<path d="M663.686 250H296.314C259.661 250 230 281.992 230 321.398V638.771C230 678.178 259.661 710.17 296.314 710.17H663.686C700.339 710.17 730 678.178 730 638.771V321.398C730 281.992 700.339 250 663.686 250ZM687.627 436.653C585.085 441.949 576.398 532.627 515.381 535.381C452.669 538.136 433.39 467.373 391.017 466.525C348.856 463.983 314.11 506.356 272.373 522.034V321.398C272.373 307.203 283.178 295.763 296.314 295.763H663.686C676.822 295.763 687.627 307.203 687.627 321.398V436.653ZM328.729 358.475C328.729 331.78 348.856 309.958 373.644 309.958C398.432 309.958 418.771 331.78 418.771 358.475C418.771 385.169 398.644 406.992 373.856 406.992C349.068 406.992 328.729 385.381 328.729 358.475Z" fill="white"/>
</svg>
