<svg width="960" height="960" viewbox="0 0 960 960" fill="none" xmlns="http://www.w3.org/2000/svg">
<path d="M0 130C0 58.203 58.203 0 130 0H830C901.797 0 960 58.203 960 130V830C960 901.797 901.797 960 830 960H130C58.203 960 0 901.797 0 830V130Z" fill="#1F635B"/>
<path d="M479.708 571.257C563.405 571.257 631.46 493.707 631.46 398.128C631.46 302.55 563.405 225 479.708 225C396.012 225 327.957 302.55 327.957 398.128C327.957 493.46 396.012 571.257 479.708 571.257ZM479.708 261.552C540.08 261.552 591.121 324.036 591.121 398.128C591.121 472.22 540.08 534.705 479.708 534.705C419.337 534.705 368.296 472.22 368.296 398.128C368.296 324.036 419.337 261.552 479.708 261.552Z" fill="white"/>
<path d="M197.336 601.882L156.997 711.044C155.076 716.724 155.899 722.652 159.741 727.344C163.583 732.037 169.62 735 176.206 735H783.486C790.072 735 796.109 732.284 799.951 727.344C803.793 722.652 804.891 716.477 802.695 711.044L762.082 601.635C759.886 595.954 754.947 591.509 748.361 589.78L606.763 553.228C601.824 551.993 596.61 552.487 592.219 554.463L479.709 605.339L367.473 554.71C362.808 552.734 357.869 552.24 352.929 553.475L211.331 590.027C204.471 591.756 199.531 596.201 197.336 601.882ZM356.222 590.768L470.653 642.138C476.416 644.608 483.002 644.608 488.765 642.138L603.196 590.768L726.957 622.627L755.221 698.695H204.196L232.461 622.627L356.222 590.768Z" fill="white"/>
</svg>
