<svg width="171" height="207" viewBox="0 0 171 207" fill="none" xmlns="http://www.w3.org/2000/svg">
<path d="M121.73 118.798L137.906 118.445C148.729 118.209 159.436 117.973 170.259 117.737C159.436 117.383 148.729 117.147 137.906 116.912L121.73 116.558L105.554 116.322H104.739L104.274 117.147L85.6534 158.536L69.5935 194.855L60.5162 163.96L49.6932 127.76L49.2277 126.227H47.5984L41.4304 126.345C40.7322 124.34 40.1503 122.454 39.5684 120.803C38.521 117.855 37.59 115.497 37.0081 113.846C36.3099 112.077 35.9608 111.134 35.9608 111.134C35.9608 111.134 36.1935 112.195 36.5426 113.964C37.0081 115.732 37.4737 118.209 38.2883 121.157C38.7538 122.729 39.2193 124.458 39.6848 126.345H27.1162H21.9956H19.4353C18.7371 126.345 17.9224 126.345 17.2242 126.227C14.1984 125.755 11.4054 124.34 9.19421 122.336C6.86668 120.213 5.23741 117.501 4.53916 114.435C4.3064 113.728 4.3064 113.138 4.19003 112.313L4.07365 111.016C4.07365 110.78 4.07365 110.19 4.07365 109.719L3.95727 104.53L3.72452 83.777C3.49177 69.9808 3.49177 56.0666 3.14264 42.2703C2.90989 28.4741 2.67714 14.5599 2.21163 0.763672C1.74612 14.5599 1.62975 28.4741 1.28062 42.2703C0.931491 56.0666 0.931491 69.9808 0.698738 83.777L0.465986 104.53L0.349609 109.719C0.349609 110.308 0.349609 110.544 0.349609 111.134V112.431C0.465986 113.374 0.582362 114.435 0.815115 115.379C1.74612 119.152 3.72452 122.572 6.51755 125.166C9.19421 127.878 12.8019 129.647 16.6423 130.236C17.5733 130.354 18.5043 130.354 19.4353 130.472H21.9956H27.1162L40.7322 130.59C40.8098 130.826 40.8874 131.062 40.9649 131.297C42.0123 134.953 43.1761 138.962 44.2235 142.853C45.5036 146.745 46.6674 150.636 47.8311 154.291C48.9949 157.947 50.1587 161.366 51.2061 164.314C52.1371 167.144 53.0681 169.502 53.7663 171.271C54.3482 172.922 54.6973 173.865 54.6973 173.865C54.6973 173.865 54.4646 172.922 54.1155 171.153C53.7663 169.385 53.1845 166.908 52.3698 163.842C51.6716 160.894 50.7406 157.475 49.8095 153.702C48.7622 150.046 47.5984 146.155 46.4346 142.146C45.2709 138.255 44.1071 134.363 42.827 130.708C42.827 130.629 42.827 130.59 42.827 130.59H46.0855L56.2102 165.375L67.1496 201.576L68.8953 207L71.1064 201.812L89.1447 160.069L106.368 119.034L121.73 118.798Z" fill="#3A261B"/>
</svg>
