<svg width="474" height="513" viewbox="0 0 474 513" fill="none" xmlns="http://www.w3.org/2000/svg">
<path fill-rule="evenodd" clip-rule="evenodd" d="M33.77 310.73H440.23C458.8 310.73 474 325.98 474 344.5V478.75C474 497.27 458.75 512.52 440.23 512.52H33.77C15.25 512.52 0 497.32 0 478.75V344.5C0 325.93 15.2 310.73 33.77 310.73ZM137.47 106.78H148.47V91.77C148.47 66.67 158.36 43.78 174.3 27.17C190.37 10.41 212.56 0 237 0C261.44 0 283.65 10.4 299.71 27.17C315.66 43.78 325.55 66.65 325.55 91.77V106.78H336.54C344.49 106.78 350.99 113.29 350.99 121.24V264.09C350.99 272.03 344.49 278.53 336.54 278.53H137.47C129.51 278.53 123.03 272.03 123.03 264.09V121.24C123.01 113.29 129.51 106.78 137.47 106.78ZM225.55 199.16L210.51 238.55H263.48L249.55 198.6C258.39 194.06 264.44 184.85 264.44 174.21C264.44 159.05 252.16 146.78 236.99 146.78C221.84 146.78 209.56 159.05 209.56 174.21C209.56 185.28 216.11 194.81 225.55 199.16ZM175.81 106.78H298.19V91.77C298.19 73.92 291.23 57.75 280.04 46.07C268.97 34.53 253.74 27.35 237 27.35C220.27 27.35 205.02 34.53 193.96 46.07C182.76 57.75 175.81 73.92 175.81 91.77V106.78ZM355.22 376.43C355.22 370.28 360.2 365.29 366.36 365.29C372.51 365.29 377.49 370.28 377.49 376.43V390.83L389.44 382.84C394.53 379.44 401.43 380.79 404.84 385.89C408.26 390.98 406.89 397.88 401.8 401.29L386.38 411.59L401.81 421.85C406.92 425.23 408.33 432.14 404.94 437.25C401.56 442.37 394.65 443.76 389.54 440.38L377.49 432.38V446.83C377.49 452.98 372.51 457.97 366.36 457.97C360.2 457.97 355.22 452.98 355.22 446.83V432.43L343.28 440.42C338.18 443.82 331.29 442.46 327.87 437.37C324.46 432.28 325.82 425.38 330.92 421.96L346.33 411.66L330.91 401.41C325.79 398.03 324.39 391.12 327.78 386.01C331.16 380.89 338.06 379.49 343.17 382.87L355.22 390.88V376.43ZM96.51 376.43C96.51 370.28 101.49 365.29 107.64 365.29C113.79 365.29 118.78 370.28 118.78 376.43V390.83L130.72 382.84C135.82 379.44 142.71 380.79 146.13 385.89C149.54 390.98 148.18 397.88 143.08 401.29L127.67 411.59L143.1 421.85C148.21 425.23 149.61 432.14 146.22 437.25C142.84 442.37 135.94 443.76 130.82 440.38L118.78 432.38V446.83C118.78 452.98 113.79 457.97 107.64 457.97C101.49 457.97 96.51 452.98 96.51 446.83V432.43L84.56 440.42C79.47 443.82 72.57 442.46 69.16 437.37C65.74 432.28 67.11 425.38 72.21 421.96L87.62 411.66L72.19 401.41C67.08 398.03 65.68 391.12 69.07 386.01C72.45 380.89 79.35 379.49 84.46 382.87L96.51 390.88V376.43ZM225.86 376.43C225.86 370.28 230.85 365.29 237 365.29C243.15 365.29 248.14 370.28 248.14 376.43V390.83L260.08 382.84C265.17 379.44 272.07 380.79 275.49 385.89C278.9 390.98 277.53 397.88 272.44 401.29L257.03 411.59L272.45 421.85C277.57 425.23 278.97 432.14 275.58 437.25C272.2 442.37 265.29 443.76 260.18 440.38L248.14 432.38V446.83C248.14 452.98 243.15 457.97 237 457.97C230.85 457.97 225.86 452.98 225.86 446.83V432.43L213.92 440.42C208.83 443.82 201.93 442.46 198.52 437.37C195.1 432.28 196.47 425.38 201.56 421.96L216.98 411.66L201.55 401.41C196.44 398.03 195.03 391.12 198.42 386.01C201.8 380.89 208.71 379.49 213.82 382.87L225.86 390.88V376.43Z"/>
</svg>
