<svg width="960" height="960" viewbox="0 0 960 960" fill="none" xmlns="http://www.w3.org/2000/svg">
<path d="M0 130C0 58.203 58.203 0 130 0H830C901.797 0 960 58.203 960 130V830C960 901.797 901.797 960 830 960H130C58.203 960 0 901.797 0 830V130Z" fill="#926624"/>
<path fill-rule="evenodd" clip-rule="evenodd" d="M501.358 784.024C581.641 772.418 652.854 719.917 694.067 653.617C690.778 653.119 687.489 652.173 684.3 650.828C674.034 646.345 666.658 637.977 663.12 628.214C660.13 621.24 649.665 613.17 639.449 605.25C610.445 582.835 582.339 561.018 588.468 510.459C589.764 499.949 593.252 489.139 598.485 479.277L560.561 409.59C558.368 405.555 556.973 401.321 556.275 397.038C555.827 396.141 555.378 395.294 555.029 394.398C544.165 400.425 532.454 406.303 519.298 410.437C450.527 432.055 403.682 401.122 457.703 330.141C494.63 281.624 413.151 237.69 340.941 286.705C281.887 326.704 230.906 414.522 230.009 511.106C228.764 650.878 351.306 805.692 501.358 784.024ZM711.559 604.503C696.011 563.259 632.921 554.243 638.95 504.531C640.545 491.381 648.519 477.135 660.13 469.414C664.815 466.326 670.047 464.234 675.678 463.735C678.17 463.536 680.712 463.536 683.353 463.885C715.994 468.069 730.197 502.19 729.998 531.778C729.799 559.075 719.433 586.322 711.559 604.503ZM671.542 347.923C646.077 350.065 623.004 356.74 602.522 368.396L572.621 204.316C569.631 191.315 569.432 181.752 583.983 174.629C589.614 173.433 594.448 173.931 598.385 176.223C602.272 178.464 605.312 182.399 607.455 188.128L671.542 347.923ZM681.459 442.815C671.841 441.868 655.894 444.757 646.774 453.424L607.256 380.849C629.382 368.296 652.256 360.227 676.476 359.828C678.27 394.547 676.476 407.648 681.459 442.815ZM309.097 449.888C321.954 466.077 345.526 468.816 361.722 455.915C377.918 443.014 380.659 419.503 367.752 403.314C354.894 387.125 331.373 384.385 315.127 397.287C298.93 410.088 296.239 433.649 309.097 449.888ZM537.338 658.599C551.74 676.73 578.202 679.769 596.392 665.373C614.631 650.928 617.671 624.478 603.269 606.296C568.883 563.06 502.952 615.262 537.338 658.599ZM397.353 700.54C414.945 722.706 447.188 726.392 469.364 708.809C491.54 691.225 495.228 658.997 477.637 636.831C460.045 614.665 427.802 610.979 405.626 628.562C383.45 646.146 379.762 678.374 397.353 700.54ZM297.087 588.563C312.286 607.741 340.243 610.929 359.429 595.736C378.616 580.544 381.855 552.649 366.606 533.422C351.406 514.244 323.449 511.057 304.263 526.249C285.076 541.491 281.887 569.386 297.087 588.563Z" fill="white"/>
</svg>
