<svg width="295" height="418" viewbox="0 0 295 418" fill="none" xmlns="http://www.w3.org/2000/svg">
<path fill-rule="evenodd" clip-rule="evenodd" d="M94.3408 327.713C109.335 351.604 125.551 380.551 141.563 408.684C147.499 419.068 152.859 420.629 159.983 408.31C175.452 381.467 190.65 353.674 206.662 327.747C255.275 249.051 334.826 172.323 271.558 66.4097C215.38 -27.6257 62.5883 -17.5807 16.8932 69.973C-35.4849 170.32 46.305 251.223 94.3408 327.713Z" fill="#EA4335"/>
<path fill-rule="evenodd" clip-rule="evenodd" d="M147.432 86.8389C179.015 86.8389 204.627 112.46 204.627 144.054C204.627 175.648 179.015 201.27 147.432 201.27C115.849 201.27 90.2363 175.648 90.2363 144.054C90.2363 112.46 115.849 86.8389 147.432 86.8389Z" fill="#A60D0D"/>
</svg>
