<svg width="145" height="178" viewbox="0 0 145 178" fill="none" xmlns="http://www.w3.org/2000/svg">
<path fill-rule="evenodd" clip-rule="evenodd" d="M9.29632 67.9198H16.2816V58.3724C16.2816 42.407 22.5619 27.8473 32.6842 17.2821C42.8889 6.62152 56.9801 0 72.5 0C88.0199 0 102.124 6.61516 112.322 17.2821C122.451 27.8473 128.731 42.3942 128.731 58.3724V67.9198H135.71C140.758 67.9198 144.886 72.0607 144.886 77.1175V167.98C144.886 173.031 140.758 177.165 135.71 177.165H9.29632C4.24156 177.165 0.126616 173.031 0.126616 167.98V77.1175C0.113916 72.0607 4.24156 67.9198 9.29632 67.9198ZM65.229 126.68L55.6783 151.735H89.3153L80.4695 126.324C86.0831 123.436 89.9249 117.578 89.9249 110.81C89.9249 101.167 82.1269 93.3627 72.4936 93.3627C62.8731 93.3627 55.075 101.167 55.075 110.81C55.075 117.852 59.2344 123.913 65.229 126.68ZM33.643 67.9198H111.357V58.3724C111.357 47.0185 106.937 36.7332 99.8313 29.3039C92.8016 21.9636 83.1302 17.3966 72.5 17.3966C61.8761 17.3966 52.192 21.9636 45.1687 29.3039C38.0564 36.7332 33.643 47.0185 33.643 58.3724V67.9198Z" />
</svg>
