<svg width="258" height="206" viewBox="0 0 258 206" fill="none" xmlns="http://www.w3.org/2000/svg">
<rect width="258" height="206" rx="30" />
<g clip-path="url(#clip0_5436_802)">
<path d="M80.6802 67.23H136.14C135.16 69.3842 134.39 71.6279 133.84 73.93H81.7402V143.78H180.46V118.65C182.773 117.987 185.017 117.103 187.16 116.01V144.88C187.165 145.623 187.022 146.36 186.739 147.046C186.455 147.733 186.038 148.357 185.51 148.88C185.421 148.979 185.321 149.066 185.21 149.14C184.187 150.058 182.855 150.558 181.48 150.54H80.6402C79.8968 150.542 79.1603 150.397 78.4736 150.112C77.7869 149.827 77.1637 149.408 76.6402 148.88C75.584 147.817 74.9909 146.379 74.9902 144.88V72.88C74.9902 72.1398 75.1362 71.4069 75.4197 70.7232C75.7033 70.0395 76.1189 69.4184 76.6428 68.8955C77.1666 68.3725 77.7884 67.958 78.4727 67.6757C79.1569 67.3933 79.8901 67.2487 80.6302 67.25L80.6802 67.23ZM170.19 55C175.668 54.998 181.023 56.6206 185.578 59.6624C190.133 62.7043 193.684 67.0288 195.781 72.0889C197.878 77.149 198.427 82.7173 197.359 88.0896C196.291 93.4619 193.653 98.3967 189.78 102.27C185.907 106.143 180.972 108.78 175.6 109.848C170.228 110.917 164.659 110.367 159.599 108.27C154.539 106.173 150.215 102.623 147.173 98.0675C144.131 93.5124 142.508 88.1574 142.51 82.68C142.51 75.3388 145.427 68.2983 150.618 63.1073C155.809 57.9163 162.849 55 170.19 55ZM166.19 96H174.26C175.03 96 175.769 95.6948 176.314 95.1512C176.86 94.6076 177.168 93.87 177.17 93.1V83.91H182.29C182.69 83.9281 183.087 83.8462 183.447 83.6715C183.807 83.4969 184.117 83.2351 184.35 82.91C185.42 81.3 183.96 79.71 182.93 78.58C180 75.44 173.47 69.69 172 68C171.78 67.7194 171.5 67.4924 171.179 67.3363C170.859 67.1802 170.507 67.0991 170.15 67.0991C169.794 67.0991 169.442 67.1802 169.121 67.3363C168.801 67.4924 168.52 67.7194 168.3 68C166.86 69.73 160 75.83 157.2 78.92C156.2 79.99 155.06 81.46 156.06 82.92C156.288 83.2359 156.589 83.4918 156.937 83.666C157.286 83.8402 157.671 83.9273 158.06 83.92H163.21V93.15C163.226 93.9201 163.546 94.6525 164.101 95.1867C164.656 95.7209 165.4 96.0134 166.17 96H166.19ZM104 86.78C105.603 86.778 107.171 87.2517 108.504 88.1409C109.838 89.0302 110.877 90.2952 111.492 91.7756C112.106 93.2561 112.267 94.8856 111.955 96.4578C111.643 98.03 110.871 99.4742 109.738 100.608C108.604 101.741 107.16 102.513 105.588 102.825C104.016 103.137 102.386 102.976 100.906 102.362C99.4254 101.747 98.1604 100.707 97.2712 99.3739C96.3819 98.0403 95.9083 96.4729 95.9102 94.87C95.9102 92.7244 96.7626 90.6667 98.2797 89.1495C99.7969 87.6323 101.855 86.78 104 86.78ZM138 121.51L144.68 110C150.125 115.097 156.973 118.444 164.34 119.61L171.41 137.81H91.1602V131.63L97.9002 131.29L104.64 114.77L108 126.57H118.13L126.9 104L138 121.51Z" fill="white"/>
</g>
<defs>
<clipPath id="clip0_5436_802">
<rect width="122.88" height="95.52" fill="white" transform="translate(75 55)"/>
</clipPath>
</defs>
</svg>
