<svg width="14" height="25" viewbox="0 0 14 25" fill="none" xmlns="http://www.w3.org/2000/svg">
<g clip-path="url(#clip0_5635_1117)">
<path d="M5.46875 16.7453L2.58125 24.717L4.025 16.2736L5.46875 16.7453Z" fill="#322F40"/>
<path d="M0.349515 13.5377C-0.175485 15.2359 1.39952 17.3585 3.89327 18.2547C6.38702 19.1509 8.83702 18.4906 9.36202 16.8396C9.88702 15.1415 8.31201 13.0189 5.81827 12.1226C3.28077 11.2264 0.874516 11.8868 0.349515 13.5377Z" fill="#BE1622"/>
<path opacity="0.2" d="M1.75 16.8868C1.75 16.8868 0.21875 15.9906 0.21875 14.2453C0.2625 12.5 1.96875 12.0283 1.96875 12.0283C1.96875 12.0283 -0.7 14.2925 1.75 16.8868Z" fill="white"/>
<path d="M12.0312 8.53774L7.7875 16.7925C7.7875 16.7925 4.15625 18.3491 1.88125 14.717L2.40625 5.18868L12.0312 8.53774Z" fill="#E6332A"/>
<path d="M13.9999 6.32076C13.9999 6.32076 14.0437 9.29245 11.6374 10.5189C9.27495 11.7453 5.5562 11.2264 3.2812 9.15094C1.48745 7.5 1.22495 5.80189 1.22495 5C1.22495 4.19811 1.39995 3.4434 1.39995 3.4434L13.9999 6.32076Z" fill="#BE1622"/>
<path d="M1.53112 2.78302C0.787374 5.09434 2.97487 7.92453 6.38737 9.15094C9.79987 10.3774 13.1686 9.5283 13.8686 7.21698C14.5686 4.90566 12.3811 2.07547 8.96862 0.849054C5.55612 -0.424531 2.23112 0.471695 1.53112 2.78302Z" fill="#E6332A"/>
<path opacity="0.2" d="M3.71836 7.5C3.71836 7.5 1.04961 6.08491 1.48711 3.11321C1.88086 1.2815e-06 6.25586 0.28302 6.25586 0.28302C6.25586 0.28302 0.0433602 2.26415 3.71836 7.5Z" fill="white"/>
</g>
<defs>
<clipPath id="clip0_5635_1117">
<rect width="14" height="25" fill="white" transform="matrix(-1 0 0 1 14 0)"/>
</clipPath>
</defs>
</svg>
