<svg width="262" height="88" viewBox="0 0 262 88" fill="none" xmlns="http://www.w3.org/2000/svg">
<g clip-path="url(#clip0_5505_1088)">
<path d="M31.5283 70.6651H30.8651L30.4188 71.1557C25.5195 76.5413 18.3062 82.4912 7.54354 86.2813C7.67592 86.034 7.81669 85.7753 7.96393 85.5047C9.72537 82.2677 12.4143 77.326 12.7625 69.7994L12.8064 68.85L11.9666 68.4048C5.75674 65.1128 1.5 58.5276 1.5 51.0247V21.1404C1.5 10.3439 10.3288 1.5 21.0925 1.5H240.908C251.671 1.5 260.5 10.3439 260.5 21.1404V51.0247C260.5 61.8212 251.671 70.6651 240.908 70.6651H31.5283Z" fill="#DBDBDB" stroke="#3A261B" stroke-width="3"/>
<path d="M38.2325 32.68C38.7392 32.68 39.1525 32.84 39.4725 33.16C39.8059 33.4667 39.9725 33.8533 39.9725 34.32C39.9725 34.7867 39.8059 35.18 39.4725 35.5C39.1525 35.8067 38.7392 35.96 38.2325 35.96C37.7392 35.96 37.3325 35.8067 37.0125 35.5C36.6925 35.18 36.5325 34.7867 36.5325 34.32C36.5325 33.8533 36.6925 33.4667 37.0125 33.16C37.3325 32.84 37.7392 32.68 38.2325 32.68ZM36.9325 47.26C35.5459 47.26 34.4259 46.88 33.5725 46.12C32.7325 45.3733 32.3125 44.34 32.3125 43.02C32.3125 41.7133 32.7325 40.72 33.5725 40.04C34.4125 39.3467 35.5259 39 36.9125 39L36.9925 37.46H39.4525L39.5525 40.86H38.6525C37.4792 40.86 36.5792 41.0133 35.9525 41.32C35.3259 41.6267 35.0192 42.2 35.0325 43.04C35.0325 43.6267 35.1992 44.0867 35.5325 44.42C35.8792 44.7533 36.3459 44.92 36.9325 44.92C37.5459 44.92 38.0192 44.7533 38.3525 44.42C38.6992 44.0867 38.8725 43.6267 38.8725 43.04H41.5125C41.5259 43.8533 41.3525 44.58 40.9925 45.22C40.6325 45.86 40.0992 46.36 39.3925 46.72C38.6992 47.08 37.8792 47.26 36.9325 47.26ZM53.6943 46.46L51.5743 43.92C50.9876 44.0667 50.3876 44.14 49.7743 44.14C48.4676 44.14 47.2676 43.8333 46.1743 43.22C45.0809 42.6067 44.2143 41.76 43.5743 40.68C42.9343 39.5867 42.6143 38.3533 42.6143 36.98C42.6143 35.62 42.9343 34.4 43.5743 33.32C44.2143 32.2267 45.0809 31.3733 46.1743 30.76C47.2676 30.1467 48.4676 29.84 49.7743 29.84C51.0943 29.84 52.2943 30.1467 53.3743 30.76C54.4676 31.3733 55.3276 32.2267 55.9543 33.32C56.5943 34.4 56.9143 35.62 56.9143 36.98C56.9143 38.22 56.6476 39.3533 56.1143 40.38C55.5943 41.3933 54.8809 42.22 53.9743 42.86L57.1743 46.46H53.6943ZM45.4943 36.98C45.4943 37.9133 45.6743 38.7333 46.0343 39.44C46.3943 40.1467 46.8943 40.6933 47.5343 41.08C48.1876 41.4533 48.9343 41.64 49.7743 41.64C50.6143 41.64 51.3543 41.4533 51.9943 41.08C52.6343 40.6933 53.1343 40.1467 53.4943 39.44C53.8543 38.7333 54.0343 37.9133 54.0343 36.98C54.0343 36.0467 53.8543 35.2333 53.4943 34.54C53.1343 33.8333 52.6343 33.2933 51.9943 32.92C51.3543 32.5467 50.6143 32.36 49.7743 32.36C48.9343 32.36 48.1876 32.5467 47.5343 32.92C46.8943 33.2933 46.3943 33.8333 46.0343 34.54C45.6743 35.2333 45.4943 36.0467 45.4943 36.98ZM69.1965 32.92V44H66.3765V42.6C66.0165 43.08 65.5431 43.46 64.9565 43.74C64.3831 44.0067 63.7565 44.14 63.0765 44.14C62.2098 44.14 61.4431 43.96 60.7765 43.6C60.1098 43.2267 59.5831 42.6867 59.1965 41.98C58.8231 41.26 58.6365 40.4067 58.6365 39.42V32.92H61.4365V39.02C61.4365 39.9 61.6565 40.58 62.0965 41.06C62.5365 41.5267 63.1365 41.76 63.8965 41.76C64.6698 41.76 65.2765 41.5267 65.7165 41.06C66.1565 40.58 66.3765 39.9 66.3765 39.02V32.92H69.1965ZM81.9591 38.22C81.9591 38.62 81.9324 38.98 81.8791 39.3H73.7791C73.8458 40.1 74.1258 40.7267 74.6191 41.18C75.1124 41.6333 75.7191 41.86 76.4391 41.86C77.4791 41.86 78.2191 41.4133 78.6591 40.52H81.6791C81.3591 41.5867 80.7458 42.4667 79.8391 43.16C78.9324 43.84 77.8191 44.18 76.4991 44.18C75.4324 44.18 74.4724 43.9467 73.6191 43.48C72.7791 43 72.1191 42.3267 71.6391 41.46C71.1724 40.5933 70.9391 39.5933 70.9391 38.46C70.9391 37.3133 71.1724 36.3067 71.6391 35.44C72.1058 34.5733 72.7591 33.9067 73.5991 33.44C74.4391 32.9733 75.4058 32.74 76.4991 32.74C77.5524 32.74 78.4924 32.9667 79.3191 33.42C80.1591 33.8733 80.8058 34.52 81.2591 35.36C81.7258 36.1867 81.9591 37.14 81.9591 38.22ZM79.0591 37.42C79.0458 36.7 78.7858 36.1267 78.2791 35.7C77.7724 35.26 77.1524 35.04 76.4191 35.04C75.7258 35.04 75.1391 35.2533 74.6591 35.68C74.1924 36.0933 73.9058 36.6733 73.7991 37.42H79.0591ZM78.6391 30L74.0391 32.1V30.1L78.6391 27.72V30ZM87.4485 38.42C87.4485 37.3 87.6685 36.3067 88.1085 35.44C88.5618 34.5733 89.1752 33.9067 89.9485 33.44C90.7218 32.9733 91.5818 32.74 92.5285 32.74C93.2485 32.74 93.9352 32.9 94.5885 33.22C95.2418 33.5267 95.7618 33.94 96.1485 34.46V29.2H98.9885V44H96.1485V42.36C95.8018 42.9067 95.3152 43.3467 94.6885 43.68C94.0618 44.0133 93.3352 44.18 92.5085 44.18C91.5752 44.18 90.7218 43.94 89.9485 43.46C89.1752 42.98 88.5618 42.3067 88.1085 41.44C87.6685 40.56 87.4485 39.5533 87.4485 38.42ZM96.1685 38.46C96.1685 37.78 96.0352 37.2 95.7685 36.72C95.5018 36.2267 95.1418 35.8533 94.6885 35.6C94.2352 35.3333 93.7485 35.2 93.2285 35.2C92.7085 35.2 92.2285 35.3267 91.7885 35.58C91.3485 35.8333 90.9885 36.2067 90.7085 36.7C90.4418 37.18 90.3085 37.7533 90.3085 38.42C90.3085 39.0867 90.4418 39.6733 90.7085 40.18C90.9885 40.6733 91.3485 41.0533 91.7885 41.32C92.2418 41.5867 92.7218 41.72 93.2285 41.72C93.7485 41.72 94.2352 41.5933 94.6885 41.34C95.1418 41.0733 95.5018 40.7 95.7685 40.22C96.0352 39.7267 96.1685 39.14 96.1685 38.46ZM111.723 38.22C111.723 38.62 111.696 38.98 111.643 39.3H103.543C103.61 40.1 103.89 40.7267 104.383 41.18C104.876 41.6333 105.483 41.86 106.203 41.86C107.243 41.86 107.983 41.4133 108.423 40.52H111.443C111.123 41.5867 110.51 42.4667 109.603 43.16C108.696 43.84 107.583 44.18 106.263 44.18C105.196 44.18 104.236 43.9467 103.383 43.48C102.543 43 101.883 42.3267 101.403 41.46C100.936 40.5933 100.703 39.5933 100.703 38.46C100.703 37.3133 100.936 36.3067 101.403 35.44C101.87 34.5733 102.523 33.9067 103.363 33.44C104.203 32.9733 105.17 32.74 106.263 32.74C107.316 32.74 108.256 32.9667 109.083 33.42C109.923 33.8733 110.57 34.52 111.023 35.36C111.49 36.1867 111.723 37.14 111.723 38.22ZM108.823 37.42C108.81 36.7 108.55 36.1267 108.043 35.7C107.536 35.26 106.916 35.04 106.183 35.04C105.49 35.04 104.903 35.2533 104.423 35.68C103.956 36.0933 103.67 36.6733 103.563 37.42H108.823ZM117.707 44.18C116.8 44.18 115.987 44.02 115.267 43.7C114.547 43.3667 113.973 42.92 113.547 42.36C113.133 41.8 112.907 41.18 112.867 40.5H115.687C115.74 40.9267 115.947 41.28 116.307 41.56C116.68 41.84 117.14 41.98 117.687 41.98C118.22 41.98 118.633 41.8733 118.927 41.66C119.233 41.4467 119.387 41.1733 119.387 40.84C119.387 40.48 119.2 40.2133 118.827 40.04C118.467 39.8533 117.887 39.6533 117.087 39.44C116.26 39.24 115.58 39.0333 115.047 38.82C114.527 38.6067 114.073 38.28 113.687 37.84C113.313 37.4 113.127 36.8067 113.127 36.06C113.127 35.4467 113.3 34.8867 113.647 34.38C114.007 33.8733 114.513 33.4733 115.167 33.18C115.833 32.8867 116.613 32.74 117.507 32.74C118.827 32.74 119.88 33.0733 120.667 33.74C121.453 34.3933 121.887 35.28 121.967 36.4H119.287C119.247 35.96 119.06 35.6133 118.727 35.36C118.407 35.0933 117.973 34.96 117.427 34.96C116.92 34.96 116.527 35.0533 116.247 35.24C115.98 35.4267 115.847 35.6867 115.847 36.02C115.847 36.3933 116.033 36.68 116.407 36.88C116.78 37.0667 117.36 37.26 118.147 37.46C118.947 37.66 119.607 37.8667 120.127 38.08C120.647 38.2933 121.093 38.6267 121.467 39.08C121.853 39.52 122.053 40.1067 122.067 40.84C122.067 41.48 121.887 42.0533 121.527 42.56C121.18 43.0667 120.673 43.4667 120.007 43.76C119.353 44.04 118.587 44.18 117.707 44.18ZM134.365 38.22C134.365 38.62 134.338 38.98 134.285 39.3H126.185C126.252 40.1 126.532 40.7267 127.025 41.18C127.518 41.6333 128.125 41.86 128.845 41.86C129.885 41.86 130.625 41.4133 131.065 40.52H134.085C133.765 41.5867 133.152 42.4667 132.245 43.16C131.338 43.84 130.225 44.18 128.905 44.18C127.838 44.18 126.878 43.9467 126.025 43.48C125.185 43 124.525 42.3267 124.045 41.46C123.578 40.5933 123.345 39.5933 123.345 38.46C123.345 37.3133 123.578 36.3067 124.045 35.44C124.512 34.5733 125.165 33.9067 126.005 33.44C126.845 32.9733 127.812 32.74 128.905 32.74C129.958 32.74 130.898 32.9667 131.725 33.42C132.565 33.8733 133.212 34.52 133.665 35.36C134.132 36.1867 134.365 37.14 134.365 38.22ZM131.465 37.42C131.452 36.7 131.192 36.1267 130.685 35.7C130.178 35.26 129.558 35.04 128.825 35.04C128.132 35.04 127.545 35.2533 127.065 35.68C126.598 36.0933 126.312 36.6733 126.205 37.42H131.465ZM135.389 38.42C135.389 37.3 135.609 36.3067 136.049 35.44C136.502 34.5733 137.109 33.9067 137.869 33.44C138.642 32.9733 139.502 32.74 140.449 32.74C141.276 32.74 141.996 32.9067 142.609 33.24C143.236 33.5733 143.736 33.9933 144.109 34.5V32.92H146.929V44H144.109V42.38C143.749 42.9 143.249 43.3333 142.609 43.68C141.982 44.0133 141.256 44.18 140.429 44.18C139.496 44.18 138.642 43.94 137.869 43.46C137.109 42.98 136.502 42.3067 136.049 41.44C135.609 40.56 135.389 39.5533 135.389 38.42ZM144.109 38.46C144.109 37.78 143.976 37.2 143.709 36.72C143.442 36.2267 143.082 35.8533 142.629 35.6C142.176 35.3333 141.689 35.2 141.169 35.2C140.649 35.2 140.169 35.3267 139.729 35.58C139.289 35.8333 138.929 36.2067 138.649 36.7C138.382 37.18 138.249 37.7533 138.249 38.42C138.249 39.0867 138.382 39.6733 138.649 40.18C138.929 40.6733 139.289 41.0533 139.729 41.32C140.182 41.5867 140.662 41.72 141.169 41.72C141.689 41.72 142.176 41.5933 142.629 41.34C143.082 41.0733 143.442 40.7 143.709 40.22C143.976 39.7267 144.109 39.14 144.109 38.46ZM153.604 44.18C152.697 44.18 151.884 44.02 151.164 43.7C150.444 43.3667 149.87 42.92 149.444 42.36C149.03 41.8 148.804 41.18 148.764 40.5H151.584C151.637 40.9267 151.844 41.28 152.204 41.56C152.577 41.84 153.037 41.98 153.584 41.98C154.117 41.98 154.53 41.8733 154.824 41.66C155.13 41.4467 155.284 41.1733 155.284 40.84C155.284 40.48 155.097 40.2133 154.724 40.04C154.364 39.8533 153.784 39.6533 152.984 39.44C152.157 39.24 151.477 39.0333 150.944 38.82C150.424 38.6067 149.97 38.28 149.584 37.84C149.21 37.4 149.024 36.8067 149.024 36.06C149.024 35.4467 149.197 34.8867 149.544 34.38C149.904 33.8733 150.41 33.4733 151.064 33.18C151.73 32.8867 152.51 32.74 153.404 32.74C154.724 32.74 155.777 33.0733 156.564 33.74C157.35 34.3933 157.784 35.28 157.864 36.4H155.184C155.144 35.96 154.957 35.6133 154.624 35.36C154.304 35.0933 153.87 34.96 153.324 34.96C152.817 34.96 152.424 35.0533 152.144 35.24C151.877 35.4267 151.744 35.6867 151.744 36.02C151.744 36.3933 151.93 36.68 152.304 36.88C152.677 37.0667 153.257 37.26 154.044 37.46C154.844 37.66 155.504 37.8667 156.024 38.08C156.544 38.2933 156.99 38.6267 157.364 39.08C157.75 39.52 157.95 40.1067 157.964 40.84C157.964 41.48 157.784 42.0533 157.424 42.56C157.077 43.0667 156.57 43.4667 155.904 43.76C155.25 44.04 154.484 44.18 153.604 44.18ZM170.668 32.76C171.508 32.76 172.254 32.9467 172.908 33.32C173.561 33.68 174.068 34.22 174.428 34.94C174.801 35.6467 174.988 36.5 174.988 37.5V44H172.188V37.88C172.188 37 171.968 36.3267 171.528 35.86C171.088 35.38 170.488 35.14 169.728 35.14C168.954 35.14 168.341 35.38 167.888 35.86C167.448 36.3267 167.228 37 167.228 37.88V44H164.428V29.2H167.228V34.3C167.588 33.82 168.068 33.4467 168.668 33.18C169.268 32.9 169.934 32.76 170.668 32.76ZM176.63 38.42C176.63 37.3 176.85 36.3067 177.29 35.44C177.744 34.5733 178.35 33.9067 179.11 33.44C179.884 32.9733 180.744 32.74 181.69 32.74C182.517 32.74 183.237 32.9067 183.85 33.24C184.477 33.5733 184.977 33.9933 185.35 34.5V32.92H188.17V44H185.35V42.38C184.99 42.9 184.49 43.3333 183.85 43.68C183.224 44.0133 182.497 44.18 181.67 44.18C180.737 44.18 179.884 43.94 179.11 43.46C178.35 42.98 177.744 42.3067 177.29 41.44C176.85 40.56 176.63 39.5533 176.63 38.42ZM185.35 38.46C185.35 37.78 185.217 37.2 184.95 36.72C184.684 36.2267 184.324 35.8533 183.87 35.6C183.417 35.3333 182.93 35.2 182.41 35.2C181.89 35.2 181.41 35.3267 180.97 35.58C180.53 35.8333 180.17 36.2067 179.89 36.7C179.624 37.18 179.49 37.7533 179.49 38.42C179.49 39.0867 179.624 39.6733 179.89 40.18C180.17 40.6733 180.53 41.0533 180.97 41.32C181.424 41.5867 181.904 41.72 182.41 41.72C182.93 41.72 183.417 41.5933 183.87 41.34C184.324 41.0733 184.684 40.7 184.95 40.22C185.217 39.7267 185.35 39.14 185.35 38.46ZM189.885 38.46C189.885 37.3133 190.118 36.3133 190.585 35.46C191.052 34.5933 191.698 33.9267 192.525 33.46C193.352 32.98 194.298 32.74 195.365 32.74C196.738 32.74 197.872 33.0867 198.765 33.78C199.672 34.46 200.278 35.42 200.585 36.66H197.565C197.405 36.18 197.132 35.8067 196.745 35.54C196.372 35.26 195.905 35.12 195.345 35.12C194.545 35.12 193.912 35.4133 193.445 36C192.978 36.5733 192.745 37.3933 192.745 38.46C192.745 39.5133 192.978 40.3333 193.445 40.92C193.912 41.4933 194.545 41.78 195.345 41.78C196.478 41.78 197.218 41.2733 197.565 40.26H200.585C200.278 41.46 199.672 42.4133 198.765 43.12C197.858 43.8267 196.725 44.18 195.365 44.18C194.298 44.18 193.352 43.9467 192.525 43.48C191.698 43 191.052 42.3333 190.585 41.48C190.118 40.6133 189.885 39.6067 189.885 38.46ZM212.636 38.22C212.636 38.62 212.61 38.98 212.556 39.3H204.456C204.523 40.1 204.803 40.7267 205.296 41.18C205.79 41.6333 206.396 41.86 207.116 41.86C208.156 41.86 208.896 41.4133 209.336 40.52H212.356C212.036 41.5867 211.423 42.4667 210.516 43.16C209.61 43.84 208.496 44.18 207.176 44.18C206.11 44.18 205.15 43.9467 204.296 43.48C203.456 43 202.796 42.3267 202.316 41.46C201.85 40.5933 201.616 39.5933 201.616 38.46C201.616 37.3133 201.85 36.3067 202.316 35.44C202.783 34.5733 203.436 33.9067 204.276 33.44C205.116 32.9733 206.083 32.74 207.176 32.74C208.23 32.74 209.17 32.9667 209.996 33.42C210.836 33.8733 211.483 34.52 211.936 35.36C212.403 36.1867 212.636 37.14 212.636 38.22ZM209.736 37.42C209.723 36.7 209.463 36.1267 208.956 35.7C208.45 35.26 207.83 35.04 207.096 35.04C206.403 35.04 205.816 35.2533 205.336 35.68C204.87 36.0933 204.583 36.6733 204.476 37.42H209.736ZM217.18 34.64C217.54 34.0533 218.007 33.5933 218.58 33.26C219.167 32.9267 219.833 32.76 220.58 32.76V35.7H219.84C218.96 35.7 218.293 35.9067 217.84 36.32C217.4 36.7333 217.18 37.4533 217.18 38.48V44H214.38V32.92H217.18V34.64ZM226.066 29.56C227.453 29.56 228.566 29.94 229.406 30.7C230.259 31.4467 230.686 32.48 230.686 33.8C230.686 35.1067 230.266 36.1067 229.426 36.8C228.586 37.48 227.473 37.82 226.086 37.82L226.006 39.36H223.546L223.446 35.96H224.346C225.506 35.96 226.399 35.8067 227.026 35.5C227.653 35.1933 227.966 34.6333 227.966 33.82C227.966 33.2333 227.793 32.7667 227.446 32.42C227.113 32.0733 226.653 31.9 226.066 31.9C225.453 31.9 224.973 32.0667 224.626 32.4C224.293 32.7333 224.126 33.1933 224.126 33.78H221.486C221.473 32.9667 221.646 32.24 222.006 31.6C222.366 30.96 222.893 30.46 223.586 30.1C224.293 29.74 225.119 29.56 226.066 29.56ZM224.766 44.14C224.259 44.14 223.839 43.9867 223.506 43.68C223.186 43.36 223.026 42.9667 223.026 42.5C223.026 42.0333 223.186 41.6467 223.506 41.34C223.839 41.02 224.259 40.86 224.766 40.86C225.259 40.86 225.666 41.02 225.986 41.34C226.306 41.6467 226.466 42.0333 226.466 42.5C226.466 42.9667 226.306 43.36 225.986 43.68C225.666 43.9867 225.259 44.14 224.766 44.14Z" fill="black"/>
</g>
<defs>
<clipPath id="clip0_5505_1088">
<rect width="262" height="88" fill="white"/>
</clipPath>
</defs>
</svg>
