<svg width="50" height="59" viewBox="0 0 50 59" fill="none" xmlns="http://www.w3.org/2000/svg">
<path fill-rule="evenodd" clip-rule="evenodd" d="M36.8333 31.72C40.4626 31.72 43.7506 33.195 46.1338 35.5771C48.5249 37.958 50 41.2517 50 44.8855C50 48.5204 48.5249 51.8141 46.1429 54.195L45.9932 54.3333C43.6213 56.6338 40.3912 58.0522 36.8333 58.0522C33.1984 58.0522 29.9059 56.5771 27.5249 54.195C25.1429 51.8141 23.6678 48.5204 23.6678 44.8855C23.6678 41.2506 25.1429 37.958 27.5249 35.5771C29.9059 33.195 33.1984 31.72 36.8333 31.72ZM27.5635 4.31746V10.4603C27.6757 11.9263 28.1871 13.0782 29.085 13.8447C30.0147 14.6395 31.4048 15.085 33.2449 15.1179L37.5442 15.1134L27.5635 4.31746ZM37.9048 17.9785L33.2222 17.9739C30.6723 17.9342 28.6633 17.2483 27.2245 16.0193C25.7245 14.737 24.8798 12.9184 24.7086 10.6644L24.6961 10.4671V2.86735H7.12812C5.95578 2.86735 4.88889 3.34694 4.11791 4.11791C3.34694 4.88889 2.86735 5.95578 2.86735 7.12812V45.2789C2.86735 46.4467 3.34921 47.5136 4.12131 48.2857C4.89229 49.0567 5.96032 49.5385 7.12812 49.5385H20.6667C20.9546 50.5351 21.3322 51.4943 21.7914 52.4059H7.12812C5.16893 52.4059 3.38435 51.6032 2.09297 50.3129C0.802721 49.0215 0 47.2381 0 45.2789V7.12812C0 5.1712 0.802721 3.38889 2.09184 2.09864C3.38889 0.802721 5.1712 0 7.12812 0H26.8424C27.3084 0 27.7222 0.222222 27.9841 0.566893L40.3866 13.9841C40.6406 14.2596 40.7653 14.6066 40.7653 14.9535L40.7687 28.5272C39.8413 28.3039 38.8844 28.1587 37.9048 28.0975V17.9785ZM11.8549 24.1565C11.0635 24.1565 10.4218 23.5147 10.4218 22.7234C10.4218 21.9308 11.0635 21.2891 11.8549 21.2891H28.9172C29.7086 21.2891 30.3515 21.9308 30.3515 22.7234C30.3515 23.5147 29.7086 24.1565 28.9172 24.1565H11.8549ZM11.8549 32.3537C11.0635 32.3537 10.4218 31.712 10.4218 30.9195C10.4218 30.1281 11.0635 29.4864 11.8549 29.4864H28.0136C28.4342 29.4864 28.8129 29.6678 29.076 29.9569C27.8263 30.6083 26.6631 31.4135 25.6134 32.3537H11.8549ZM11.8549 40.551C11.0635 40.551 10.4218 39.9093 10.4218 39.1168C10.4218 38.3254 11.0635 37.6837 11.8549 37.6837H21.6281C21.195 38.5964 20.8401 39.5556 20.5748 40.551H11.8549ZM31.2585 41.0034L32.9535 39.3084C33.288 38.9717 33.8435 38.9796 34.1723 39.3084L36.8367 41.9728L39.5011 39.3084C39.8379 38.9717 40.3934 38.983 40.7211 39.3084L42.415 41.0034C42.7472 41.3333 42.7415 41.8957 42.415 42.2222L39.7506 44.8866L42.415 47.5499C42.746 47.8798 42.7426 48.4433 42.415 48.7698L40.7211 50.4649C40.3934 50.7914 39.8345 50.7993 39.5011 50.4649L36.8367 47.8005L34.1723 50.4649C33.8458 50.7914 33.2857 50.7993 32.9535 50.4649L31.2585 48.771C30.9252 48.4376 30.9218 47.8878 31.2585 47.551L33.9229 44.8866L31.2585 42.2222C30.9252 41.8866 30.9218 41.339 31.2585 41.0034Z" />
</svg>
