<svg width="51" height="51" viewbox="0 0 51 51" fill="none" xmlns="http://www.w3.org/2000/svg">
<path d="M7.32483 7.32346C11.4159 3.23267 16.799 0.68702 22.5566 0.120299C28.3143 -0.446422 34.0903 1.00085 38.9005 4.2155C43.7107 7.43015 47.2574 12.2133 48.9362 17.7498C50.6151 23.2863 50.3222 29.2337 48.1075 34.5785C45.8928 39.9233 41.8933 44.3349 36.7906 47.0613C31.6878 49.7878 25.7975 50.6606 20.1234 49.5309C14.4493 48.4012 9.34242 45.339 5.67302 40.8661C2.00363 36.3931 -0.00125314 30.7862 1.0799e-05 25.0007C-0.00304499 21.717 0.642449 18.4651 1.89944 15.4316C3.15643 12.398 5.00017 9.64259 7.32483 7.32346ZM31.4886 15.8691L34.1459 18.5304C34.4478 18.8352 34.6172 19.2469 34.6172 19.6759C34.6172 20.105 34.4478 20.5167 34.1459 20.8215L29.9504 25.0007L34.1459 29.1962C34.4478 29.501 34.6172 29.9127 34.6172 30.3417C34.6172 30.7707 34.4478 31.1824 34.1459 31.4872L31.4886 34.1445C31.1838 34.4464 30.7721 34.6158 30.3431 34.6158C29.914 34.6158 29.5023 34.4464 29.1975 34.1445L25.002 29.949L20.8066 34.1445C20.5017 34.4464 20.0901 34.6158 19.661 34.6158C19.232 34.6158 18.8203 34.4464 18.5155 34.1445L15.8704 31.4872C15.5685 31.1824 15.3991 30.7707 15.3991 30.3417C15.3991 29.9127 15.5685 29.501 15.8704 29.1962L20.0537 25.0007L15.8704 20.8052C15.5685 20.5004 15.3991 20.0887 15.3991 19.6597C15.3991 19.2306 15.5685 18.819 15.8704 18.5141L18.5155 15.8691C18.8203 15.5671 19.232 15.3978 19.661 15.3978C20.0901 15.3978 20.5017 15.5671 20.8066 15.8691L25.002 20.0524L29.1975 15.8691C29.5023 15.5671 29.914 15.3978 30.3431 15.3978C30.7721 15.3978 31.1838 15.5671 31.4886 15.8691ZM25.002 4.28773C20.2091 4.28796 15.5644 5.95007 11.8596 8.99087C8.15467 12.0317 5.61875 16.263 4.6839 20.9639C3.74904 25.6649 4.47307 30.5445 6.73265 34.7714C8.99222 38.9984 12.6475 42.3111 17.0757 44.1451C21.5039 45.9791 26.4311 46.221 31.0176 44.8295C35.6041 43.438 39.5663 40.4992 42.229 36.5139C44.8917 32.5286 46.0902 27.7433 45.6202 22.9734C45.1502 18.2035 43.0409 13.7442 39.6517 10.3551C37.7289 8.42996 35.4452 6.90307 32.9313 5.86192C30.4175 4.82077 27.723 4.28583 25.002 4.28773Z" />
</svg>
