<svg width="122" height="122" viewBox="0 0 122 122" fill="none" xmlns="http://www.w3.org/2000/svg">
<path fill-rule="evenodd" clip-rule="evenodd" d="M61 0C77.8439 0 93.0946 6.82819 104.134 17.8663C115.172 28.9054 122 44.1561 122 61C122 77.8439 115.172 93.0946 104.134 104.133C93.0946 115.172 77.8439 122 61 122C44.1561 122 28.9054 115.172 17.8673 104.133C6.82819 93.0946 0 77.8439 0 61C0 44.1561 6.82819 28.9054 17.8673 17.8663C28.9054 6.82819 44.1561 0 61 0ZM59.0001 33.3184C60.2008 30.4114 63.1472 28.425 66.2937 28.425C70.7283 28.425 74.0895 32.061 74.0895 36.4022C74.0895 37.4816 73.8998 38.4934 73.516 39.4294C71.8713 43.4587 67.2992 45.4829 63.2503 43.7904C59.2303 42.0933 57.3359 37.3339 59.0001 33.3184ZM61.884 82.5485C61.6855 83.2595 61.3465 84.4419 61.7234 85.1041C62.729 86.8792 65.6453 83.6605 66.2593 82.9667C68.2387 80.7235 69.9434 78.0879 71.4789 75.5254C71.5276 75.4439 71.6066 75.385 71.6987 75.3616C71.7907 75.3382 71.8883 75.3523 71.97 75.4008L75.1725 77.7769C75.3252 77.8896 75.3605 78.1017 75.2599 78.2606C73.7874 80.8205 72.2991 83.0558 70.7936 84.9632C68.3031 88.1166 65.1714 91.1233 61.3617 92.6037C58.9984 93.5192 55.9248 93.8816 53.2258 93.2778C50.7225 92.7171 48.5412 91.3225 47.5495 88.7633C46.2475 85.4055 47.3184 81.5899 48.343 78.3059L53.5111 62.6515C54.2168 60.1145 55.9044 55.5839 51.5452 55.5839H47.0272C46.6555 55.5839 46.6469 55.2498 46.7181 54.992L47.8757 50.778C47.8966 50.7018 47.9421 50.6347 48.0052 50.5872C48.0683 50.5396 48.1453 50.5143 48.2243 50.5151L71.3114 49.7913C71.6471 49.7793 71.7167 50.0748 71.6388 50.336L61.884 82.5485Z" />
</svg>
