<svg width="544" height="631" viewbox="0 0 544 631" fill="none" xmlns="http://www.w3.org/2000/svg">
<path fill-rule="evenodd" clip-rule="evenodd" d="M292.311 375.581C290.943 376.607 289.293 377.188 287.583 377.243C285.874 377.298 284.19 376.825 282.759 375.889C251.208 356.023 223.195 331.031 199.872 301.943C171.324 267.251 152.125 225.833 144.101 181.628C137.476 140.599 143.793 101.161 164.335 69.067C172.628 56.0299 183.043 44.4708 195.148 34.8673C221.635 12.7543 254.932 0.440953 289.435 0C322.846 0.538986 354.84 13.585 379.1 36.5618C388.418 45.1026 396.475 54.9231 403.031 65.7292C424.96 101.675 429.684 147.891 420.03 194.723C411.941 231.886 396.467 267.045 374.527 298.113C352.588 329.181 324.629 355.525 292.311 375.581ZM194.737 379.381V522.239L349.571 588.995V405.005C361.234 396.104 372.299 386.447 382.695 376.094V587.557L511.082 522.906V235.341L461.73 254.341C466.686 241.258 470.769 227.86 473.952 214.236L521.712 195.801C525.787 194.314 530.283 194.487 534.231 196.283C538.179 198.079 541.263 201.355 542.819 205.404C543.564 207.301 543.947 209.322 543.949 211.36V533.331C543.962 536.628 542.992 539.856 541.163 542.6C539.333 545.344 536.727 547.48 533.678 548.736L373.451 629.203C371.127 630.38 368.559 630.994 365.953 630.994C363.348 630.994 360.779 630.38 358.456 629.203L178.714 551.303L24.034 629.203C22.0954 630.185 19.9821 630.776 17.8149 630.942C15.6477 631.107 13.4692 630.844 11.4039 630.166C9.33868 629.489 7.4272 628.411 5.77883 626.995C4.13045 625.578 2.77752 623.851 1.79741 621.911C0.634336 619.6 0.0192956 617.052 5.59679e-07 614.465V273.392C-0.000930334 269.808 1.1594 266.32 3.30724 263.45C5.45507 260.58 8.47482 258.483 11.9143 257.473L96.0332 225.02C99.1566 235.605 102.86 246.011 107.126 256.19L33.1751 284.689V587.66L161.562 523.009V344.513C171.895 356.805 182.974 368.449 194.737 379.381ZM283.221 72.9696C297.156 72.9696 310.779 77.1017 322.366 84.8432C333.953 92.5847 342.983 103.588 348.316 116.462C353.649 129.335 355.044 143.501 352.326 157.168C349.607 170.835 342.897 183.388 333.043 193.241C323.189 203.094 310.634 209.804 296.967 212.523C283.299 215.241 269.132 213.846 256.258 208.514C243.383 203.181 232.379 194.151 224.637 182.565C216.895 170.979 212.762 157.357 212.762 143.423C212.762 124.738 220.186 106.818 233.399 93.605C246.613 80.3924 264.534 72.9696 283.221 72.9696Z" />
</svg>
