<svg width="107" height="107" viewbox="0 0 107 107" fill="none" xmlns="http://www.w3.org/2000/svg">
<path fill-rule="evenodd" clip-rule="evenodd" d="M56.5263 67.1054V100.579C56.5263 103.648 59.0368 106.158 62.1052 106.158H95.5789C98.6473 106.158 101.158 103.648 101.158 100.579V67.1054C101.158 64.037 98.6473 61.5265 95.5789 61.5265H62.1052C59.0368 61.5265 56.5263 64.037 56.5263 67.1054ZM6.31576 106.158H39.7894C42.8579 106.158 45.3684 103.648 45.3684 100.579V67.1054C45.3684 64.037 42.8579 61.5265 39.7894 61.5265H6.31576C3.24734 61.5265 0.736816 64.037 0.736816 67.1054V100.579C0.736816 103.648 3.24734 106.158 6.31576 106.158ZM0.736816 11.316V44.7897C0.736816 47.8581 3.24734 50.3686 6.31576 50.3686H39.7894C42.8579 50.3686 45.3684 47.8581 45.3684 44.7897V11.316C45.3684 8.24755 42.8579 5.73702 39.7894 5.73702H6.31576C3.24734 5.73702 0.736816 8.24755 0.736816 11.316ZM72.9842 2.38965L49.2737 26.0444C47.0979 28.2202 47.0979 31.7349 49.2737 33.9107L72.9842 57.6212C75.16 59.797 78.6747 59.797 80.8505 57.6212L104.561 33.9107C106.737 31.7349 106.737 28.2202 104.561 26.0444L80.9063 2.38965C78.7305 0.213865 75.16 0.213865 72.9842 2.38965Z" />
</svg>
