<svg width="311" height="341" viewBox="0 0 311 341" fill="none" xmlns="http://www.w3.org/2000/svg">
<g opacity="0.2">
<path d="M302.307 87.4187H304.041V29.6996H302.307V87.4187Z" />
<path d="M306.751 84.7089C306.751 82.7578 305.179 81.132 303.174 81.132C301.223 81.132 299.597 82.7578 299.597 84.7089C299.597 86.7142 301.223 88.3401 303.174 88.3401C305.179 88.3401 306.751 86.7142 306.751 84.7089Z" />
<path d="M306.047 93.1094H300.302C299.218 93.1094 298.297 92.188 298.297 91.0499V85.5761C298.297 84.4379 299.218 83.5166 300.302 83.5166H306.047C307.185 83.5166 308.106 84.4379 308.106 85.5761V91.0499C308.106 92.188 307.185 93.1094 306.047 93.1094Z" />
<path d="M294.937 113.866C291.198 113.866 288.975 112.295 287.783 110.994C284.857 107.742 285.236 103.136 285.29 102.594C285.453 101.13 286.808 99.9922 288.271 100.155C289.788 100.317 290.927 101.672 290.764 103.19C290.71 103.894 290.764 106.116 291.902 107.309C292.552 108.013 293.528 108.393 294.937 108.393C298.785 108.393 300.465 106.767 300.465 102.973V92.0254C300.465 90.5079 301.657 89.2614 303.175 89.2614C304.692 89.2614 305.939 90.5079 305.939 92.0254V102.973C305.939 109.802 301.82 113.866 294.937 113.866Z" />
<path d="M7.80469 33.4392H50.2404V9.59277H7.80469V33.4392Z" />
<path d="M37.0161 9.59277H0V33.4392H37.0161V9.59277Z" />
<path fill-rule="evenodd" clip-rule="evenodd" d="M125.247 43.3029V56.3643H129.42V67.2035C129.42 72.4064 125.843 76.6337 121.399 76.6337H102.105V35.8239H129.42V43.3029H125.247ZM108.392 43.3029V56.3643H121.833V43.3029H108.392Z" />
<path d="M123.46 329.514H101.348V327.292H123.46V329.514Z" />
<path fill-rule="evenodd" clip-rule="evenodd" d="M102.973 32.6262V338.619H57.3398V32.6262H102.973ZM97.7703 333.416V37.8291H62.5427V333.416H97.7703Z" />
<path d="M99.1258 330.327L101.565 327.888L62.2181 288.541L59.7793 290.98L99.1258 330.327Z" />
<path d="M99.1258 293.365L101.565 290.926L62.2181 251.579L59.7793 254.018L99.1258 293.365Z" />
<path d="M99.1258 256.457L101.565 253.964L62.2181 214.618L59.7793 217.056L99.1258 256.457Z" />
<path d="M99.1258 219.495L101.565 217.002L62.2181 177.656L59.7793 180.094L99.1258 219.495Z" />
<path d="M62.2181 330.327L101.565 290.98L99.1258 288.541L59.7793 327.888L62.2181 330.327Z" />
<path d="M62.2181 293.365L101.565 254.018L99.1258 251.579L59.7793 290.926L62.2181 293.365Z" />
<path d="M62.2181 256.457L101.565 217.056L99.1258 214.618L59.7793 253.964L62.2181 256.457Z" />
<path d="M62.2181 219.495L101.565 180.094L99.1258 177.656L59.7793 217.002L62.2181 219.495Z" />
<path d="M99.1258 182.533L101.565 180.04L62.2181 140.694L59.7793 143.133L99.1258 182.533Z" />
<path d="M62.2181 182.533L101.565 143.133L99.1258 140.694L59.7793 180.04L62.2181 182.533Z" />
<path d="M62.2178 145.246H100.372V140.043H62.2178V145.246Z" />
<path d="M62.2178 182.533H100.372V177.33H62.2178V182.533Z" />
<path d="M99.1258 145.246L101.565 142.807L62.2181 103.461L59.7793 105.9L99.1258 145.246Z" />
<path d="M62.2181 145.246L101.565 105.9L99.1258 103.461L59.7793 142.807L62.2181 145.246Z" />
<path d="M62.2178 107.959H100.372V102.81H62.2178V107.959Z" />
<path d="M62.2178 145.246H100.372V140.098H62.2178V145.246Z" />
<path d="M99.1258 111.482L101.565 108.989L62.2181 70.5094L59.7793 73.0024L99.1258 111.482Z" />
<path d="M62.2181 111.482L101.565 73.0024L99.1258 70.5094L59.7793 108.989L62.2181 111.482Z" />
<path d="M62.2178 75.062H100.372V69.8591H62.2178V75.062Z" />
<path d="M62.2178 108.013H100.372V102.81H62.2178V108.013Z" />
<path d="M99.1258 75.1161L101.565 72.623L62.2181 33.2765L59.7793 35.7153L99.1258 75.1161Z" />
<path d="M62.2181 75.1161L101.565 35.7153L99.1258 33.2765L59.7793 72.623L62.2181 75.1161Z" />
<path d="M76.959 37.8291H115.059V32.6262H76.959V37.8291Z" />
<path d="M62.2178 75.1161H100.372V69.9132H62.2178V75.1161Z" />
<path d="M62.2178 219.224H100.372V214.021H62.2178V219.224Z" />
<path d="M62.2178 255.915H100.372V250.766H62.2178V255.915Z" />
<path d="M62.2178 292.66H100.372V287.457H62.2178V292.66Z" />
<path fill-rule="evenodd" clip-rule="evenodd" d="M301.332 26.1768V35.7154H46.7715V6.77454H279.165L281.171 8.50882L281.984 9.26757L300.194 25.2013L301.332 26.1768ZM297.863 32.2468V27.7485L297.484 27.4233L281.984 13.8201L280.249 12.3026L278.515 10.7851L277.865 10.1889H50.2401V32.2468H77.1214L77.4466 32.572H78.097V32.2468H95.9818L96.3069 32.572H100.155V32.2468H297.863ZM78.097 32.2468V32.572H77.4466L77.0672 32.2468H78.097ZM95.9818 32.2468L96.3069 32.572H100.155V32.2468H95.9818Z" />
<path d="M73.4361 35.2276L75.875 32.7346L50.4027 7.26233L47.9639 9.70116L73.4361 35.2276Z" />
<path d="M46.7715 33.9812H50.2401V7.80432H46.7715V33.9812Z" />
<path d="M72.8945 33.9811H76.3631V8.50879H72.8945V33.9811Z" />
<path d="M98.9088 35.2276L101.348 32.7346L75.8754 7.26233L73.4365 9.70116L98.9088 35.2276Z" />
<path d="M98.4209 33.9811H101.889V8.50879H98.4209V33.9811Z" />
<path d="M124.38 35.2276L126.819 32.7346L101.347 7.26233L98.9082 9.70116L124.38 35.2276Z" />
<path d="M123.893 33.9811H127.361V8.50879H123.893V33.9811Z" />
<path d="M149.852 35.2276L152.345 32.7346L126.819 7.26233L124.38 9.70116L149.852 35.2276Z" />
<path d="M149.365 33.9811H152.834V8.50879H149.365V33.9811Z" />
<path d="M175.379 35.2276L177.818 32.7346L152.346 7.26233L149.853 9.70116L175.379 35.2276Z" />
<path d="M174.837 33.9811H178.305V8.50879H174.837V33.9811Z" />
<path d="M200.851 35.2276L203.29 32.7346L177.818 7.26233L175.379 9.70116L200.851 35.2276Z" />
<path d="M200.364 33.9811H203.779V8.50879H200.364V33.9811Z" />
<path d="M226.324 35.2276L228.763 32.7346L203.29 7.26233L200.852 9.70116L226.324 35.2276Z" />
<path d="M225.837 33.9811H229.305V8.50879H225.837V33.9811Z" />
<path d="M251.796 35.2276L254.289 32.7346L228.762 7.26233L226.323 9.70116L251.796 35.2276Z" />
<path d="M251.309 33.9811H254.777V8.50879H251.309V33.9811Z" />
<path d="M277.322 35.2276L279.761 32.7346L254.289 7.26233L251.796 9.70116L277.322 35.2276Z" />
<path d="M276.781 33.9811H280.25V8.50879H276.781V33.9811Z" />
<path fill-rule="evenodd" clip-rule="evenodd" d="M104.707 32.6262V338.619H59.0732V32.6262H104.707ZM99.5037 37.8291H64.2761V333.416H99.5037V37.8291Z" />
<path d="M100.86 330.327L103.299 327.888L63.9525 288.541L61.5137 290.98L100.86 330.327Z" />
<path d="M100.86 293.365L103.299 290.926L63.9525 251.579L61.5137 254.018L100.86 293.365Z" />
<path d="M100.86 256.457L103.299 253.964L63.9525 214.618L61.5137 217.056L100.86 256.457Z" />
<path d="M100.86 219.495L103.299 217.002L63.9525 177.656L61.5137 180.094L100.86 219.495Z" />
<path d="M63.9525 330.327L103.299 290.98L100.86 288.541L61.5137 327.888L63.9525 330.327Z" />
<path d="M63.9525 293.365L103.299 254.018L100.86 251.579L61.5137 290.926L63.9525 293.365Z" />
<path d="M63.9525 256.457L103.299 217.056L100.86 214.618L61.5137 253.964L63.9525 256.457Z" />
<path d="M63.9525 219.495L103.299 180.094L100.86 177.656L61.5137 217.002L63.9525 219.495Z" />
<path d="M100.86 182.533L103.299 180.04L63.9525 140.694L61.5137 143.133L100.86 182.533Z" />
<path d="M63.9525 182.533L103.299 143.133L100.86 140.694L61.5137 180.04L63.9525 182.533Z" />
<path d="M63.9521 145.246H102.106V140.043H63.9521V145.246Z" />
<path d="M63.9521 182.533H102.106V177.33H63.9521V182.533Z" />
<path d="M100.86 145.246L103.299 142.807L63.9525 103.461L61.5137 105.9L100.86 145.246Z" />
<path d="M63.9525 145.246L103.299 105.9L100.86 103.461L61.5137 142.807L63.9525 145.246Z" />
<path d="M63.9521 107.959H102.106V102.81H63.9521V107.959Z" />
<path d="M63.9521 145.246H102.106V140.098H63.9521V145.246Z" />
<path d="M100.86 111.482L103.299 108.989L63.9525 70.5094L61.5137 73.0024L100.86 111.482Z" />
<path d="M63.9525 111.482L103.299 73.0024L100.86 70.5094L61.5137 108.989L63.9525 111.482Z" />
<path d="M63.9521 75.062H102.106V69.8591H63.9521V75.062Z" />
<path d="M63.9521 108.013H102.106V102.81H63.9521V108.013Z" />
<path d="M100.86 75.1161L103.299 72.623L63.9525 33.2765L61.5137 35.7153L100.86 75.1161Z" />
<path d="M63.9525 75.1161L103.299 35.7153L100.86 33.2765L61.5137 72.623L63.9525 75.1161Z" />
<path d="M78.6934 37.8291H116.793V32.6262H78.6934V37.8291Z" />
<path d="M63.9521 75.1161H102.106V69.9132H63.9521V75.1161Z" />
<path d="M63.9521 219.224H102.106V214.021H63.9521V219.224Z" />
<path d="M63.9521 255.915H102.106V250.766H63.9521V255.915Z" />
<path d="M63.9521 292.66H102.106V287.457H63.9521V292.66Z" />
<path fill-rule="evenodd" clip-rule="evenodd" d="M303.067 26.1768V35.7154H48.4521V6.77454H280.9L301.441 24.7677L303.067 26.1768ZM299.598 32.2468V27.7485L298.243 26.5562L281.984 12.3026L280.25 10.7851L279.6 10.1889H51.9207V32.2468H95.9281L96.3075 32.572H100.101V32.2468H299.598ZM95.9823 32.2468L96.3075 32.572H100.155V32.2468H95.9823Z" />
<path fill-rule="evenodd" clip-rule="evenodd" d="M129.42 34.6315V43.3029H125.247V56.3642H129.42V66.0112C129.42 71.214 125.843 75.4413 121.399 75.4413H102.105V34.6315H129.42ZM121.833 43.3029H108.392V56.3642H121.833V43.3029Z" />
<path d="M75.1715 35.2276L77.6103 32.7346L52.1381 7.26233L49.6992 9.70116L75.1715 35.2276Z" />
<path d="M48.5059 33.9812H51.9744V7.80432H48.5059V33.9812Z" />
<path d="M74.6289 33.9811H78.0975V8.50879H74.6289V33.9811Z" />
<path d="M100.642 35.2276L103.081 32.7346L77.6088 7.26233L75.1699 9.70116L100.642 35.2276Z" />
<path d="M100.155 33.9811H103.624V8.50879H100.155V33.9811Z" />
<path d="M126.115 35.2276L128.554 32.7346L103.081 7.26233L100.643 9.70116L126.115 35.2276Z" />
<path d="M125.628 33.9811H129.096V8.50879H125.628V33.9811Z" />
<path d="M151.587 35.2276L154.08 32.7346L128.553 7.26233L126.114 9.70116L151.587 35.2276Z" />
<path d="M151.099 33.9811H154.567V8.50879H151.099V33.9811Z" />
<path d="M177.113 35.2276L179.552 32.7346L154.08 7.26233L151.587 9.70116L177.113 35.2276Z" />
<path d="M299.435 35.7154H293.961L292.985 32.301H298.459L299.435 35.7154Z" />
<path d="M176.571 33.9811H180.04V8.50879H176.571V33.9811Z" />
<path d="M202.586 35.2276L205.024 32.7346L179.552 7.26233L177.113 9.70116L202.586 35.2276Z" />
<path d="M202.098 33.9811H205.512V8.50879H202.098V33.9811Z" />
<path d="M228.058 35.2276L230.497 32.7346L205.025 7.26233L202.586 9.70116L228.058 35.2276Z" />
<path d="M227.57 33.9811H231.039V8.50879H227.57V33.9811Z" />
<path d="M253.531 35.2276L256.024 32.7346L230.497 7.26233L228.059 9.70116L253.531 35.2276Z" />
<path d="M253.043 33.9811H256.512V8.50879H253.043V33.9811Z" />
<path d="M279.057 35.2276L281.496 32.7346L256.023 7.26233L253.53 9.70116L279.057 35.2276Z" />
<path d="M278.516 33.9811H281.984V8.50879H278.516V33.9811Z" />
<path d="M296.183 31.4338C296.183 35.2818 299.326 38.371 303.12 38.371C306.968 38.371 310.057 35.2818 310.057 31.4338C310.057 27.6401 306.968 24.5509 303.12 24.5509C299.326 24.5509 296.183 27.6401 296.183 31.4338Z" />
<path d="M300.573 31.4338C300.573 32.8429 301.711 33.9811 303.12 33.9811C304.53 33.9811 305.668 32.8429 305.668 31.4338C305.668 30.0247 304.53 28.8866 303.12 28.8866C301.711 28.8866 300.573 30.0247 300.573 31.4338Z" fill="#FFFEFF"/>
<path d="M36.0947 44.3326H46.0127V0H36.0947V44.3326Z" />
<path d="M36.6367 44.3326H46.5546V0H36.6367V44.3326Z" />
<path d="M24.8223 44.3326H34.7402V0H24.8223V44.3326Z" />
<path d="M25.3096 44.3326H35.2275V0H25.3096V44.3326Z" />
<path d="M13.4951 44.3326H23.413V0H13.4951V44.3326Z" />
<path d="M14.0371 44.3326H23.955V0H14.0371V44.3326Z" />
<path d="M2.16797 44.3326H12.1401V0H2.16797V44.3326Z" />
<path d="M2.70996 44.3326H12.6279V0H2.70996V44.3326Z" />
<path d="M40.2676 340.732H123.459V327.292H40.2676V340.732Z" />
<g style="mix-blend-mode:screen">
<path d="M40.2676 329.514H123.459V327.292H40.2676V329.514Z" />
</g>
</g>
</svg>
