<svg width="178" height="215" viewBox="0 0 178 215" fill="none" xmlns="http://www.w3.org/2000/svg">
<path opacity="0.2" fill-rule="evenodd" clip-rule="evenodd" d="M108.71 154.074C108.527 154.941 108.322 155.807 108.094 156.674L112.131 159.479C111.674 160.938 111.15 162.352 110.557 163.72L105.7 163.31C105.335 164.131 104.947 164.952 104.537 165.773L107.957 169.262C107.273 170.585 106.521 171.862 105.7 173.093L100.911 171.793C100.409 172.569 99.9072 173.298 99.4055 173.983L102.142 178.087C101.184 179.25 100.227 180.413 99.1319 181.44L94.7534 179.319C94.1148 179.957 93.4535 180.573 92.7694 181.166L94.7534 185.681C93.6131 186.639 92.4273 187.574 91.1959 188.486L87.2278 185.544C86.4981 186.046 85.7455 186.525 84.9702 186.981L86.0648 191.77C84.7877 192.546 83.4651 193.252 82.0968 193.891L78.7445 190.265C77.9235 190.63 77.1026 190.972 76.2816 191.291L76.4868 196.217C75.0729 196.719 73.6363 197.152 72.1768 197.517L69.577 193.412C68.7104 193.595 67.8211 193.777 66.9089 193.959L66.2247 198.817C64.7196 199.045 63.2145 199.204 61.7094 199.296L59.9307 194.712C59.0185 194.758 58.1291 194.78 57.2625 194.78L55.6206 199.433C54.1155 199.387 52.6104 199.296 51.1052 199.159L50.2159 194.302C49.7598 194.256 49.3037 194.187 48.8476 194.096C48.4371 194.005 48.0038 193.937 47.5477 193.891L45.0848 198.133C43.6253 197.813 42.1886 197.426 40.7747 196.97L40.7063 192.112C39.8397 191.793 38.996 191.474 38.175 191.154L35.028 194.917C33.6141 194.324 32.2458 193.686 30.9231 193.002L31.8125 188.213C31.0371 187.757 30.2618 187.3 29.4864 186.844L25.6552 189.923C24.4238 189.102 23.2151 188.235 22.0293 187.323L23.8081 182.671C23.1239 182.124 22.4398 181.531 21.7556 180.892L17.4456 183.287C16.3509 182.238 15.3247 181.143 14.3669 180.003L16.8983 175.83C16.3053 175.146 15.758 174.439 15.2563 173.709L10.5358 175.214C9.66918 173.983 8.84821 172.728 8.07285 171.451L11.3567 167.757C10.9462 166.982 10.5358 166.206 10.1253 165.431L5.26788 166.047C4.62935 164.678 4.05923 163.287 3.55753 161.873L7.45712 158.931C7.13786 158.065 6.8642 157.198 6.63616 156.332L1.71035 156.058C1.34547 154.599 1.04901 153.139 0.820968 151.68L5.19946 149.422C5.06264 148.555 4.94861 147.666 4.85739 146.754L0.136828 145.591C0.0456092 144.086 0 142.581 0 141.075L4.72057 139.707C4.76617 138.841 4.83459 137.951 4.92581 137.039L0.478898 134.987C0.570117 134.257 0.661335 133.527 0.752554 132.797C0.889382 132.022 1.02621 131.269 1.16304 130.54L6.08884 130.061C6.27128 129.194 6.49933 128.328 6.77298 127.461L2.73656 124.656C3.19265 123.242 3.69436 121.828 4.24167 120.414L9.16747 120.825C9.53235 120.004 9.89722 119.206 10.2621 118.43L6.8414 114.873C7.57115 113.55 8.3237 112.273 9.09906 111.042L13.888 112.342C14.3897 111.612 14.9143 110.882 15.4616 110.152L12.725 106.047C13.6144 104.884 14.6406 103.79 15.6668 102.695L20.0453 104.884C20.6838 104.246 21.3452 103.63 22.0293 103.037L20.0453 98.4535C21.2311 97.4957 22.417 96.5835 23.6028 95.7169L27.5708 98.6587C28.3006 98.1114 29.0531 97.6097 29.8285 97.1536L28.7339 92.3646C30.0109 91.6349 31.3336 90.9279 32.7019 90.2438L36.0542 93.8697C36.8751 93.5049 37.6961 93.1628 38.5171 92.8435L38.3118 87.9177C39.7257 87.416 41.1624 86.9827 42.6219 86.6179L45.2216 90.7911C46.1338 90.5631 47.0232 90.3806 47.8898 90.2438L48.6423 85.318C50.1018 85.1356 51.5841 84.9759 53.0893 84.8391L54.868 89.4228C55.7802 89.3772 56.6924 89.3544 57.6046 89.3544L59.1781 84.7023C60.6832 84.7479 62.1883 84.8619 63.6934 85.0443L64.5828 89.8333C65.0389 89.9245 65.495 89.9929 65.9511 90.0386C66.4072 90.1298 66.8405 90.221 67.2509 90.3122L69.7139 86.0021C71.1734 86.3214 72.61 86.7091 74.0239 87.1652L74.0923 92.091C74.9589 92.3646 75.8027 92.6611 76.6237 92.9804L79.7707 89.2176C81.1846 89.8105 82.5529 90.449 83.8756 91.1332L82.9862 95.9906C83.7615 96.4011 84.5369 96.8572 85.3122 97.3589L89.1434 94.2118C90.3749 95.0784 91.5835 95.9678 92.7694 96.88L90.9906 101.464C91.7204 102.011 92.4045 102.604 93.043 103.242L97.3531 100.848C98.4477 101.897 99.4968 102.992 100.5 104.132L97.9004 108.305C98.4933 109.035 99.0635 109.742 99.6108 110.426L104.263 108.921C105.13 110.152 105.95 111.407 106.726 112.684L103.442 116.378C103.852 117.153 104.263 117.951 104.673 118.772L109.599 118.088C110.192 119.457 110.762 120.848 111.31 122.262L107.342 125.272C107.661 126.093 107.934 126.937 108.163 127.803L113.088 128.077C113.453 129.536 113.75 131.019 113.978 132.524L109.599 134.713C109.736 135.579 109.85 136.469 109.941 137.381L114.662 138.544C114.799 140.049 114.844 141.554 114.799 143.059L110.078 144.428C110.033 145.34 109.964 146.229 109.873 147.096L114.388 149.148C114.297 149.878 114.183 150.631 114.046 151.406C113.909 152.136 113.772 152.865 113.636 153.595L108.71 154.074ZM95.3007 117.815L71.3558 134.987C71.8119 135.944 72.1996 136.925 72.5188 137.928C72.8609 139.365 73.0661 140.802 72.9977 142.238L102.142 146.959C103.305 136.423 100.705 126.161 95.3007 117.815ZM67.0457 98.043L62.2567 127.187C64.6512 128.008 66.7721 129.308 68.5508 131.087L92.4957 113.915C86.2701 106.116 77.4446 100.369 67.0457 98.043ZM33.1124 104.132L50.2843 128.077C52.4735 126.982 54.9364 126.366 57.5362 126.435L62.3251 97.2904C51.721 96.1274 41.5273 98.7271 33.1124 104.132ZM13.3407 132.455L42.4851 137.176C43.3061 134.781 44.6743 132.66 46.3847 130.882L29.2128 106.937C21.4136 113.162 15.6668 121.988 13.3407 132.455ZM19.4296 166.389L43.4429 149.148C42.2798 146.959 41.7325 144.496 41.7325 141.965L12.5882 137.176C11.4251 147.712 14.0249 157.974 19.4296 166.389ZM47.753 186.092L52.4735 156.947C52.2911 156.902 52.1087 156.833 51.9262 156.742C49.737 155.921 47.753 154.621 46.1794 153.048L22.2345 170.288C28.4602 178.019 37.354 183.834 47.753 186.092ZM81.6863 180.003L64.446 156.058C62.2567 157.153 59.7938 157.768 57.2625 157.768L52.4735 186.844C63.0093 188.007 73.2714 185.408 81.6863 180.003ZM101.39 151.748L72.2452 146.959C72.1996 147.141 72.1311 147.324 72.0399 147.506C71.219 149.764 69.9191 151.68 68.3456 153.253L85.5859 177.198C93.3167 170.972 99.1319 162.147 101.39 151.748Z" />
<g opacity="0.2">
<path fill-rule="evenodd" clip-rule="evenodd" d="M171.446 179.935C171.446 180.824 172.198 181.919 173.019 182.261L176.303 183.697C177.124 184.039 177.671 185.134 177.603 186.023L177.056 188.897C176.919 189.786 175.961 190.539 175.072 190.607L171.514 190.881C170.625 190.949 169.598 191.702 169.188 192.523L167.478 195.875C166.999 196.628 166.999 197.859 167.409 198.68L169.256 201.759C169.667 202.511 169.53 203.743 168.914 204.358L166.793 206.411C166.178 207.027 164.946 207.163 164.194 206.685L161.183 204.769C160.363 204.29 159.131 204.29 158.31 204.769L154.958 206.411C154.068 206.753 153.316 207.779 153.247 208.669L152.905 212.226C152.769 213.115 152.016 214.073 151.127 214.21C151.127 214.21 150.716 214.347 149.69 214.484C148.664 214.621 148.185 214.689 148.185 214.689C147.295 214.689 146.269 214.073 145.927 213.252L144.559 209.968C144.217 209.079 143.191 208.326 142.301 208.258L138.607 207.642C137.717 207.437 136.486 207.779 135.939 208.463L133.544 211.131C132.929 211.816 131.765 212.021 130.945 211.679L128.345 210.31C127.524 209.832 127.113 208.737 127.319 207.848L128.14 204.358C128.345 203.469 128.003 202.306 127.319 201.69L124.719 198.954C124.103 198.27 122.872 197.859 121.982 198.064L118.493 198.817C117.604 199.022 116.578 198.543 116.099 197.722L114.799 195.123C114.457 194.302 114.73 193.139 115.415 192.523L118.151 190.197C118.835 189.649 119.246 188.418 118.972 187.529C118.972 187.529 118.835 186.844 118.63 185.681C118.493 184.518 118.493 183.834 118.493 183.834C118.425 182.945 117.741 181.85 116.851 181.508L113.567 180.071C112.746 179.729 112.199 178.635 112.267 177.745L112.815 174.872C112.952 173.983 113.909 173.23 114.799 173.162L118.356 172.888C119.246 172.82 120.272 172.067 120.682 171.246L122.393 167.894C122.872 167.141 122.94 165.91 122.461 165.089L120.682 162.01C120.204 161.258 120.34 160.026 120.956 159.41L123.077 157.358C123.693 156.742 124.924 156.605 125.677 157.084L128.755 159C129.508 159.479 130.739 159.479 131.56 159L134.913 157.358C135.733 157.016 136.554 155.99 136.623 155.1L136.965 151.543C137.102 150.653 137.854 149.696 138.744 149.559C138.744 149.559 139.154 149.422 140.18 149.285C141.275 149.148 141.685 149.08 141.685 149.08C142.575 149.012 143.601 149.696 143.943 150.517L145.311 153.8C145.654 154.69 146.68 155.442 147.569 155.511L151.263 156.127C152.153 156.332 153.384 155.99 154 155.306L156.326 152.637C156.942 151.953 158.105 151.748 158.926 152.09L161.526 153.458C162.347 153.937 162.757 155.032 162.552 155.921L161.731 159.41C161.526 160.3 161.868 161.463 162.552 162.079L165.22 164.815C165.767 165.499 166.999 165.91 167.888 165.705L171.377 164.952C172.267 164.747 173.361 165.226 173.772 166.047L175.072 168.646C175.414 169.467 175.14 170.63 174.456 171.246L171.719 173.572C171.035 174.119 170.625 175.351 170.898 176.24C170.898 176.24 171.035 176.856 171.24 178.087C171.377 179.25 171.446 179.935 171.446 179.935ZM163.304 179.182C161.868 169.057 152.426 162.01 142.233 163.447C132.108 164.952 125.061 174.393 126.498 184.587C128.003 194.712 137.444 201.759 147.638 200.322C157.763 198.817 164.809 189.376 163.304 179.182Z" />
<path d="M144.012 175.419C140.455 175.967 137.992 179.25 138.471 182.808C139.018 186.365 142.302 188.828 145.859 188.349C149.417 187.802 151.88 184.518 151.401 180.961C150.854 177.403 147.57 174.94 144.012 175.419Z" />
</g>
<g opacity="0.2">
<path fill-rule="evenodd" clip-rule="evenodd" d="M107.342 28.3292C107.205 29.0133 107.479 29.9027 108.026 30.3132L110.147 32.0235C110.626 32.434 110.9 33.3234 110.626 33.9391L109.668 35.9231C109.395 36.5389 108.574 36.8809 107.89 36.8125L105.29 36.2652C104.606 36.1284 103.716 36.4705 103.306 37.0178L101.39 39.0702C100.911 39.5491 100.638 40.4385 100.775 41.1226L101.527 43.7223C101.664 44.3381 101.39 45.159 100.775 45.5695L98.859 46.5957C98.2432 46.9378 97.3539 46.801 96.9434 46.2537L95.0962 44.3381C94.6173 43.8592 93.7279 43.5855 93.0438 43.7908L90.2388 44.3381C89.6231 44.4065 88.8705 44.9538 88.5969 45.6379L87.6391 48.1008C87.4338 48.785 86.6813 49.2639 85.9971 49.1955C85.9971 49.1955 85.6551 49.1955 84.9025 49.1271C84.0815 48.9902 83.8079 48.9902 83.8079 48.9902C83.1237 48.8534 82.508 48.1693 82.4396 47.4851L82.0975 44.817C82.0291 44.2012 81.4134 43.4487 80.7977 43.175L78.1979 42.012C77.6506 41.6699 76.6928 41.7383 76.0771 42.0804L73.8879 43.5171C73.2721 43.9276 72.3828 43.8592 71.9039 43.4487L70.2619 41.9436C69.783 41.4647 69.6462 40.5753 69.9883 39.9596L71.2881 37.6335C71.6302 37.0178 71.5618 36.06 71.2197 35.5127L69.8514 33.0498C69.5094 32.434 68.7568 31.8867 68.0727 31.8867L65.4045 31.7499C64.7204 31.6815 64.0362 31.1342 63.831 30.45L63.4205 28.3292C63.3521 27.6451 63.7626 26.8925 64.3783 26.5504L66.7728 25.4558C67.3885 25.1137 67.9358 24.3612 67.9358 23.677C67.9358 23.677 67.9358 23.1297 68.0727 22.2403C68.1411 21.351 68.2779 20.8721 68.2779 20.8721C68.4147 20.1879 68.0727 19.2985 67.5938 18.8881L65.4729 17.1777C64.9256 16.7672 64.7204 15.9463 64.994 15.2621L65.8834 13.2781C66.2255 12.7308 66.978 12.3203 67.6622 12.4571L70.3303 12.936C70.9461 13.0729 71.9039 12.7308 72.3143 12.1835L74.2299 10.1311C74.7088 9.65217 74.9825 8.76279 74.7772 8.07865L74.0931 5.47892C73.8879 4.86319 74.2299 4.04222 74.7772 3.63174L76.6928 2.60553C77.3086 2.26346 78.1979 2.4687 78.6768 2.9476L80.524 4.86319C81.0029 5.34209 81.8923 5.61575 82.5764 5.47892L85.313 4.93161C85.9971 4.79478 86.7497 4.24747 86.9549 3.56333L87.9127 1.10042C88.1864 0.484697 88.9389 -0.0626153 89.6231 0.00579867C89.6231 0.00579867 89.8967 0.00579867 90.7177 0.0742127C91.4703 0.211041 91.8123 0.279455 91.8123 0.279455C92.4281 0.416283 93.0438 1.03201 93.1806 1.71615L93.5227 4.38429C93.5911 5.06843 94.2068 5.82099 94.8225 6.02623L97.3539 7.18927C97.9696 7.53134 98.9274 7.53134 99.4747 7.12085L101.732 5.68416C102.28 5.27368 103.169 5.34209 103.716 5.82099L105.358 7.25768C105.769 7.73658 105.906 8.62596 105.564 9.24169L104.332 11.5678C103.99 12.1835 103.99 13.1413 104.401 13.6886L105.769 16.1515C106.042 16.7672 106.863 17.3145 107.548 17.3145L110.216 17.4514C110.9 17.5198 111.584 18.0671 111.721 18.7512L112.131 20.8721C112.268 21.5562 111.858 22.3088 111.242 22.6508L108.779 23.7455C108.163 24.0875 107.684 24.8401 107.684 25.5242C107.684 25.5242 107.684 26.0715 107.548 26.9609C107.479 27.8503 107.342 28.3292 107.342 28.3292ZM101.664 26.2768C102.553 18.6144 97.0802 11.7046 89.4178 10.7468C81.8239 9.85741 74.8457 15.3305 73.9563 22.9929C73.0669 30.5869 78.54 37.5651 86.134 38.4545C93.7963 39.3438 100.706 33.8707 101.664 26.2768Z" />
<path fill-rule="evenodd" clip-rule="evenodd" d="M97.6275 25.7978C97.0118 31.2026 92.086 35.1021 86.6129 34.4864C81.2082 33.8023 77.3086 28.8765 77.9243 23.4034C78.6085 17.9986 83.5343 14.0991 88.939 14.7148C94.4121 15.3989 98.3117 20.3247 97.6275 25.7978ZM91.3334 25.0453C91.6071 23.0613 90.1704 21.2825 88.1864 21.0773C86.2708 20.8036 84.4921 22.2403 84.2184 24.1559C84.0132 26.1399 85.3814 27.9187 87.3654 28.1923C89.3495 28.3976 91.1282 27.0293 91.3334 25.0453Z" />
</g>
<g opacity="0.2">
<path d="M142.712 41.6699C141.846 41.3506 140.979 41.0542 140.112 40.7805L138.676 43.0382C139.998 43.4031 141.298 43.8363 142.575 44.338L142.712 41.6699Z" />
<path d="M118.288 107.963C119.155 108.282 120.044 108.579 120.956 108.852L122.393 106.595C121.07 106.23 119.77 105.797 118.493 105.295L118.288 107.963Z" />
<path fill-rule="evenodd" clip-rule="evenodd" d="M162.962 72.2509C163.008 72.8439 163.031 73.4596 163.031 74.0981L165.562 74.9191C165.562 75.8313 165.539 76.7663 165.493 77.7241L162.894 78.2714C162.802 78.9099 162.711 79.5484 162.62 80.187L165.015 81.4184C164.832 82.3306 164.627 83.2428 164.399 84.155L161.731 84.2234C161.548 84.8163 161.343 85.4092 161.115 86.0022L163.236 87.7125C162.871 88.5791 162.506 89.4229 162.141 90.2438L159.473 89.8333C159.199 90.3807 158.903 90.9508 158.584 91.5437L160.294 93.5277C159.838 94.3031 159.336 95.0784 158.789 95.8538L156.258 94.9644C156.075 95.1924 155.893 95.4433 155.71 95.717C155.482 95.945 155.277 96.173 155.095 96.4011L156.463 98.7272C155.824 99.4113 155.163 100.073 154.479 100.711L152.153 99.4113C151.697 99.8218 151.218 100.209 150.716 100.574L151.674 103.106C150.944 103.699 150.192 104.223 149.416 104.679L147.364 102.969C146.816 103.288 146.269 103.607 145.722 103.927L146.132 106.526C145.311 106.937 144.49 107.325 143.669 107.689L141.959 105.569C141.366 105.797 140.773 106.002 140.18 106.184L140.112 108.921C139.245 109.149 138.356 109.354 137.444 109.537L136.144 107.142C135.551 107.279 134.935 107.37 134.297 107.416L133.749 110.084C132.837 110.175 131.925 110.221 131.013 110.221L130.192 107.621C129.553 107.621 128.915 107.598 128.276 107.553L127.318 110.084C126.361 109.993 125.448 109.856 124.582 109.673L124.24 107.005C123.601 106.914 122.986 106.777 122.393 106.595C121.07 106.23 119.77 105.797 118.493 105.295C117.9 105.067 117.307 104.816 116.714 104.542L114.867 106.458C114.046 106.047 113.248 105.591 112.473 105.09L113.088 102.49C112.587 102.171 112.085 101.829 111.583 101.464L109.394 103.037C108.664 102.444 107.957 101.851 107.273 101.258L108.368 98.7956C107.912 98.3395 107.456 97.8834 106.999 97.4273L104.605 98.5903C104.012 97.9062 103.419 97.1993 102.826 96.4695L104.331 94.2803C103.966 93.7786 103.624 93.2541 103.305 92.7067L100.705 93.3909C100.249 92.5699 99.7932 91.7489 99.3371 90.928L101.253 89.0808C100.979 88.4879 100.728 87.9178 100.5 87.3704L97.832 87.5073C97.5127 86.6407 97.2163 85.7741 96.9426 84.9075L99.1319 83.4024C98.995 82.7639 98.8582 82.1482 98.7214 81.5553L96.0532 81.2132C95.962 80.7571 95.8936 80.301 95.848 79.8449C95.7568 79.3888 95.6884 78.9327 95.6427 78.4766L98.1057 77.382C98.06 76.7891 98.0372 76.1734 98.0372 75.5348L95.4375 74.7139C95.4375 73.8017 95.4831 72.8895 95.5743 71.9773L98.1741 71.3616C98.2197 70.723 98.3109 70.0845 98.4477 69.446L96.0532 68.2145C96.2357 67.3023 96.4409 66.3902 96.669 65.478L99.3371 65.4095C99.5195 64.8166 99.702 64.2237 99.8844 63.6308L97.832 61.9204C98.1513 61.0539 98.5161 60.2101 98.9266 59.3891L101.526 59.7996C101.846 59.2523 102.165 58.705 102.484 58.1577L100.705 56.1052C101.207 55.3299 101.732 54.5545 102.279 53.7792L104.742 54.6686C104.97 54.4405 105.175 54.1897 105.358 53.916C105.54 53.688 105.745 53.4599 105.973 53.2319L104.605 50.9058C105.244 50.2216 105.882 49.5603 106.521 48.9218L108.847 50.2901C109.303 49.834 109.782 49.4235 110.283 49.0586L109.394 46.5273C110.124 45.98 110.876 45.4555 111.652 44.9538L113.704 46.6641C114.251 46.3449 114.799 46.0256 115.346 45.7063L114.867 43.1066C115.688 42.6961 116.532 42.3084 117.398 41.9435L119.109 44.0644C119.656 43.8363 120.249 43.6311 120.888 43.4487L120.956 40.7805C121.823 40.5069 122.712 40.2788 123.624 40.0964L124.856 42.4909C125.175 42.4453 125.494 42.3996 125.813 42.354C126.133 42.3084 126.429 42.2628 126.703 42.2172L127.25 39.5491C128.208 39.4578 129.143 39.4122 130.055 39.4122L130.876 42.012C131.514 42.012 132.13 42.0348 132.723 42.0804L133.749 39.6175C134.662 39.6631 135.574 39.7771 136.486 39.9595L136.828 42.6277C137.421 42.7645 138.037 42.9013 138.675 43.0382C139.998 43.403 141.298 43.8363 142.575 44.338C143.168 44.5661 143.738 44.8169 144.285 45.0906L146.132 43.175C146.953 43.5855 147.751 44.0416 148.527 44.5433L147.911 47.143C148.458 47.4623 148.983 47.8043 149.485 48.1692L151.674 46.6641C152.404 47.2114 153.111 47.7815 153.795 48.3745L152.7 50.8374C153.156 51.2935 153.589 51.7496 154 52.2056L156.463 51.0426C157.056 51.7267 157.626 52.4337 158.173 53.1634L156.668 55.3527C157.033 55.9 157.398 56.4245 157.763 56.9262L160.362 56.2421C160.818 57.063 161.252 57.884 161.662 58.705L159.815 60.5522C160.089 61.1451 160.34 61.738 160.568 62.3309L163.236 62.1257C163.555 62.9923 163.852 63.8588 164.125 64.7254L161.867 66.2305C162.05 66.869 162.21 67.4848 162.346 68.0777L164.946 68.4198C165.037 68.8759 165.129 69.332 165.22 69.788C165.265 70.2441 165.311 70.7002 165.357 71.1563L162.962 72.2509ZM109.462 57.3367C109.234 57.656 108.983 57.9752 108.71 58.2945L114.388 62.5362C114.525 62.3081 114.685 62.0801 114.867 61.852C118.219 57.7472 122.803 55.2843 127.66 54.6001L126.634 47.6219C120.135 48.5113 113.978 51.8636 109.462 57.3367ZM118.425 91.2016C118.197 91.0192 117.969 90.8368 117.74 90.6543C113.636 87.2336 111.241 82.5815 110.489 77.7241L103.579 78.6819C104.537 85.2496 107.82 91.5437 113.294 96.1274C113.613 96.3555 113.932 96.6063 114.251 96.88L118.425 91.2016ZM132.792 90.1754C136.965 89.5597 140.522 87.2336 142.917 84.0866C145.243 80.8711 146.406 76.8347 145.79 72.593C145.174 68.3513 142.917 64.7254 139.701 62.3309C136.554 59.9364 132.518 58.7734 128.345 59.3891C124.103 60.0048 120.545 62.2625 118.219 65.478C115.825 68.625 114.73 72.7298 115.346 76.9715C115.962 81.2132 118.219 84.8391 121.366 87.2336C124.513 89.5597 128.55 90.7911 132.792 90.1754ZM151.674 92.3647C151.947 91.9998 152.221 91.6349 152.495 91.27L146.816 87.0284C146.634 87.302 146.429 87.5757 146.201 87.8493C142.917 91.9542 138.333 94.4171 133.476 95.1012L134.502 102.079C141.001 101.122 147.158 97.8378 151.674 92.3647ZM157.557 70.8827C156.531 64.3149 153.316 58.0893 147.843 53.5739C147.478 53.3003 147.136 53.0266 146.816 52.753L142.575 58.4313C142.848 58.6594 143.122 58.8646 143.396 59.047C147.432 62.3993 149.895 67.0515 150.579 71.8405L157.557 70.8827Z" />
<path fill-rule="evenodd" clip-rule="evenodd" d="M135.666 81.8974C131.766 84.7708 126.293 83.8814 123.488 79.9134C122.599 78.7503 122.051 77.4505 121.846 76.0138C121.162 71.1564 124.446 66.7095 129.235 66.0253C131.561 65.6833 133.887 66.299 135.734 67.6673C139.634 70.6091 140.386 76.1506 137.513 80.0502C137.011 80.7343 136.395 81.3501 135.666 81.8974ZM133.818 77.2452C135.187 75.398 134.845 72.7983 132.997 71.43C132.108 70.7459 131.013 70.4722 129.919 70.6091C127.661 70.9511 126.088 73.072 126.43 75.3296C126.498 76.0138 126.772 76.6295 127.182 77.1768C128.551 79.0924 131.082 79.5029 132.929 78.1346C133.294 77.8609 133.59 77.5645 133.818 77.2452Z" />
</g>
</svg>
