<svg width="87" height="114" viewBox="0 0 87 114" fill="none" xmlns="http://www.w3.org/2000/svg">
<path d="M0 113.541H87V100.633H0V113.541Z" fill="#FFC400"/>
<path d="M59.8006 13.3694C58.2858 5.59803 51.5023 0 43.5992 0H43.3358C35.4327 0 28.6492 5.59803 27.1344 13.3694L24.0391 29.4391H62.9618L59.8006 13.3694Z" fill="#FFD900"/>
<path d="M10.208 100.633H76.7917L72.7742 80.0847H14.1596L10.208 100.633Z" fill="#FFD900"/>
<path d="M20.943 45.4429L17.2549 64.081H69.6788L66.0565 45.4429H20.943Z" fill="#FFD900"/>
<path d="M72.7748 80.0847H14.1602L17.2555 64.0809H69.6795L72.7748 80.0847Z" fill="#4A5361"/>
<path d="M66.0569 45.4429H20.9434L24.0387 29.4391H62.9615L66.0569 45.4429Z" fill="#4A5361"/>
<g style="mix-blend-mode:screen" opacity="0.2">
<path d="M47.0233 0.395155C40.7008 1.71234 35.5638 6.71764 34.2466 13.3694L31.0854 29.4391L27.99 45.4428L24.1702 65.1347L21.2724 80.0848L17.2549 100.633H10.208L14.1596 80.0848L17.0574 65.1347L20.9431 45.4428L24.0384 29.4391L27.1338 13.3694C28.6486 5.59803 35.4321 0 43.3352 0H43.5986C44.7841 0 45.9256 0.131718 47.0233 0.395155Z" fill="#FFFEFF"/>
</g>
<g style="mix-blend-mode:screen" opacity="0.2">
<path d="M5.79561 113.541H0V100.633H5.79561V113.541Z" fill="#FFFEFF"/>
</g>
</svg>
