<svg width="310" height="675" viewbox="0 0 310 675" fill="none" xmlns="http://www.w3.org/2000/svg">
<g >
<path d="M309.48 267.762C309.48 146.599 210.902 48.0216 89.7399 48.0216C-31.4225 48.0216 -130 146.599 -130 267.762C-130 356.15 -77.5165 432.465 -2.09801 467.316C-3.74556 479.787 -4.30562 512.537 -4.01158 516.868C-4.29162 527.575 -0.553154 533.19 4.33348 536.209C-0.875196 543.313 -2.38272 557.119 -3.47953 567.326C-3.65689 568.992 -3.82022 570.509 -3.98358 571.774C-4.66967 577.025 -3.17616 582.275 0.226286 586.564C3.31602 590.462 7.77795 593.201 12.7533 594.382C7.86196 600.702 7.1992 610.55 6.70447 618.013C6.57845 619.88 6.4711 621.574 6.29842 622.937C5.66833 627.692 7.02185 632.453 10.0976 636.346C13.4627 640.597 18.6154 643.361 24.2347 643.925C34.0127 644.91 43.828 645.638 53.6526 646.18C50.8756 650.847 48.878 656.961 48.5373 660.102C48.1779 663.206 49.018 666.277 50.9036 668.755C52.8265 671.29 55.5942 672.881 58.6932 673.236C68.9893 674.412 79.3646 675 89.7353 675C100.106 675 110.481 674.412 120.782 673.236C123.881 672.881 126.644 671.29 128.567 668.755C130.448 666.282 131.288 663.21 130.933 660.111C130.583 656.956 128.59 650.847 125.813 646.18C135.638 645.638 145.453 644.91 155.231 643.925C160.855 643.361 166.008 640.597 169.373 636.346C172.449 632.458 173.798 627.702 173.177 622.951C171.805 612.094 169.896 601.173 166.204 594.517C171.399 593.411 176.057 590.602 179.254 586.564C182.647 582.28 184.136 577.034 183.445 571.793C183.249 570.22 183.062 568.32 182.866 566.234C181.877 555.942 180.486 541.759 174.544 535.635C176.323 534.412 177.919 532.947 179.254 531.262C182.614 527.019 184.108 521.834 183.468 516.644C182.553 496.878 181.387 476.477 180.953 468.786C180.929 468.356 180.906 467.974 180.887 467.628C256.674 432.927 309.48 356.421 309.48 267.762ZM62.8471 478.209C59.4447 457.916 38.5633 333.598 32.5985 303.261C32.4958 302.733 32.4305 302.299 32.3885 301.945C33.5646 302.36 35.5809 303.28 39.0487 305.226C42.4745 307.149 44.9108 308.773 46.871 310.075C52.5044 313.818 55.3328 315.405 63.2952 313.692C66.7863 312.945 69.3766 311.079 71.6636 309.426C75.6354 306.556 77.6284 305.114 83.1918 308.656C96.5029 317.123 104.811 311.564 113.604 305.674L114.491 305.081C119.573 301.697 121.057 302.855 125.44 306.323C126.583 307.228 127.797 308.18 129.155 309.104C133.846 312.292 140.02 309.286 144.982 306.869C145.318 306.705 145.696 306.523 146.088 306.337C139.46 341.126 119.774 458.065 116.441 477.896C99.2939 479.945 81.0635 480.249 62.8425 478.218L62.8471 478.209ZM61.7643 647.262C61.7317 647.262 61.699 647.262 61.671 647.258C61.7036 647.258 61.7363 647.258 61.7643 647.262ZM122.607 664.228C121.93 665.119 120.978 665.675 119.933 665.796C99.8913 668.088 79.5746 668.088 59.5427 665.796C58.4926 665.675 57.5404 665.119 56.8637 664.228C56.1543 663.295 55.8415 662.137 55.9769 660.942C56.4576 656.597 60.1868 648.775 62.0817 647.286C83.2945 648.583 99.8539 648.588 117.394 647.286C119.293 648.789 123.022 656.597 123.494 660.933V660.956C123.629 662.132 123.316 663.29 122.607 664.223V664.228ZM163.506 631.692C161.392 634.367 158.102 636.108 154.484 636.472C111.522 640.794 67.9531 640.794 24.9862 636.472C21.3737 636.108 18.0879 634.367 15.9737 631.697C14.1628 629.41 13.3647 626.647 13.7287 623.893C13.9201 622.386 14.0414 620.542 14.1768 618.507C14.6295 611.693 15.3109 601.402 20.0015 597.57C21.369 596.454 23.0866 595.899 25.3082 595.899C25.9896 595.899 26.7177 595.95 27.4972 596.053C29.4761 596.212 31.399 596.319 33.3639 596.464C34.3954 596.543 35.4269 596.604 36.4537 596.678C40.9576 596.991 45.4289 597.276 49.8534 597.519C51.7577 597.621 53.6572 597.715 55.5615 597.803C91.5602 599.511 125.099 598.802 157.317 595.582C157.341 595.614 162.162 595.535 165.751 623.893V623.912C166.115 626.642 165.312 629.405 163.506 631.692ZM176.019 572.735V572.759C176.449 575.979 175.51 579.232 173.382 581.921C170.913 585.038 167.086 587.064 162.876 587.484C127.204 591.068 91.1635 591.997 55.2955 590.312C53.8393 590.242 52.3784 590.172 50.9129 590.093C45.9376 589.832 40.9623 589.524 35.9963 589.159C35.4455 589.122 34.8995 589.085 34.3488 589.043C28.4213 588.595 22.5032 588.077 16.5944 587.484C12.3892 587.064 8.56204 585.038 6.09305 581.921C3.96011 579.232 3.022 575.974 3.44672 572.735C3.61474 571.41 3.78275 569.851 3.96478 568.133C4.72554 561.058 6.99386 540.074 12.2959 539.126C13.5047 539.355 14.6995 539.514 15.843 539.626C26.3957 540.685 36.9858 541.474 47.5898 542.081C48.696 542.151 49.7974 542.225 50.9036 542.286C52.7051 542.379 54.502 542.454 56.3036 542.533C91.5415 544.288 128.189 543.518 167.324 540.111C167.389 540.106 167.45 540.102 167.515 540.102C172.831 540.102 174.703 559.564 175.412 566.948C175.622 569.123 175.814 571.097 176.019 572.735ZM173.597 471.334C174.106 480.23 175.156 498.969 175.996 517.139L176.024 517.456C176.449 520.677 175.515 523.93 173.387 526.613C170.918 529.731 167.091 531.757 162.876 532.177C127.694 535.719 92.1529 536.653 56.7703 535.061C54.9314 534.968 53.0692 534.912 51.235 534.804C50.2222 534.753 49.214 534.674 48.2012 534.613C36.533 533.89 25.0049 532.895 13.5934 531.593C13.3553 531.575 13.1453 531.617 12.9119 531.607C6.67646 530.244 3.21334 526.744 3.46538 516.723C2.74195 505.606 4.18882 481.275 4.99626 470.774C22.8906 478.657 41.8164 483.422 60.7328 485.7C64.3126 486.33 72.8958 487.432 89.2452 487.492C89.4086 487.492 89.5719 487.506 89.7399 487.506C89.8473 487.506 89.9453 487.497 90.0527 487.497C90.2254 487.497 90.3794 487.497 90.5567 487.497C107.186 487.497 115.242 486.307 118.752 485.527C126.527 484.496 134.182 483.072 141.682 481.247C153.154 478.62 163.936 475.278 173.602 471.334H173.597ZM144.884 472.706C138.275 474.349 131.358 475.735 124.212 476.828C128.609 450.677 148.291 333.92 154.027 304.703C154.704 301.268 153.458 299.48 152.291 298.584C149.42 296.377 145.85 298.118 141.705 300.134C139.913 301.007 134.457 303.653 133.36 302.911C132.161 302.099 131.087 301.245 130.079 300.447C125.333 296.694 119.942 292.442 110.332 298.855L109.436 299.452C101.035 305.086 96.3955 308.19 87.2056 302.341C77.3484 296.078 71.5236 300.288 67.2717 303.364C65.4235 304.698 63.6779 305.963 61.727 306.379C56.509 307.503 55.8789 307.083 51.0109 303.849C48.948 302.477 46.381 300.773 42.7125 298.71C36.2997 295.112 31.0957 292.563 27.3665 295.271C23.8847 297.791 24.8742 302.822 25.2476 304.717C30.9977 333.967 50.7075 451.129 55.0714 477.154C-45.5317 460.553 -122.523 373.009 -122.523 267.776C-122.523 150.739 -27.306 55.5219 89.7306 55.5219C206.767 55.5219 301.984 150.739 301.984 267.776C301.984 365.737 235.256 448.371 144.879 472.716L144.884 472.706Z" />
<path d="M89.9495 0C89.9495 0 32.458 62.4762 32.458 139.542C32.458 187.905 43.5988 241.135 59.1128 274.086C74.1461 266.105 89.9449 261.111 89.9449 261.111C89.9449 261.111 105.748 266.105 120.782 274.086C136.296 241.135 147.436 187.905 147.436 139.542C147.436 62.4762 89.9449 0 89.9449 0H89.9495ZM89.9495 72.3801C97.0905 72.3801 102.878 78.1675 102.878 85.3085C102.878 92.4494 97.0905 98.2368 89.9495 98.2368C82.8086 98.2368 77.0211 92.4447 77.0211 85.3085C77.0211 78.1722 82.8133 72.3801 89.9495 72.3801ZM89.9495 159.644C77.5719 159.644 67.5326 149.61 67.5326 137.227C67.5326 124.845 77.5672 114.81 89.9495 114.81C102.332 114.81 112.366 124.845 112.366 137.227C112.366 149.61 102.332 159.644 89.9495 159.644Z" />
<path d="M18.6345 198.705C0.889497 207.857 -13.173 220.057 -23.665 233.788V284.652C-4.23984 270.618 18.5458 267.08 36.2301 271.99C23.0777 247.604 20.4314 224.314 18.6345 198.705Z" />
<path d="M205.615 236.575C194.931 221.71 180.197 208.469 161.262 198.705C159.465 224.314 156.818 247.608 143.666 271.99C161.971 266.903 185.76 270.87 205.615 286.174V236.575Z" />
</g>
</svg>
