<svg width="47" height="46" viewbox="0 0 47 46" fill="none" xmlns="http://www.w3.org/2000/svg">
<path d="M21.4565 0.0328074C19.0542 0.267182 17.5503 0.579682 15.6362 1.20468C9.58153 3.2164 4.6206 7.63046 2.00341 13.3531C1.08544 15.3453 0.479971 17.4547 0.128408 19.857C-0.0669041 21.068 -0.0278417 24.4664 0.167471 25.775C0.675283 29.1344 1.90575 32.318 3.6831 34.9937C4.65966 36.4586 5.36278 37.3375 6.59325 38.5484C12.5698 44.5445 21.3784 46.7906 29.6011 44.4078C32.4331 43.5875 35.3628 42.0641 37.7651 40.15C38.8393 39.2906 40.5776 37.5328 41.3784 36.4586C43.937 33.0992 45.2847 29.8961 45.9878 25.443C46.0464 25.0133 46.105 23.8805 46.105 22.65C46.105 20.5602 46.0659 20.0523 45.6948 18.1773C44.8745 13.9586 42.7065 9.93515 39.5425 6.77109C35.9878 3.2164 31.5347 0.989839 26.4565 0.22812C25.3042 0.0718699 22.3159 -0.0648488 21.4565 0.0328074ZM32.98 11.2633C33.7026 11.5953 34.269 12.1422 34.6206 12.8453C34.894 13.4117 34.9136 13.5094 34.9136 14.3492C34.9136 15.8727 34.9722 15.775 31.2026 19.4859L27.98 22.6695L31.1831 25.8336C34.9526 29.5445 34.894 29.4664 34.894 30.9703C34.894 31.7516 34.8745 31.9273 34.6597 32.3961C34.0151 33.8023 32.4722 34.6227 30.9683 34.3687C29.855 34.193 29.6597 34.0367 26.2612 30.6969C24.5229 28.9977 23.0776 27.6109 23.0386 27.6109C22.9995 27.6109 21.5542 28.9977 19.8159 30.6969C17.3354 33.1383 16.5542 33.8414 16.1636 34.0367C14.4253 34.8766 12.394 34.232 11.4761 32.5328C11.1831 31.9859 11.1636 31.9273 11.1636 31.0094C11.1636 29.4469 11.0854 29.5445 14.8745 25.8141L18.0776 22.65L14.8745 19.4859C11.105 15.775 11.1636 15.8531 11.1636 14.3492C11.1636 13.5094 11.1831 13.4117 11.4565 12.8453C11.8081 12.1422 12.355 11.5953 13.0972 11.2437C13.5464 11.0289 13.7026 11.0094 14.5815 11.0094C16.1245 11.0094 16.0854 10.9898 19.8159 14.6617C21.5347 16.3414 22.98 17.7281 23.019 17.7281C23.0776 17.7281 24.5229 16.3414 26.2417 14.6422C28.8003 12.1422 29.4643 11.5172 29.894 11.3023C30.8511 10.8531 32.062 10.8531 32.98 11.2633Z" />
</svg>
