<svg width="40" height="40" viewbox="0 0 40 40" fill="none" xmlns="http://www.w3.org/2000/svg">
<path d="M39.019 6.52026L33.4882 0.980987C32.8538 0.352555 31.9969 0 31.104 0C30.211 0 29.3541 0.352555 28.7197 0.980987L19.9873 9.68798L11.2549 0.980987C10.6205 0.352555 9.76361 0 8.87064 0C7.97766 0 7.12079 0.352555 6.48638 0.980987L0.980985 6.48638C0.352553 7.12079 0 7.97766 0 8.87064C0 9.76362 0.352553 10.6205 0.980985 11.2549L9.68797 19.9873L0.980985 28.7197C0.352553 29.3541 0 30.211 0 31.104C0 31.9969 0.352553 32.8538 0.980985 33.4882L6.48638 39.019C7.12079 39.6475 7.97766 40 8.87064 40C9.76361 40 10.6205 39.6475 11.2549 39.019L19.9873 30.2866L28.7197 39.019C29.3541 39.6475 30.211 40 31.104 40C31.9969 40 32.8538 39.6475 33.4882 39.019L39.019 33.4882C39.6475 32.8538 40 31.9969 40 31.104C40 30.211 39.6475 29.3541 39.019 28.7197L30.2866 19.9873L39.019 11.2888C39.6475 10.6544 40 9.79749 40 8.90452C40 8.01154 39.6475 7.15467 39.019 6.52026Z" />
</svg>
